<?xml version="1.0" encoding="utf-8"?>
<!-- Generator: Adobe Illustrator 27.0.1, SVG Export Plug-In . SVG Version: 6.00 Build 0)  -->
<svg version="1.1" id="Capa_1" xmlns="http://www.w3.org/2000/svg" xmlns:xlink="http://www.w3.org/1999/xlink" x="0px" y="0px"
	 viewBox="0 0 841.9 595.3" style="enable-background:new 0 0 841.9 595.3;" xml:space="preserve">
<style type="text/css">
	.st0{opacity:0.6;fill:#424242;enable-background:new    ;}
	.st1{opacity:0.6;fill:#424242;}
</style>
<image style="overflow:visible;enable-background:new    ;" width="3603" height="3603" xlink:href="DBD8ABA9.png"  transform="matrix(0.1331 0 0 0.1331 161.0489 60.4396)">
</image>
<path id="AFA" class="st0" d="M191.2,482.9l12-64l12,2.2c0,0,1.7,0.6,2.8-1.8l27.3,4.8c0,0,4.4,0.8,7.4-3.2c0,0,10.6,6.8,18.9,8.9
	c8.3,2.2,21.9,5.5,36.1,2.4c14.2-3.1,26.5-9.5,50.4-1.3c0,0,6.8,2.3,18.9,10.5c0,0,6.5,4.4,16.6,5.9c0,0,4.2,0.5,5.4,1.1
	c1.3,0.5,2.9,0.8,4.9,0.9c1.9,0.1,6.6-0.7,8.3-1.7c1.7-1.1,2.1-1.1,4.1-2.6s13.5-5.6,21.3-5.3c7.8,0.3,11.2,0.5,16.2,1.8l-8.6,47.9
	l-13-1.1l-5.6,1.1l2.1-13.7l-3.4,2.3l-7.9,9.5l-6.4,5.5l-6.8,4.8l-7.7,1.2l-4.8-3.8l-3.4-5.2l-4.2-3.8l-6.6-0.9l-19.3,1.9l-2.6,15.3
	l-5.8-0.3l-14.6-3.5l-8.3-1.1l-17.7-1.8l2.3-12.7l-19.8-2l-8-0.4l-8-0.4l-5-0.3l-6-1.1l-5.3-2.3l-6.2-3.3l-2.9,17.4l-2.8-1.5
	L243,488l-4.1-0.2l1.8-10.3l-3.8-0.3l-7.3,5l-7.9,10.1l-4,0.1l-7.2-8.6l-8.3-4.2l-8,0.8L191.2,482.9z"/>
<polygon id="M101" class="st0" points="452.1,451.8 461.6,451.8 462.9,444.6 453.8,442.1 "/>
<path id="M102" class="st0" d="M463.1,444.6c0,0,6.4,1.4,7.5,1.6l3.5,0.5l-1,5.6c0,0-4.4-0.5-5.7-0.4l-5.6-0.1L463.1,444.6z"/>
<path id="M103" class="st0" d="M474.3,446.6l3.5,0.5c0,0,5.8,0.5,6.8,0.6l-1.1,6.8l-3.7-1c0,0-2.9-0.8-3.9-0.8l-2.6-0.4L474.3,446.6
	z"/>
<path id="M104" class="st0" d="M484.8,447.7l8.4,0.5l-1.4,8.3c0,0-4-0.8-4.4-1c-0.5-0.2-3.6-1-3.6-1L484.8,447.7z"/>
<path id="M105" class="st0" d="M493.3,448.2l8,0.8l-1.4,8.3c0,0-7.5-0.5-8-0.8L493.3,448.2z"/>
<path id="M106" class="st0" d="M501.6,449l-1.4,8.2l8-0.3c0,0,2.3,0.3,2-2.2c0,0-0.2-1.2-0.5-1.6l-1-0.1l-2.6-2l0.5-0.6l-1.4-1
	c0,0-0.5-0.5-1.5-0.4L501.6,449z"/>
<polygon id="M107" class="st0" points="525.4,452.4 524.1,459.9 520.3,458.6 519.5,458.1 518.9,457.6 516.5,454.5 517.2,451.1 
	518.1,451.1 "/>
<polygon id="M108" class="st0" points="525.6,452.5 532.7,453.8 531.6,461.8 527.9,461 524.3,459.9 "/>
<polygon id="M109" class="st0" points="532.9,453.7 540,455.3 539.5,462.6 536.2,462.3 531.8,461.8 "/>
<path id="M110" class="st0" d="M547.1,463.7v-8.4c0,0-2,0.5-3.5,0.5c-1.5-0.1-3.5-0.5-3.5-0.5l-0.5,7.3l3.8,0.4L547.1,463.7z"/>
<polygon id="M111" class="st0" points="451.5,455.2 449.8,464.6 458.9,464.6 460.9,455.2 "/>
<path id="M112" class="st0" d="M461.1,455.2h5c0,0,2.6-0.1,3.7,0.1l-1.7,8.3c0,0-3.8,1.1-5.3,1.1l-3.2,0.3c0,0-0.5,0.2-0.5-0.5
	L461.1,455.2z"/>
<path id="M113" class="st0" d="M469.9,455.2c0,0,7.7,0.8,9.2,1.5l-0.4,2.3c0,0-3.3,1.2-4.6,2c0,0-4.1,2.2-5.8,2.4L469.9,455.2z"/>
<path id="M114" class="st0" d="M486.4,458.9l-1.4,7.3l-10.1-2.2l0.3-1.7C475.2,462.2,481.4,459.2,486.4,458.9z"/>
<path id="M115" class="st0" d="M485.1,466.1l1.5-7.3l1.2,0.2c0,0,4.7,1.1,5.5,1.1l-1.4,7.2L485.1,466.1z"/>
<path id="M116" class="st0" d="M493.4,460l-1.4,7.2l2.3,0.3l0.3-0.4l4.7,0.5l1.4-7.2C500.8,460.4,496.3,460.4,493.4,460z"/>
<path id="M117" class="st0" d="M499.6,467.7l1.4-7.1l4.6-0.2c0,0,5.3-0.5,6.7-0.1l-1.5,7.9l-4.8-0.2
	C505.9,468,499.9,467.8,499.6,467.7z"/>
<path id="M118" class="st0" d="M512.3,460.3c0,0,4.2,0.3,7,1.4l2.8,0.9l-1.1,6.3l-10.3-0.7L512.3,460.3z"/>
<path id="M119" class="st0" d="M522.2,462.6l-1.1,6.2l12,1l0.8-4.4C533.9,465.3,525,464,522.2,462.6z"/>
<path id="M120" class="st0" d="M534.1,465.5l-1.7,9.5c0,0,3.1-0.2,5.9-0.7c2.9-0.5,5.9-0.6,5.9-0.6l1.1-6.8c0,0-3.9-0.9-7-1
	L534.1,465.5z"/>
<path id="M121" class="st0" d="M545.8,466.9l-1.1,6.8c0,0,4.4-0.1,5.8,0c1.4,0.1,6-0.8,6.2-1l0.5-2
	C557.1,470.7,551.2,467.7,545.8,466.9z"/>
<path id="M122" class="st0" d="M565,481.3l1.7-6.2l-3.5-1.4c0,0-1.4-0.6-2.6-0.4c0,0-0.9,0.1-1.9,0.6c-1.1,0.5-3.9,1.2-4.3,1.2
	l-0.5,2.2L565,481.3z"/>
<path id="M123" class="st0" d="M566.9,475.2c0,0,6.8,2.6,9.1,2.7l-1.7,6.7l-9.2-3.2L566.9,475.2z"/>
<path id="M124" class="st0" d="M576.2,477.9l3.7,0.8l0.6-3.2l4.9,0.9l-1.4,9.7c0,0-6.1-0.2-9.6-1.4L576.2,477.9z"/>
<path id="M135" class="st0" d="M583.9,486.2l-1.7,11.4l-8.8-4l1.4-6.2l2.4,0.5l0.6-2.3C577.9,485.6,581,486.2,583.9,486.2z"/>
<path id="M134" class="st0" d="M564.1,490.7l2.6-6.9l4.4,1.7l3.5,1c0,0,0.4,0.1,0.3,0.5l-1.5,6.7L564.1,490.7z"/>
<polygon id="M133" class="st0" points="555.1,487.9 557.7,480.7 566.4,483.8 566.4,484 563.9,490.7 "/>
<polygon id="M132" class="st0" points="546.7,485.3 549.7,477.2 553.7,479 557.7,480.5 554.9,487.9 "/>
<path id="M131" class="st0" d="M533.3,486l1.6-9.4l9-1.1c0,0,2.3-0.3,4.4,0.9l1.3,0.6l-3,8.3l-2.7-0.9L533.3,486z"/>
<polygon id="M130" class="st0" points="532.3,475 533,470 520.6,469 519.6,475.2 530,475.2 "/>
<polygon id="M129" class="st0" points="519.3,475.2 520.3,469 510.8,468.3 506.1,468.1 504.9,477 513.8,477.2 513.9,474.6 
	516.4,474.6 516.6,475.1 "/>
<path id="M128" class="st0" d="M493.4,477l1-7.4l2.5,0.4l0.3-2.5l2.3,0.3c0,0,4.2,0.4,6.3,0.4l-1.1,8.9L493.4,477z"/>
<polygon id="M127" class="st0" points="483.8,476.8 485.4,467.9 490.8,468.8 493.9,469.2 494.2,469.5 493.2,477 "/>
<path id="R144" class="st0" d="M467.8,476.6l2.1-11.3c0,0,3.3,0,5.1,0.5l7.3,1.7l2.9,0.5l-1.6,8.9L467.8,476.6z"/>
<path id="M126" class="st0" d="M467.6,476.6l2.1-11.3c0,0-4,0.5-6.1,1.1c0,0-2.8,0.4-3.9,0.5h-0.6l-0.2,0.3l-2,9.4L467.6,476.6z"/>
<polygon id="M125" class="st0" points="456.9,476.4 458.8,467.3 456.4,467.3 456.3,464.8 449.8,464.8 447.7,476.4 "/>
<path id="M100" class="st0" d="M587.7,460.1l-2.3,16.2l-5-1l-5.9-1.1c0,0-5.9-1.5-8-2.7c0,0-8.3-4.1-10.4-4.9c-2-0.8-4.6-1.7-5.7-2
	l0.2-10.8l1-0.8l1-0.5l14.4,0.7l1.9,0.6l5.5,0.5C574.3,454.3,579.3,454.9,587.7,460.1z"/>
<path id="R163" class="st0" d="M583.8,382.6c0,0,13.2,3.2,14.4,4.1l-3.8,26.2h-2.9l0.2-1.1l-12.2-1.7L583.8,382.6z"/>
<path id="R168" class="st0" d="M562.2,407.1c0,0,0.5,5.4,0,11c-0.5,5.6-2.9,14.3-2.9,14.3l16.6,2.9l3.8-25.1L562.2,407.1z"/>
<polygon id="R164-A" class="st0" points="594.5,412.9 591,438 575.9,435.3 579.8,410.2 591.9,411.8 591.6,412.9 "/>
<path id="R167" class="st0" d="M562.2,407.1c0,0,2-14.4,3.8-17.1l1.2-3.5l11,2l1.2-6.7l4.5,0.9l-4.1,27.6L562.2,407.1z"/>
<path id="C024" class="st0" d="M579.2,381.6l-4.6-0.8c0,0-3.4-0.8-5.9,2.4l-1.4,3.1l10.7,2L579.2,381.6z"/>
<path id="R124C" class="st0" d="M545.9,414.1c0,0-6.3,35.1-6.5,37.2c6.9,0.1,11.1-4.1,11.1-4.1l-0.6-0.7c3.2-2.8,4.1-7.4,4.1-7.4
	l1-4.2l2.5-9.8l0.8-5l0.3-5.6L545.9,414.1z"/>
<polygon id="R124B" class="st0" points="538.7,413.7 545.9,414.1 539.3,451.3 532.3,449.6 "/>
<path id="R124" class="st0" d="M538.7,413.7l-3.5,0.1l-15.1,0.1v-5.7l-2.4,0.1l-6.6,38.3l12.6,2l8.6,1.1
	C532.5,448.7,538.7,414.9,538.7,413.7z"/>
<path id="C022" class="st0" d="M557.6,378.6l-1,5.8l8,1.5l1.9-4.6c0,0,0.7-1.5-1.3-2.1L557.6,378.6z"/>
<path id="R122" class="st0" d="M558.7,414.3c0,0,0-6.6,0.3-7.7s0.4-7.4,2.5-14.1l2.1-6.5l-7.3-1.3l1.1-6l-8.9-0.2l-12.1,0.2l0.3,5.6
	l-14.7,1l-1.1,6l-0.8,22.6l15.2-0.2L558.7,414.3z"/>
<path id="C031" class="st0" d="M536.5,384l-0.3-5.3l-3.6,0.2c0,0-0.8,0-1.4,0.8c-0.7,0.8-2.3,0.8-2.3,0.8l0.3,4L536.5,384z"/>
<path id="C030" class="st0" d="M528.9,384.4l-0.2-4c0,0-1.2-0.2-1.6-0.6c-0.5-0.5-1.1-0.5-1.6-0.5l-3.6,0.2l0.2,5.4L528.9,384.4z"/>
<path id="R121" class="st0" d="M521.6,379.4l0.2,5.7l-1.1,6l-0.5,16.8h-10.8l-12-0.5l-15.2-1.1c0,0-1.6-12.4,3.8-23.1l7.4,0.8
	l0.5-5.6C493.9,378.4,512.3,380.3,521.6,379.4z"/>
<path id="R123" class="st0" d="M510.9,446.5l6.7-38.3c0,0-12.7,0-17.4-0.2l-18-1.4c0,0,1.4,6.8,1.5,10.1c0.2,3.3-0.5,10.4-2,13.5
	l-3.2,7.7l5.9,0.6l-0.3,5.6l13.8,0.9L510.9,446.5z"/>
<path id="C016" class="st0" d="M493.7,378.5l-0.5,5.3l-8-0.9l1.7-3.3c0,0,0.5-0.7,1.4-0.7c0.9,0,1-0.5,1-0.5s0.9-0.2,1.4-0.1
	C491.1,378.4,493.7,378.5,493.7,378.5z"/>
<path id="C250" class="st0" d="M484.2,444l0.3-5.3l-6.8-0.7c-0.2,0.2-1.6,4.4,3.1,5.8L484.2,444z"/>
<path id="R132" class="st0" d="M458.4,415.8c0,0,7.1,2.6,14.7,3.9c0,0,5.3,0.9,7.2,1.1c0,0-0.7,5.8-1.7,8.1c-1,2.3-3.7,8.9-3.7,8.9
	s-1.1,4.4-6,4.1l-8.9-2.2l-5.6-1.4L458.4,415.8z"/>
<path id="R131" class="st0" d="M458.5,415.6l3.1-16.9l3.5-0.3l4.5,0.1l8.7,0.9c0,0-0.1,5.7,0.2,7.1c0.3,1.4,0.7,5,1.1,6.3
	c0.5,1.3,0.8,6.2,0.5,7.8l-8.9-1.4l-5.4-1.3L458.5,415.6z"/>
<path id="C014" class="st0" d="M477.2,381.6l1-5.5l5.9,0.5c0,0,1.2,0.4,0.7,1.3l-2.1,4.2L477.2,381.6z"/>
<path id="R026" class="st0" d="M477.9,376l-7.1-0.6l-5.2-0.2l-4.1,23.1l2.6-0.2l3.7-0.1l2,0.1l8.6,0.8c0,0,0.7-8.1,2.1-11.5l1.9-5.1
	l-5.5-0.5L477.9,376z"/>
<path id="R134-B" class="st0" d="M454.2,438.1l4.2-22.8l-24.9,2.8c0,0,1.4,6.3,1.7,18.4c0,0,8.4-0.8,15,0.8L454.2,438.1z"/>
<path id="R133-A" class="st0" d="M440.5,414.4c0.2-1.2,0.3-2.4,0.4-3.5c0.2-2.4,0.1-4.9-0.1-7.3c-0.2-2.4-0.4-4.8-0.7-7.1
	c-0.3-2.4-0.8-4.7-1.2-7.1c-0.5-2.3-1.1-4.4-1.6-6.7c-2.8,1.4-5.3,3.1-7.6,4.7c-8.6,6.2-15.4,9.6-15.4,9.6l7.1,22.4l18.8-2.1
	C440.2,416.1,440.3,415.3,440.5,414.4z"/>
<path id="R133-B" class="st0" d="M437.3,382.4c0.1,0.2,1.3,5.3,1.7,7.7c0.5,2.3,0.9,4.7,1.2,7.1c0.3,2.4,0.5,4.8,0.7,7.2
	c0.2,2.5,0.2,4.9,0,7.4c-0.1,1.8-0.5,3.5-0.6,5.3l18-2l7-39.7C454.2,375.4,444.9,378.4,437.3,382.4z"/>
<path id="C249" class="st0" d="M414.2,441.5l-1.1-5.1l-4,0.7c0,0,0,1.9,1.4,3.3C411.9,441.7,414.2,441.6,414.2,441.5z"/>
<path id="R134-A" class="st0" d="M434.8,436.5c0,0,0.1-12.9-1.7-18.3l-12,1.4L420,416c0,0-9.5,2.4-12.9,4.4c0,0,2.1,3.3,3.1,7.8
	c1,4.6,0,8.4,0,8.4l3.2-0.6l1.1,5.4l1.4-0.3c0,0,6.5-2.9,11.5-3.7C427.3,437.5,430.5,436.8,434.8,436.5z"/>
<path id="C248" class="st0" d="M402.2,437.6l4,0.4c0,0-1.1,4.4-4.7,5.6L402.2,437.6z"/>
<path id="C240" class="st0" d="M322.2,419.5l1.1,5.3c0,0-3.3,0.5-5-3.6l-0.3-0.8L322.2,419.5z"/>
<path id="C239" class="st0" d="M311.6,422.6l1.1,5.2c0,0,4.1-1.4,2.9-6.3L311.6,422.6z"/>
<path id="R146" class="st0" d="M221.7,389.3c10.2,1.7,20.3,3.4,30.5,5.2c-1.2,4.2-2.3,8.4-3.5,12.6c0,0-3.3,5.6,0.3,10.9
	c0,0,1.7,2.3,3.2,3.2c0,0-2,3.5-7.5,2.9l-26.6-4.8c0,0,0.6-1.2-0.5-2.3c0-0.3-0.1-0.7-0.2-1.1c-0.2-2.7,0.3-4.7,0.5-5.5
	c0.6-2.5,0.8-5,1.4-7.5C220,399.7,220.8,395.3,221.7,389.3z"/>
<path id="R143" class="st0" d="M221.7,389.3c10.2,1.7,20.3,3.4,30.5,5.2c0.7-4.6,1.2-10,1.1-16c-0.1-2.5-0.2-4.8-0.4-7.1
	c0,0-1.1-8.5-1.1-9.7l-25.3-0.8C224.8,370.3,223.3,379.8,221.7,389.3z"/>
<path id="R148" class="st0" d="M252.4,361.7c0,0-0.3-5.9,0.2-8.6c0,0,0.9-6.5,1.7-8.7c0.8-2.3,2.9-8.5,2.9-8.5s0.4-0.9,0.3-1.1
	c-0.1-0.3-0.2-0.8-0.2-0.8l-17.1,8.3l-0.6,2.1h1.2c0,0-0.1,2.2-0.2,3.3l-2.4,13.8L252.4,361.7z"/>
<polygon id="R147" class="st0" points="237.7,361.3 240.1,347.6 240.3,344.5 239.1,344.5 239.4,343.6 229.4,348.5 227,361.1 "/>
<path id="I101" class="st0" d="M229.1,348.7l-14.6,7.1l-11.3,63.1l12.3,2.1c0,0,1.5,0.2,2.1-1.4c0.5-1.7-0.5-2.4-0.5-2.4
	s-0.3-0.5-0.2-1.1C217,415,229.1,348.7,229.1,348.7z"/>
<path id="R049" class="st0" d="M598.6,384.4l4.4-28.6l-26.5-4.1c0,0-0.2,11-2.9,18.8l7.6,1.4l-1.3,7.4
	C585.3,380.5,595.8,383.2,598.6,384.4z"/>
<path id="C023" class="st0" d="M579.6,379.1l1.2-7.1l-7.3-1.2l-1.6,4.4c0,0-0.7,1.8,0.9,2.5L579.6,379.1z"/>
<path id="C021" class="st0" d="M558.1,376l1.4-7.7l11.2,2c0,0-0.8,3.2-2.1,4.7c0,0-2,1.9-4.7,1.6L558.1,376z"/>
<path id="C019" class="st0" d="M541.4,375.7l1-5.6l-7.5-1.3l-2.6,5.3c0,0-0.5,1.6,1.4,1.9C533.7,376,541.4,375.7,541.4,375.7z"/>
<path id="R046" class="st0" d="M541.7,374.9h11.2l5,0.3l1.3-7.1l10.7,1.9c0,0,2.6-7.2,3-16.3v-6.1l-0.3-24.9c0,0,0.6-8.7,1.4-12.5
	l1,0.1l0.2-0.7l-1-0.2c0,0,1.6-7.1,1.9-7.9l-20.8-3.2h-1.5l-7.6,1.1l0.2,0.5l-0.2,0.2l1.1-0.2c0,0,3.9,13.3,0.5,29.6
	c-3.4,16.3-8.9,32.5-12.1,39.2l6.8,1.2L541.7,374.9z"/>
<path id="R048" class="st0" d="M603,355.4l3.9-27l-30.9-4.6c0,0,0.1,11.6,0.4,17.4c0,0,0.1,8.8,0.1,10.1L603,355.4z"/>
<path id="R047" class="st0" d="M610,306.6l-3.1,21.6l-30.8-4.6c0,0,0.8-11,3.4-21.5L610,306.6z"/>
<polygon id="C034" class="st0" points="609.4,306.2 611.3,293.4 602.6,292.1 600.6,304.9 "/>
<polygon id="C035" class="st0" points="600.4,304.9 602.4,292.1 593.1,290.6 591.2,303.5 "/>
<path id="C036" class="st0" d="M590.9,303.5l2-12.8c0,0-5-1.5-9.2,2c0,0-2.3,2.1-3,5.1l-1.3,4L590.9,303.5z"/>
<path id="C026" class="st0" d="M569,300.2l8,1.2l2.4-7.1c0,0,1.1-4.8-3.5-6.2l-5-0.8L569,300.2z"/>
<polygon id="C027" class="st0" points="568.8,300.1 570.7,287.3 563,286.1 561,299.1 "/>
<polygon id="C028" class="st0" points="560.8,299 562.8,286.1 557.9,285.4 555,285.2 553,298.2 555.1,298.2 "/>
<path id="C029" class="st0" d="M552.8,298.2l2-13.1l-6.5,0.3c0,0-5,0.3-4.8,5.4c0,0,0.1,1.1,1,3.2s1.6,5.1,1.6,5.1L552.8,298.2z"/>
<path id="C031B" class="st0" d="M529.1,292.5l6,12.8l9-4.4l-1.6-5.5c0,0-2.4-5.3-8.1-4.7c0,0-1.2,0.1-2.7,0.8
	C530.3,291.9,529.1,292.5,529.1,292.5z"/>
<polygon id="C031A" class="st0" points="520.2,296.7 526.5,309.5 535,305.3 528.8,292.7 "/>
<polygon id="C032" class="st0" points="511.4,301.1 517.5,313.8 526.3,309.5 520.2,296.7 "/>
<path id="C033" class="st0" d="M506.1,319.4l11.2-5.5l-6.2-12.7l-3.6,1.7c0,0-3.8,2.3-3.2,6.3C504.4,309.2,506.3,316.6,506.1,319.4z
	"/>
<path id="C025" class="st0" d="M480.4,373.8l3.2,0.4c0,0,1.1,0.1,1.9-0.8c0.8-0.8,1.7-0.8,1.7-0.8s0.9-0.2,1.1-0.6
	c0.2-0.5,1.2-2.3,1.2-2.3l-8.1-1.4L480.4,373.8z"/>
<path id="R025B" class="st0" d="M494,359.3l-24.7-4.4l-2.9,16.9c0,0,4.3,0,6.3,0.2l7.7,0.8l0.8-4.7l8.3,1.4
	C489.5,369.5,493.3,361.4,494,359.3z"/>
<path id="R025" class="st0" d="M469.3,354.8l4.7-26.2c0,0,11.7-0.5,21.2-5.2l8.3,0.8c0,0-2.2,17.7-9.2,34.9L469.3,354.8z"/>
<path id="R119" class="st0" d="M473.2,331.4l-7.4,41.6c0,0-12.8,0.3-20,3.5c0,0-1.7,0.3-2.3-1.2c-0.6-1.4-2.9-8.9-2.7-10.8
	c0.2-1.9-0.2-10-0.2-10s-0.2-2.1-0.3-2.9c-0.2-0.8-0.2-1.7-0.2-1.7s8.9-4.1,12-6.3C455.4,341.5,468.7,332.8,473.2,331.4z"/>
<path id="C245" class="st0" d="M436.9,376.8l4.2-1.8l0.5,1.2c0,0,0.5,1.2-0.7,1.7l-2.9,1.4L436.9,376.8z"/>
<path id="C246" class="st0" d="M398.8,394.1l2.3,5.7l-2.6,1c0,0-1.7,0.5-2.2-0.9c0,0-0.4-4.7-0.2-4.8
	C396.2,395,398.8,394.1,398.8,394.1z"/>
<path id="R120" class="st0" d="M437,351.7c0,0,0,9.5,4,23l-4.5,2l1.3,2.7l-1.8,0.9v0.3c0,0-6.8,3.8-12.5,8.1
	c-5.6,4.3-19.8,10.7-20.5,10.8l-0.3-0.5l-1.6,0.7l-2.2-6l-3.4,1.2c0,0,0.1-3.3,0.5-5c0.4-1.7,2-7.7,0.8-16.5l21.3-10.3l-1-2
	L437,351.7z"/>
<path id="C040" class="st0" d="M483.3,313.8l3.4,12.5c0,0,6-2,8.5-3.2l8.5,0.8c0,0,0.3-7.8-0.8-10.5c0,0,0.1-3-3.5-4.4
	c-3.5-1.4-6.5,1.1-6.5,1.1l-2,1C490.8,311,484.7,313.8,483.3,313.8z"/>
<path id="C042" class="st0" d="M483,313.9l3.3,12.4c0,0-6.9,2-12.3,2l2.1-12.3L483,313.9z"/>
<path id="C238" class="st0" d="M475.1,316.3l-2.6,15.1c0,0-3.9,2-5.3,2.6l-6.2-11.4C461,322.7,470.3,317.8,475.1,316.3z"/>
<path id="C237" class="st0" d="M454.4,326.4l7.1,11.1c0,0,4.6-2.9,5.6-3.3l-6.2-11.5C460.9,322.7,455.7,325.5,454.4,326.4z"/>
<polygon id="C236" class="st0" points="448.9,330.2 455.9,341.1 461.2,337.6 454.2,326.6 "/>
<path id="C235" class="st0" d="M455.7,341.2l-7.1-10.9l-4.4,2.7c0,0-1.1,0.6-1.8,2.9c-0.7,2.3-2.1,8.3-2,13.7l6.8-3.4l5-2.9
	L455.7,341.2z"/>
<path id="C234" class="st0" d="M424.1,343.2l12.7-6.2c0,0,1.7-0.5,1.6,1.4c-0.1,1.8-1.2,2.4-1.3,13.1h-0.3l-7.1,3.5L424.1,343.2z"/>
<polygon id="C233" class="st0" points="429.5,354.9 423.9,343.3 418.2,346.1 423.8,357.8 "/>
<polygon id="C232" class="st0" points="423,358.2 417.1,346.5 411.4,349.3 417,361.1 "/>
<polygon id="C231" class="st0" points="411.1,349.5 417.8,363.2 412.1,365.9 405.4,352.4 "/>
<path id="C230" class="st0" d="M405.2,352.4l6.7,13.6l-14.8,7.1c0,0-1.1-6.1-2.3-8.3c-1.1-2.3-0.5-7.7,3.5-9.1L405.2,352.4z"/>
<path id="C227" class="st0" d="M376,364.2l2.9,14.9c0,0,11.3-2.6,14.7-4.6c0,0-0.6-6.5-3.5-9.2c-2.9-2.8-5.9-2.9-7.3-2.7
	C381.5,362.7,376,364.2,376,364.2z"/>
<path id="C226" class="st0" d="M374.8,364.2l2.9,14.9c0,0-7.7,1.4-9.2,1.4l-1.1-15.2L374.8,364.2z"/>
<path id="C225" class="st0" d="M367.1,365.4l1.3,15c0,0-7.5,0.3-9.2,0.2l0.5-15L367.1,365.4z"/>
<path id="C224" class="st0" d="M352.1,365l-2,14.8c0,0,6.4,0.9,8.7,0.7l0.6-14.9L352.1,365z"/>
<polygon id="C223" class="st0" points="350.8,364.8 349,379.6 341.6,378.7 343.5,363.7 "/>
<polygon id="C222" class="st0" points="336,363 343.2,363.9 341.3,378.7 334.1,377.8 "/>
<polygon id="C221" class="st0" points="335.7,362.9 333.8,377.8 326.7,376.9 328.6,361.9 "/>
<polygon id="C220" class="st0" points="328.3,361.9 326.5,376.8 319.3,375.9 321.2,360.9 "/>
<path id="C219" class="st0" d="M319,375.8l2-14.9l-11.3-1.7c0,0-1.2-0.2-1.4,1.3c-0.2,1.4-1.1,5,0,8.9c1.1,3.8,1,5.1,1,5.1
	L319,375.8z"/>
<path id="C217" class="st0" d="M292.9,354.2c0,0,7.4,3.1,10,3.7c2.6,0.6,1.7,2.1,1.7,2.1s-1.1,5-0.3,8.6c0.8,3.6,1.1,5.6,1.1,5.6
	s-10.3-2.3-14.7-4.4l-4-1.7L292.9,354.2z"/>
<path id="C216" class="st0" d="M287.4,351.3l5.5,2.8c0,0-5.8,12.6-6.3,13.8c0,0-5.8-2.6-6.6-3.3L287.4,351.3z"/>
<path id="C215" class="st0" d="M287.2,351.1l-7.4,13.3c0,0-6.1-3.7-6.3-4.1l8.8-12.5L287.2,351.1z"/>
<path id="C214" class="st0" d="M277.2,344.1c0,0,3.6,3.1,4.8,3.7l-8.7,12.4c0,0-5-3.4-6-4.6L277.2,344.1z"/>
<path id="C213" class="st0" d="M267.2,355.5L277,344l-9.1-7.8c0,0-0.6-1.1-2.6-0.6s-3.2,0.4-3.2,0.4s-1.6,0.2-2,1.7l-3.7,8.7
	L267.2,355.5z"/>
<path id="C186" class="st0" d="M329.4,300.2l3.5,7.2L344,302c0,0-2.6-1.9-4.1-4.4l-0.8-1.1c0,0-0.4-0.8-1.4-0.5L329.4,300.2z"/>
<path id="R110" class="st0" d="M332.9,307.6l11.3-5.5c0,0,1.5,1.5,4.8,3.2c3.3,1.7,8.6,2.9,12.6,10.1c0,0,3,4,3.4,11.1
	c0,0,0.6,5.4,2.1,8.7c0,0-4.7,0.9-11.1,0l-26.2-3.4L332.9,307.6z"/>
<polygon id="C189" class="st0" points="329.7,332.3 344.2,334.1 341.2,357.7 326.7,355.8 "/>
<path id="C190" class="st0" d="M344.6,334.1l-3,23.6l12.2,1.6c0,0,7.4,1.2,16.2,0c0,0,8-1.1,11.4-2.5c0,0,2.9-1.5,0.2-3.8
	c0,0-8.3-6.6-9.9-9.5c-1.7-2.9-4.1-6.1-4.4-7.8c0,0-4.7,0.6-10.1,0.1L344.6,334.1z"/>
<path id="C183" class="st0" d="M348.2,291l3.8,7.1l-4.5,2.3c0,0-3.9-2.7-5-5.3c0,0-0.5-0.9,0.5-1.5C343.8,292.9,348.2,291,348.2,291
	z"/>
<polygon id="C182" class="st0" points="348.3,290.9 352.1,298 355.3,296.5 351.7,289.2 "/>
<polygon id="C181" class="st0" points="351.8,289.2 355.3,296.4 358.8,294.9 355.1,287.6 "/>
<polygon id="C180" class="st0" points="355.3,287.6 358.6,285.9 362.2,293.2 358.9,294.9 "/>
<polygon id="C179" class="st0" points="358.8,285.8 362,284.3 365.6,291.5 362.4,293.1 "/>
<polygon id="C178" class="st0" points="362.2,284.3 365.5,282.8 369,290 365.7,291.6 "/>
<polygon id="C177" class="st0" points="365.6,282.7 369.6,280.7 373.1,287.9 369.1,290 "/>
<path id="R113A" class="st0" d="M376,286.9l15.6-7.5l15.3,31.6l-6.7,3.3l1.9,3.9c0,0,0.8,1.6,2.8,1.3l-5.9,2.8c0,0,1.4-1.1,1.1-2.6
	l-1.9-4.3l-6.8,3.2L376,286.9z"/>
<polygon id="C176" class="st0" points="370.5,280.4 375.3,277.9 378.9,285.2 374,287.6 "/>
<polygon id="C175" class="st0" points="375.5,277.9 378.8,276.2 382.4,283.5 379,285.1 "/>
<polygon id="C174" class="st0" points="378.9,276.1 382.2,274.6 385.8,281.8 382.5,283.4 "/>
<polygon id="C173" class="st0" points="382.4,274.5 385.8,272.9 389.2,280.1 386,281.8 "/>
<polygon id="C172" class="st0" points="385.8,272.8 389.2,271.2 392.8,278.5 389.4,280.1 "/>
<polygon id="C171" class="st0" points="389.4,271.2 392.7,269.5 396.2,276.8 392.8,278.4 "/>
<polygon id="C170" class="st0" points="392.8,269.5 396.1,267.8 399.7,275.1 396.4,276.8 "/>
<polygon id="C169" class="st0" points="396.2,267.7 401.2,265.4 404.7,272.6 399.9,275.1 "/>
<polygon id="C168" class="st0" points="402.1,265 405.7,272.4 409.3,270.7 405.7,263.3 "/>
<polygon id="C167" class="st0" points="405.9,263.1 409.4,270.5 412.8,268.9 409.3,261.5 "/>
<polygon id="C165" class="st0" points="409.4,261.5 412.7,259.9 416.3,267.1 412.9,268.8 "/>
<polygon id="C164-B" class="st0" points="412.8,259.8 416.1,258.1 419.7,265.5 416.4,267.1 "/>
<polygon id="C164-A" class="st0" points="416.3,258 419.6,256.4 423.2,263.8 419.8,265.5 "/>
<polygon id="C163" class="st0" points="419.7,256.4 423,254.8 426.6,262.2 423.4,263.7 "/>
<polygon id="C162" class="st0" points="423.2,254.7 426.9,253 430.4,260.3 426.8,262.2 "/>
<path id="C106" class="st0" d="M427.2,252.8l3.5,7.4l8.5-4.1l-2.8-5.8c0,0-0.5-1.4-2.3-0.9L427.2,252.8z"/>
<path id="R113B" class="st0" d="M407.4,271.8l-15.5,7.6l15.2,31.5l6.8-3.2l1.8,3.8c0,0,0.8,1.4-0.7,3.2l5.6-2.8c0,0-1.7,0.2-2.6-1.1
	l-2-4.1l6.8-3.3L407.4,271.8z"/>
<path id="R114" class="st0" d="M407.6,271.6l31.6-15.2l6.8,14.4c0,0,4.1,9.5,4.4,19.4L423,303.4L407.6,271.6z"/>
<path id="C301" class="st0" d="M368.9,329.6l6-2.8l2.9,5.9l-5.6,2.8c0,0-1.1,0.3-1.6-0.6L368.9,329.6z"/>
<polygon id="C302" class="st0" points="375.2,326.6 380.4,324.1 383.2,329.9 378.1,332.4 "/>
<polygon id="C303" class="st0" points="385.8,321.4 388.8,327.3 383.4,330 380.5,323.9 "/>
<polygon id="C304" class="st0" points="386,321.2 388.9,327.3 394.3,324.7 391.4,318.8 "/>
<path id="C305" class="st0" d="M391.6,318.5l2.9,6l4.2-2.2c0,0,2-1.2,1.1-2.9c-0.2-0.3-1.8-4-1.8-4L391.6,318.5z"/>
<path id="C306" class="st0" d="M407,311.1l2.9,5.9l-4.3,2.1c0,0-2.2,1-3.5-1.1l-1.7-3.8L407,311.1z"/>
<path id="C307" class="st0" d="M407.3,311.1l6.5-3.2l1.7,3.5c0,0,0.8,2.1-0.8,3.3l-4.6,2.3L407.3,311.1z"/>
<path id="C309" class="st0" d="M422.7,303.6l2.9,5.9l-4.3,2.1c0,0-1.2,0.5-2.6-0.4c0,0-0.5-0.5-0.8-1.1l-1.7-3.3L422.7,303.6z"/>
<polygon id="C310" class="st0" points="423,303.4 425.8,309.4 432.2,306.3 429.4,300.3 "/>
<polygon id="C311" class="st0" points="429.6,300.3 432.4,306.2 439,303 436.1,297.1 "/>
<polygon id="C312" class="st0" points="436.2,297 439.1,303 445,300 442.1,294.2 "/>
<path id="C313" class="st0" d="M442.4,294l2.8,6l4.1-2c0,0,1.1-0.5,1.1-2.5v-5.3L442.4,294z"/>
<path id="C196" class="st0" d="M397,325.8l9.6,19.5l-8.6,4.1c0,0-8.9,3.5-15.8-1c0,0-3.8-1.7-8.1-7.7l-1.4-2c0,0-0.8-1.1,0.7-1.8
	c1.4-0.8,0-0.1,0-0.1L397,325.8z"/>
<polygon id="C197" class="st0" points="406.7,345.1 416.4,340.6 407,321 397.2,325.7 "/>
<polygon id="C198" class="st0" points="416.7,340.4 426.5,335.7 417,316.1 407.3,320.8 "/>
<path id="C200" class="st0" d="M417.1,316l29.8-14.5c0,0,2.8-0.8,2.2,2.3l-6.8,21.5c0,0-0.8,3.2-4.1,4.6l-6.2,3.3l-5.3,2.6
	L417.1,316z"/>
<path id="C201" class="st0" d="M481.2,285.3l-4.4,24.3c0,0-13.8,4.1-24,10.9l-4.4,3.2c0,0-1.6,0.8-1.8-0.9c0,0,2.8-7.5,4-11.9
	c1.2-4.4,2.9-11.6,2.9-11.6v-0.7l27.7-13.5V285.3z"/>
<path id="C107" class="st0" d="M491.4,280.1l9.6,19.6l-10.8,5.2c0,0-6.2,2.9-8.3,3.3c0,0-4,1.1-4.6,1.1l4.1-24.4L491.4,280.1z"/>
<polygon id="C039" class="st0" points="500.5,275.6 510.1,295.3 501.1,299.6 491.6,280 "/>
<polygon id="C025B" class="st0" points="500.8,275.5 513.5,269.4 523,289 510.3,295.2 "/>
<path id="C025A" class="st0" d="M513.7,269.3l18.1-8.8c0,0,1-0.5,1.6,0.6s5,9,1.5,19.9c0,0-0.8,2.4-2.9,3.7l-8.8,4.1L513.7,269.3z"
	/>
<polygon id="C005" class="st0" points="612.8,288 616.9,260.3 602.8,258.1 598.6,285.8 "/>
<path id="C006" class="st0" d="M602.5,258.1l-26.2-3.9c0,0-1.1-0.2-1.4,1.1l-4.4,25c0,0-0.2,1.1,0.6,1.4l6.5,1c0,0,1,0.2,1.9-0.9
	c0.8-1.1,5.5-2.9,8.3,1.1c0,0,0.5,1.5,1.7,1.5l8.6,1.3L602.5,258.1z"/>
<path id="C007" class="st0" d="M572.4,254.3l-4.5,25.7c0,0-0.2,1.3-1.7,0.9c-1.5-0.3-13-2.3-18.6-1l-4,0.6c0,0-3.5,0.4-3.8-3.4
	c0,0,0.9-6.3-0.3-10.6c0,0-1.5-6.2-2.6-7.2c0,0-0.6-1,0.3-1.7c1-0.7,11.9-7.2,11.9-7.2s1.1-0.5,2.6-0.3l19.7,2.9
	C571.4,253.1,572.5,253.2,572.4,254.3z"/>
<polygon id="C004" class="st0" points="617.3,257.2 619.4,242.3 605.4,240.2 603.3,255.2 "/>
<path id="C003" class="st0" d="M602.8,255.2l2.4-15.1l-26.9-4l-2.3,13.8c0,0-0.4,1,0.8,1.4C577.9,251.6,602.8,255.2,602.8,255.2z"/>
<polygon id="R006" class="st0" points="619.3,241.9 623.8,212 583.7,206.2 578.5,235.9 "/>
<polygon id="R005" class="st0" points="623.8,211.8 630.3,167.1 628.4,168 627.2,167.7 627.1,168.7 589.5,186.7 589,190.2 
	586.4,189.8 583.7,206 "/>
<polygon id="S012" class="st0" points="632.4,153.8 630.4,166.9 628.5,167.8 627.1,167.5 627,168.5 624.5,169.7 619.7,159.9 "/>
<polygon id="S011" class="st0" points="619.6,160 624.3,169.8 610.2,176.7 605.4,166.8 "/>
<polygon id="S010B" class="st0" points="605.3,166.9 610.1,176.8 600.6,181.4 595.8,171.5 "/>
<path id="S010A" class="st0" d="M595.6,171.5l4.8,9.8l-10.9,5.3l-2.4-0.4l1.8-10.2c0,0,0.1-1.4,1.4-1.9
	C591.6,173.6,595.6,171.5,595.6,171.5z"/>
<path id="C002" class="st0" d="M569.7,240.7l5,0.7l-1.7,8.9c0,0-0.3,0.8-1.2,0.8c-0.9-0.1-3.9-0.5-3.9-0.5L569.7,240.7z"/>
<polygon id="C043" class="st0" points="588.8,190 589.3,186.9 587.1,186.5 586.6,189.5 586.9,189.8 "/>
<path id="S009" class="st0" d="M582.2,197.9l3.3-19.5c0,0,0.2-1.9-1.7-1.2L538,199.5c0,0-5.5,2.1-6.3,8.6c-0.8,6.5-1.2,7.1-1.2,7.1
	l38.9-18.9L582.2,197.9z"/>
<polygon id="R010" class="st0" points="574.6,241.1 576.2,231.9 556.5,228.3 553.1,248.3 567.9,250.4 569.6,240.4 "/>
<path id="R012" class="st0" d="M552.8,248.3l0.5-2.8l-7.8-1.4l-12.9,7.8l2.4,3.8c0,0,0.6,0.8,1.6,0.1c1-0.6,11.6-7,11.6-7
	s1.4-1.1,3.2-0.8C552.8,248.3,552.8,248.3,552.8,248.3z"/>
<path id="R011" class="st0" d="M553.3,245.4l2-11.1l-26.7-4.7c0,0-3.5,12,3.9,22.1l12.9-7.7L553.3,245.4z"/>
<polygon id="R008" class="st0" points="576.3,231.7 582.2,198.1 569.6,196.4 530.5,215.3 528.6,229.4 555.3,234 556.4,228.1 "/>
<polygon id="C047" class="st0" points="512.7,267.4 510.2,262.5 502.5,266.3 504.8,271.3 "/>
<polygon id="C046" class="st0" points="504.7,271.3 502.3,266.3 496.1,269.4 498.5,274.3 "/>
<polygon id="C044" class="st0" points="498.4,274.3 496,269.5 489.2,272.8 491.6,277.6 "/>
<polygon id="C317A" class="st0" points="491.4,277.7 489.1,272.8 483.3,275.6 482.1,282.2 "/>
<path id="R009" class="st0" d="M487.9,248.3l2.4-13.9l36.1-17.1l-1.7,10.9l-15.2,12.3c0,0-5.2,3.9-8.8,4.7c0,0-2.5,0.9-6.4,1
	c-3.9,0.1-4.8,1.1-4.8,1.1L487.9,248.3z"/>
<polygon id="S015" class="st0" points="506.9,214.6 511.5,224.2 506.8,226.5 502.1,216.8 "/>
<polygon id="S014" class="st0" points="502,216.9 506.6,226.5 501.8,228.9 497.2,219.2 "/>
<polygon id="S013" class="st0" points="496.9,219.2 501.6,228.9 490.4,234.3 492.7,221.3 "/>
<polygon id="C103" class="st0" points="490.8,231.2 492.5,221.3 484.8,225.1 488.4,232.4 "/>
<polygon id="C148" class="st0" points="483.9,225.6 487.5,232.8 484.2,234.4 480.7,227.1 "/>
<polygon id="C149" class="st0" points="480.5,227.1 484,234.6 480.8,236.2 477.2,228.8 "/>
<polygon id="C104" class="st0" points="476.9,228.9 480.5,236.3 470.3,241.2 466.7,233.8 "/>
<polygon id="R117A" class="st0" points="490.5,231.5 487,253.1 484,252.5 449.1,269.5 448.5,268.1 444.5,260.1 451.5,256.5 
	449.1,251.6 "/>
<path id="C317B" class="st0" d="M482,282.2l1.1-6.5l-5.9,2.9l1.4,3.2c0,0,0.6,1.3,2,1.1L482,282.2z"/>
<path id="C316" class="st0" d="M467.4,283.4l2.3,4.9l5.9-2.9c0,0,1.5-0.5,1-2.2c0-0.1-1.7-3.5-1.7-3.5L467.4,283.4z"/>
<polygon id="C315" class="st0" points="459.8,286.9 467.2,283.4 469.6,288.2 462.1,291.9 "/>
<path id="C314" class="st0" d="M459.5,287.1l2.4,4.9l-5.9,2.8c0,0-2,0.5-2.3-1.4v-3.6L459.5,287.1z"/>
<path id="R117B" class="st0" d="M486.9,253.2l-2.8-0.5l-34.6,16.8c0,0,2.8,6.8,3.8,14.3c0,0,0.6,4.9,0.6,5.8l21-10.1l1.8,3.5
	c0,0,0.5,1.3-0.4,2l4.4-2.1c0,0-1.1,0.5-1.9-0.5l-2-4l6.3-3L486.9,253.2z"/>
<path id="C105" class="st0" d="M442.1,254.7l10.5-5.2l-3.5-7.1l-9.2,4.3c0,0-1.3,1-0.7,2.1C440,249.9,442.1,254.7,442.1,254.7z"/>
<polygon id="C153" class="st0" points="463.3,235.6 466.6,233.9 470.1,241.2 466.9,242.8 "/>
<polygon id="C154" class="st0" points="463,235.7 466.6,242.9 463.4,244.4 459.7,237.2 "/>
<polygon id="C155" class="st0" points="459.6,237.3 463.2,244.5 459.9,246.2 456.3,238.9 "/>
<polygon id="C156" class="st0" points="456.1,238.9 459.7,246.2 456.5,247.7 452.9,240.4 "/>
<polygon id="C157" class="st0" points="452.7,240.7 456.2,247.9 452.9,249.5 449.4,242.2 "/>
<path id="R004" class="st0" d="M633.6,145.3l8.2-56.7l-0.3-0.8l-3.2,1.2l-0.2-0.8l-37.4,14.1l-3.8,21.9l21.6-6.9l-4.8,29l12.3-6
	l2.8,0.5c0,0-1.2,1.7-0.2,3.9c0.9,2.2-0.5,2.9-0.5,2.9l-0.1,0.5L633.6,145.3z"/>
<path id="S111" class="st0" d="M607.9,149.2l3.2,6.5l16.5-8c0,0,1.1-1,0.9-1.9c-0.2-0.9-0.9-2.6-0.6-3.5c0,0,0.2-1.2,0.5-1.6
	l-2.5-0.5L607.9,149.2z"/>
<polygon id="R003" class="st0" points="618.2,117.5 613.3,146.3 586.3,159.3 585.2,164.1 587,167.1 587.4,167.1 588.6,166.9 
	588.7,167.1 582.2,170.2 582.5,164.1 583.2,160.7 559.8,171.4 566.4,134.1 "/>
<path id="R002" class="st0" d="M598.5,112.2l-29.1,10.4l-36.3,17.9l-0.6,4.2l18.1-5.8l-7.1,40.4l1.4-0.7l2.5,5.2
	c0,0,0.8,1.7-0.6,3.1l5.7-2.8c0,0-2.3,0.3-3.1-1.5l-2.4-5l12.5-6l6.6-37.7l30.3-9.6L598.5,112.2z"/>
<path id="R001" class="st0" d="M532.5,145l17.9-5.8l-7.1,40.2l-12.3,6l2.8,5.6c0,0,0.8,1.1,2.4,1c0,0,0.6-0.1,0.8-0.2l0.1,0.3
	l-7.1,3.5l-0.2-0.3c0,0,2.3-1,1.5-3.6l-2.5-5.2c0,0-1.3-1.8-0.7-5.9l2.7-17.7l-0.1-6.2L532.5,145z"/>
<polygon id="S110" class="st0" points="607.8,149.3 610.9,156 596.4,163.1 593.1,156.4 "/>
<polygon id="S109" class="st0" points="592.8,156.6 596.1,163.1 588.7,166.8 587.9,166.9 587.1,167.1 585.5,164.1 586.5,159.5 "/>
<polygon id="S108" class="st0" points="573.9,165.3 582.8,161.1 582.2,163.8 582,169.9 577.2,172.3 "/>
<polygon id="S008" class="st0" points="568.8,167.6 573.7,165.4 577.1,172.3 572.4,174.6 "/>
<polygon id="S007" class="st0" points="563.9,169.9 568.6,167.7 572.2,174.7 567.4,177.2 "/>
<polygon id="S006" class="st0" points="558.9,172.2 563.8,170 567.2,177.2 562.5,179.5 "/>
<path id="S004" class="st0" d="M547.2,177.8l6.5-3.2l3.5,7.3l-4.1,2c0,0-2.6,0.8-3.6-1.4L547.2,177.8z"/>
<path id="S003" class="st0" d="M535.5,183.5l9.3-4.6l2.5,5c0,0,0.9,1.9-1.3,3.4l-7.1,3.4L535.5,183.5z"/>
<path id="S002" class="st0" d="M531.3,185.6l4-2l3.5,7.1l-1.6,0.8c0,0-2.3,0.7-3.2-0.8C533,189.4,531.3,185.6,531.3,185.6z"/>
<path id="C001" class="st0" d="M495.1,206.7l-0.8,5.6l-5.6,2.8c0,0-3.9,1-4-2.7l1.1-7.2L495.1,206.7z"/>
<path id="R013" class="st0" d="M504.4,150.9l-31.5,12c0,0-2.2,0.9-1,3.4c0,0,0.1,1,0,1.6s-0.2,6.7,2.6,10.8l1.3-0.6
	c0,0,0.9,2,4.7,5.4c0,0,2.8,3.1,3.5,6l-0.5,0.2c0,0,1.4,2,0.9,8.9l-2.7,19.5l5.8-2.9c0,0-3.2,0.5-3.2-3l1.1-7.4l9.5,1.7l9-51.7
	l-0.3-0.1L504.4,150.9z"/>
<path id="R109C" class="st0" d="M450.2,171.6l7.4,15.3l16.8-8.2c0,0-2.8-3.8-2.7-10.7l0.1-1.1c0,0,0-0.8-0.2-1.3
	c-0.2-0.5-0.2-2,0.5-2.3S450.2,171.6,450.2,171.6z"/>
<path id="R109B" class="st0" d="M457.8,187.1l5.9,12.3l20.4-9.9c0,0-1.7-4.7-5-7.1c0,0-2.3-2.3-3.2-3.9L457.8,187.1z"/>
<path id="R109A" class="st0" d="M463.8,199.6l5.9,12.3l12.8-6.2l1.1-8.3c0,0,0.5-3.2-0.8-6.9L463.8,199.6z"/>
<path id="C300" class="st0" d="M468.2,212.9l14.2-6.8l-1.5,11c0,0-0.2,1.9-1.6,2.4l-6.5,3.2L468.2,212.9z"/>
<polygon id="C146" class="st0" points="463.3,215.3 468.1,212.9 472.7,222.6 468,224.9 "/>
<polygon id="C145" class="st0" points="458.4,217.6 463,215.3 467.8,225 463,227.2 "/>
<polygon id="C144" class="st0" points="453.4,220 458.1,217.7 462.8,227.4 458.1,229.7 "/>
<polygon id="C143" class="st0" points="448.5,222.4 453.1,220.1 457.9,229.8 453.1,232.1 "/>
<polygon id="C142" class="st0" points="443.5,225 448.3,222.6 453,232.1 448.1,234.5 "/>
<polygon id="C141" class="st0" points="438.5,227.4 443.3,225 448,234.5 443.1,236.8 "/>
<polygon id="C102" class="st0" points="433.6,229.7 438.4,227.4 443,237.1 438.3,239.5 "/>
<polygon id="R106" class="st0" points="367.5,202.9 450,171.6 469.5,212 433.3,229.5 438.2,239.5 429.6,243.4 424.7,233.7 
	390.4,250.1 "/>
<polygon id="C101" class="st0" points="419.8,236.2 424.7,233.9 429.4,243.7 424.6,246.1 "/>
<polygon id="C138" class="st0" points="415.3,238.4 419.7,236.3 424.5,246.1 420,248.2 "/>
<polygon id="C137" class="st0" points="410.6,240.7 415.1,238.5 419.7,248.3 415.4,250.4 "/>
<polygon id="C136" class="st0" points="406,242.9 410.5,240.7 415.2,250.5 410.6,252.7 "/>
<polygon id="C135" class="st0" points="401.3,245.1 405.8,242.9 410.6,252.8 406.1,254.9 "/>
<polygon id="C134" class="st0" points="394.5,248.4 401.3,245.2 406,255 399.3,258.2 "/>
<polygon id="C133" class="st0" points="388.6,251.3 394.3,248.5 399.1,258.2 393.3,261 "/>
<path id="C132" class="st0" d="M381.6,254.7l6.8-3.4l4.7,9.8l-4,1.9c0,0-2.6,1-4-0.8L381.6,254.7z"/>
<path id="R104" class="st0" d="M346.8,210.8l20.4-7.7l22.8,47.1l-8.9,4.4l3.8,7.8c0,0,1.1,1.3,2.7,1.1l-6.2,3.1c0,0,2-1.3,1.4-3.3
	l-3.8-7.8l-8.7,4.2L346.8,210.8z"/>
<path id="C129" class="st0" d="M372.3,259.1l6.8-3.3l3.7,7.5c0,0,0.6,2.3-1.6,3.4l-4.2,2L372.3,259.1z"/>
<polygon id="C128" class="st0" points="372,259.2 376.8,268.9 371.6,271.3 367,261.6 "/>
<polygon id="C127" class="st0" points="366.8,261.6 371.6,271.4 366.6,273.9 361.8,264 "/>
<polygon id="C126" class="st0" points="356.5,266.5 361.6,264 366.4,273.9 361.3,276.3 "/>
<polygon id="C125" class="st0" points="351.4,269.1 356.5,266.7 361.2,276.4 356.2,278.8 "/>
<polygon id="C124" class="st0" points="346.2,271.6 351.3,269.2 355.9,278.8 350.9,281.3 "/>
<polygon id="C123" class="st0" points="341,274 346,271.6 350.7,281.3 345.6,283.8 "/>
<path id="C122" class="st0" d="M340.8,274.1l-6.9,3.4l3.5,7.3c0,0,0.9,2,3.4,1.3l4.7-2.3L340.8,274.1z"/>
<path id="C120" class="st0" d="M323.2,282.5l7.1-3.4l3.5,7.3c0,0,1.1,2.4-0.9,3.5l-4.8,2.3L323.2,282.5z"/>
<polygon id="C119" class="st0" points="319.2,284.6 323.2,282.6 328,292.4 323.9,294.3 "/>
<path id="C118" class="st0" d="M312.1,287.9l6.8-3.4l4.8,9.8l-4.6,2.3c0,0-2.3,0.8-3.6-1.3L312.1,287.9z"/>
<path id="R102" class="st0" d="M290.1,232.1l-27.4,10.4l31.8,53.9l15.3-7.4l3.8,7.6c0,0,0.8,2-1,3.3l6.2-3c0,0-2,0.5-3.2-1.3
	l-3.6-7.7l8.6-4.2L290.1,232.1z"/>
<path id="C117" class="st0" d="M302.9,292.5l4.7,9.7l4.5-2.3c0,0,2-1,1.2-3.5l-3.6-7.4L302.9,292.5z"/>
<polygon id="C116" class="st0" points="296.9,295.5 302.8,292.6 307.5,302.2 301.6,305.1 "/>
<polygon id="C115" class="st0" points="290.8,298.3 296.7,295.5 301.4,305.2 295.7,308.1 "/>
<path id="C114" class="st0" d="M283.8,301.8l6.8-3.3l4.8,9.7l-4.7,2.2c0,0-2.6,0.8-3.3-1.1C287.3,309.1,283.8,301.8,283.8,301.8z"/>
<path id="C113" class="st0" d="M273.8,306.8l7.1-3.5l3.5,7.1c0,0,1.1,2.3-1.1,3.7l-4.7,2.3L273.8,306.8z"/>
<polygon id="C112" class="st0" points="268.1,309.7 273.7,306.9 278.3,316.5 272.7,319.2 "/>
<path id="C111" class="st0" d="M268,309.7l4.6,9.5l-4.1,2c0,0-1.4,0.5-2.3-0.1c-0.8-0.5-2.4-0.9-3.5-0.8c-1.1,0.1-2-1.3-2-1.3
	l-2.3-3.8L268,309.7z"/>
<path id="R101" class="st0" d="M284.4,313.4l5.8-2.9c0,0-2,0.4-2.8-1.1l-3.9-8.1l10.8-5.1l-31.7-53.9c0,0-5.6,2-6.7,7.2
	c0,0-1,6.5-6.8,10.3c-5.9,3.9-7,5.4-7,5.4l26,44.1l13.4-6.8l3.7,7.6C285.1,310.2,286,311.6,284.4,313.4z"/>
<polygon id="C110" class="st0" points="246.3,294 255.5,288.6 267.9,309.5 258.4,315.1 "/>
<path id="C109" class="st0" d="M255.3,288.3l-13.5-22.8c0,0-6.5,6-6.9,9.3l11.2,18.9L255.3,288.3z"/>
<path id="I102" class="st0" d="M246.5,305.9l9.4,16.1c0,0,0.8,1.1,0,2.6c-0.8,1.5-0.8,2.9-0.8,2.9l-17.2,8.3L227,317.4L246.5,305.9z
	"/>
<path id="I104" class="st0" d="M227,317.2l19.5-11.5l-12.1-20.1c0,0-0.5-0.8-1.7-0.5c-1.3,0.3-1.4,1.5-1.4,1.5l-5.8,27.5
	c0,0-0.2,0.3,0.3,1.1C226.2,316,227,317.2,227,317.2z"/>
<polygon id="I103" class="st0" points="225.4,315 237.8,335.9 219.1,344.9 "/>
<path id="S001" class="st0" d="M528.7,186.8l2.4,5c0,0,0.8,2.3-1.3,3.3v0.5l-2.3,1.1l-0.8-1.2c0,0-0.6-0.6-0.4-2.3
	c0.3-1.6,0.8-5.6,0.8-5.6L528.7,186.8z"/>
<polygon id="I074" class="st0" points="600.8,101.9 622.2,94 618.8,85 602.8,91 "/>
<polygon id="I081" class="st0" points="619.6,86.3 629,82.7 627.6,92.1 622.6,94 "/>
<polygon id="I083" class="st0" points="629.2,82.5 637.5,79.4 638.1,79.7 640.6,87.9 638.3,88.8 638,88.2 627.8,92 "/>
<path id="R127" class="st0" d="M419.9,415.7l-6-18.9l-5.7,2.9c0,0-2.7,1.1-4.4,1.7l2,5l-6.2,2.3c1.6,3.3,3.5,6.4,5.9,9.2l1.4,2
	C406.5,419.8,419.4,415.3,419.9,415.7z"/>
<path id="C247" class="st0" d="M398.8,408.9l6.8-2.5l-2-4.9l-4.9,1.9c-0.8,0.2-1.4,1-1.4,1.9L398.8,408.9z"/>
<path id="R142-B" class="st0" d="M254.8,401.8c0,0-0.5,6.5,0.2,8.2l-1.1,0.3c1.7,6.4,6.5,11.5,12.7,13.7c11,4,20.1,6.3,33.3,5.7
	c4.3-0.4,8.6-1.1,12.7-2.2l-1-5.3l4.2-1.1c-1.1-3.4-2.9-6.5-5.2-9.2c-4-4.5-6-12.9-6-12.9H256L254.8,401.8z"/>
<path id="R142-A" class="st0" d="M257.6,388.8h46.8c0,0-1.1,6.3,0,9.8h-48.6l0.8-4C256.6,394.7,257.5,389.9,257.6,388.8z"/>
<path id="R141" class="st0" d="M257.9,347.3l9.7,8.2c0,0,13.2,13.5,38.5,18.7c0.3,2.9,0.2,5.8-0.2,8.7c-0.6,1.8-1.1,3.7-1.5,5.5
	l-46.8-0.2c0,0,1-10.7,0.3-14.9s-0.5-6.8-1-8.7C256.6,363.4,256.1,352.5,257.9,347.3z"/>
<path id="M210" class="st0" d="M319.3,330.2c0,0,0.3,0.1,0.8,0.1l5.9,0.8l3.7,0.5l1-7.7l-10.4-1.4L319.3,330.2z"/>
<path id="C404" class="st0" d="M315.5,312.7l-2.4-4.8c-1.2,0.6-2.5,1.2-3.8,1.8l2.4,4.9L315.5,312.7z"/>
<polygon id="M204" class="st0" points="321.9,338.9 320.7,347.1 327.5,348 328.4,340.7 328.6,339.8 "/>
<path id="C408" class="st0" d="M320.7,347.1l-3.6-0.5c-1.7-0.1-1.9,1.7-1.9,1.7l-0.5,3.9c0,0,0,0,0,0.1c0.2,1,1,1.7,1.6,2l0.5,0.1
	l9.7,1.3l1-7.7L320.7,347.1z"/>
<path id="C405" class="st0" d="M309.4,315.8L309.4,315.8L309.4,315.8l2.4-1.2l-2.4-4.9c-1.3,0.6-2.5,1.2-3.8,1.8l2.4,4.9
	L309.4,315.8z"/>
<path id="C188" class="st0" d="M303.6,326c0-0.2,0.1-0.5,0.1-0.6c0.2-1.8,0.4-3.8,0.2-4.9c-0.3-1.6-1-5.6-1.7-7.4
	c-14.2,6.8-28.9,13.8-30.1,14.5c-2.4,1.4-1,3.8-1,3.8l6.7,5.9c8.6,7.8,16.4,11.2,22.5,13.5l2.9-22.2
	C303.2,328.6,303.4,327.5,303.6,326z"/>
<path id="C406" class="st0" d="M308,316.4L308,316.4L308,316.4L308,316.4l-2.4-4.9c-1.1,0.5-2.3,1.1-3.4,1.6c0.6,1,1.5,5.2,1.5,5.2
	L308,316.4z"/>
<path id="M207" class="st0" d="M314.4,337.9c0.3-2.1,0.5-4.2,0.6-4.9c0.1-1.4-1.3-1.7-1.6-1.8l-0.8-0.1l-3.2-0.5l-0.8,6.5
	L314.4,337.9z"/>
<path id="M202" class="st0" d="M307.8,343.7l4.4,0.5c0,0,0.6-0.1,1.1-0.5c0.3-0.4,0.5-0.8,0.5-0.8l0,0l0.7-4.9l0,0l-5.8-0.8
	L307.8,343.7z"/>
<polygon id="M201" class="st0" points="308.7,337.2 302.3,336.3 301.1,344.5 307.6,345.4 307.8,343.7 "/>
<path id="M205" class="st0" d="M325.9,331.2v1.7l-3.2-0.4l-0.8,6.5l6.7,0.9l0.1-0.9l0.9-7.3C329.2,331.6,327.7,331.4,325.9,331.2z"
	/>
<path id="M206" class="st0" d="M318.7,332c-0.3,0-0.6,0.1-0.8,0.2c-0.8,0.4-1.1,1.4-1.1,1.4l-0.6,4.7l5.7,0.7l0.8-6.5h-0.1
	C322.3,332.4,319.9,332.1,318.7,332z"/>
<path id="M215" class="st0" d="M309.4,315.8l2.1,4.4l-5.8,2.8c0,0-1.6,0.9-2,2.3c0,0,0.6-2.1,0.5-4c-0.2-1.9-0.4-2.9-0.4-2.9
	L309.4,315.8z"/>
<polygon id="C403" class="st0" points="313.1,307.9 316.9,306 319.3,310.9 315.5,312.7 "/>
<polygon id="C402" class="st0" points="320.6,304.3 322.9,309.1 319.3,310.9 316.9,306 "/>
<polygon id="C401" class="st0" points="320.6,304.3 324.4,302.4 326.8,307.2 322.9,309.1 "/>
<polygon id="C400" class="st0" points="328.1,300.7 330.5,305.4 326.8,307.2 324.4,302.4 "/>
<path id="M212" class="st0" d="M322.6,309.3l7.9-3.9l1.1,2.3l-0.8,6.1c0,0,0-2.6-2.1-1.8l-4,1.7L322.6,309.3z"/>
<path id="M211" class="st0" d="M320.8,317.6l-0.6,4.9l10.3,1.4l1.2-9.9l-1-0.2c0,0,0.2,1.3-1.1,1.4c-1.3,0.2-1.9-0.4-1.9-0.4
	s-1-0.2-1.4,0.1C326.1,315.2,320.8,317.6,320.8,317.6z"/>
<path id="M209" class="st0" d="M314.7,320.5l-1.1,9l-7.1-0.9c0,0-1.2-0.8-1.3-1.3c-0.1-0.5,0.2-1.9,0.2-1.9s0.5-1,1.3-1.1
	C307.6,324.1,314.7,320.5,314.7,320.5z"/>
<polygon id="M213" class="st0" points="322.6,309.3 315.9,312.5 318,316.9 324.7,313.7 "/>
<polygon id="M214" class="st0" points="309.4,315.8 315.9,312.5 318.1,316.9 311.5,320.1 "/>
<path id="M208" class="st0" d="M309.6,330.7l-0.8,6.5l-6.5-0.8l1.4-9.9c0,0-0.2,2.1,1.2,3.2c0,0,0.8,0.7,2.3,0.8L309.6,330.7z"/>
<path id="C407" class="st0" d="M301.1,344.5l10.1,1.4c0,0,1.5,0.1,1.6,1.7c0.1,1.5-0.4,3.5-0.4,3.5s-0.4,2.3-2.4,2.4
	c0,0-1.4-0.2-2.2-0.4c-0.9-0.2-7.2-2-7.2-2L301.1,344.5z"/>
<path id="M203" class="st0" d="M321.9,338.9c0,0.1-1,6.5-1,6.5L317,345c0,0-1.6-0.8-1.4-1.8c0.2-1.1,0.6-5,0.6-5L321.9,338.9z"/>
<path id="R136" class="st0" d="M309.1,374.5c0,0,0.3,7.6-0.9,10.4c0,0-1.7,4.9-1.3,6.2c0,0-0.1,8.4,1,9.8c0,0,33.8-1.3,36.9-0.4
	c0,0-1.5-6,0.9-10.9c0,0,2.4-3.8,2-7.8l-0.4-2.5L309.1,374.5z"/>
<path id="R139-A" class="st0" d="M322.3,419l-3.5,0.8c0,0-2.9-7.6-5.8-9.8c0,0-4.4-5.5-5.1-8.9c0,0,15.3-0.8,29-0.8l-0.2,23.1
	c0,0-10.7,0.2-13.5,1.2L322.3,419z"/>
<path id="R139-B" class="st0" d="M345,400.6c0,0-8.1-0.5-8-0.2c0.2,0.2-0.2,23.1-0.2,23.1s8-0.4,19.8,3.4c0,0,4.6-9.2,5.9-19.6
	c0,0-8.6-2.3-14.9-2.7C347.6,404.5,345.5,402.3,345,400.6z"/>
<path id="R140" class="st0" d="M396.4,410.1c0,0-18.5,1.1-33.9-2.9c0,0,0.4,6.3-5.6,19.7c0,0,5.9,2.2,12.2,5.6l7.1,4.7
	c0,0,8.9,6.3,21.3,7c0,0,1.2,0.3,4-0.8l0.8-5.9l4.1,0.4c0,0,3.7-9.5-4.2-18.8C401.9,419.1,397.7,413.8,396.4,410.1z"/>
<path id="R138" class="st0" d="M396.4,410c0,0-21.3,0.9-35.6-3.2c-14.2-4.1-0.2,0-0.2,0l4.8-11.7c0,0,7.4,0,16.2-2
	c0,0-0.5,0.5,12.1-3.3C393.8,389.9,392.2,397.7,396.4,410z"/>
<path id="R137" class="st0" d="M393.7,374.7c0,0-5.5,2.5-14.9,4.6l-3.1-15.3l-0.9,0.2l3,15c0,0-12.1,3.5-28.1,0.7l2-15l-0.9-0.1
	l-1.8,14.9l-1.6-0.2c0,0,0.6,2.9,0.5,4.7c0,0-0.1,1.4-1.1,3.5l-1.1,2c0,0-2.4,5.3-0.8,10.6c0,0,0.6,2.2,2.6,4.1c0,0,7.7,1,13,2.4
	l4.6-11.7c0,0,8.6-0.4,16.2-2c0,0,4-0.7,12.5-3.4C393.8,389.6,395.2,381.1,393.7,374.7z"/>
<path id="S16B" class="st0" d="M519.9,219.5l6.8-3.1l1.3-8.6c0,0-0.5-3.5-3.6-2.2l-8.9,4.1L519.9,219.5z"/>
<polygon id="S016A" class="st0" points="511.8,223.4 519.9,219.5 515.4,209.6 507,213.9 "/>
<polygon id="S005A" class="st0" points="553.6,174.6 556.5,173.3 560,180.4 557.3,181.9 "/>
<polygon id="S005B" class="st0" points="558.9,172.2 556.5,173.3 560,180.4 562.3,179.3 "/>
<path id="R129A" class="st0" d="M559.2,432.4l16.6,2.9l-2.6,15.9c0,0-14.7-1.7-15.6-1.2c0,0-2.1,0.5-2.9-2.3c0,0,1.5-0.5,4.4-15
	C562,418.2,559.2,432.4,559.2,432.4z"/>
<path id="R129B" class="st0" d="M588,456.8c0,0-10.4-6-14.5-5.6l2.5-16l15.2,2.7L588,456.8z"/>
<path id="R031" class="st0" d="M544.1,300.9l-38,18.5c0,0-3.5,25.2-8.2,36.2c0,0-5.9,14.8-7.7,17.7c-1.8,2.9-0.1-0.5-0.1-0.5
	s-0.5,3.2,2.4,2.6l4.1,0.6l0.2-0.8l26.6,0.6v1.1l1.4-0.1c0,0-0.1,0.5,1.4-0.6c0,0,0.5-0.8,2.3-1.8c0,0,0,0.7,0.9-0.5
	c0.1-0.1,0.2-0.2,0.2-0.2c1.1-1.4,9-19.5,11-27.9c0,0,2.4-7.7,4.7-21.1C545.3,324.7,547.4,314.6,544.1,300.9z"/>
<path id="R112" class="st0" d="M347.7,300.1c0,0,2.3,2,5.3,3c0,0,12.6,2.6,15.3,20.7c0,0-0.4,2.4,0.5,5.4l22.2-11L376,287
	L347.7,300.1z"/>
<path id="R007" class="st0" d="M524.7,228.2c0,0-3.3,10.4,2,21l4.4,7.3c0,0,0.5,0.8-0.2,1.6L513,267l-2.7-5l-27,13l4.6-26.7
	c0,0,1.8-2.6,5.7-2.2c0,0,3.8,0.9,13.5-3.9L524.7,228.2z"/>
<path id="R103A" class="st0" d="M290.4,231.3l45.6-17.1c0,0-3.1,4.4-2.3,9.5c0,0-2,1.4,0.5,3.2l5.6,12.3c0,0,1.4,4.1-0.9,8.1
	l-9.8,19.4c0,0-2.1,4.4,0,9.8l0.9,2l-9.2,4.5L290.4,231.3z"/>
<path id="R103B" class="st0" d="M370,259.2l-35.9,17.7l-1.7-3c0,0-0.8-5,1.1-7.5l8.9-17.7c0,0,2.9-3.5,0.9-11.3l-5.6-10.7
	c0,0,0.5-3.7-1.8-3.9c0,0-0.1-3.8,0.8-4.4l2.3-5.3l7.5-2.6L370,259.2z"/>
<path id="_x36_00.MLI.000" class="st1" d="M342.9,203.7l7.4-16.5c22.6-8.7,45.2-17.5,67.9-26.2c-1,6.3-2.1,12.6-3.1,19
	c-22.9,8.7-45.8,17.4-68.7,26.1C346.4,206,343.3,207.6,342.9,203.7z"/>
<path id="_x36_00.MLI.000.A" class="st1" d="M497.2,146.3l5.8-2l1.4-11.4l-3.4,1.2l-1.3-3.7l-81.2,30.4l-3.1,18.9l81.5-30.8
	c0,0,1.3-0.4,0.8-1.8L497.2,146.3z"/>
</svg>
