<?xml version="1.0" encoding="utf-8"?>
<!-- Generator: Adobe Illustrator 24.1.2, SVG Export Plug-In . SVG Version: 6.00 Build 0)  -->
<svg version="1.1" id="Map" xmlns="http://www.w3.org/2000/svg" xmlns:xlink="http://www.w3.org/1999/xlink" x="0px" y="0px"
	 viewBox="0 0 2319 2620" style="enable-background:new 0 0 2319 2620;" xml:space="preserve">
<image style="overflow:visible;enable-background:new    ;" width="2319" height="2620" xlink:href="2702B84C.png" >
</image>
<polygon id="C101A" points="328,2128 328,2127 331,2127 331,2126 333,2126 333,2125 336,2125 336,2124 338,2124 338,2123 339,2123 
	339,2125 340,2125 340,2128 341,2128 341,2131 342,2131 342,2133 343,2133 343,2136 344,2136 344,2139 345,2139 345,2142 346,2142 
	346,2144 347,2144 347,2147 348,2147 348,2150 349,2150 349,2152 350,2152 350,2155 351,2155 351,2156 350,2156 350,2157 347,2157 
	347,2158 345,2158 345,2159 342,2159 342,2160 339,2160 339,2161 336,2161 336,2162 333,2162 333,2163 331,2163 331,2164 328,2164 
	328,2165 325,2165 325,2166 322,2166 322,2167 320,2167 320,2168 317,2168 317,2169 314,2169 314,2170 312,2170 312,2169 311,2169 
	311,2166 310,2166 310,2164 309,2164 309,2161 308,2161 308,2158 307,2158 307,2155 306,2155 306,2153 305,2153 305,2150 304,2150 
	304,2147 303,2147 303,2145 302,2145 302,2142 301,2142 301,2139 300,2139 300,2137 303,2137 303,2136 306,2136 306,2135 309,2135 
	309,2134 312,2134 312,2133 314,2133 314,2132 317,2132 317,2131 320,2131 320,2130 323,2130 323,2129 325,2129 325,2128 "/>
<polygon id="C101B" points="370,2110 370,2109 372,2109 372,2108 374,2108 374,2107 376,2107 376,2106 378,2106 378,2105 380,2105 
	380,2108 381,2108 381,2111 382,2111 382,2113 383,2113 383,2116 384,2116 384,2119 385,2119 385,2121 386,2121 386,2124 387,2124 
	387,2127 388,2127 388,2129 389,2129 389,2132 390,2132 390,2135 391,2135 391,2138 392,2138 392,2140 393,2140 393,2141 392,2141 
	392,2142 389,2142 389,2143 386,2143 386,2144 384,2144 384,2145 381,2145 381,2146 378,2146 378,2147 375,2147 375,2148 372,2148 
	372,2149 370,2149 370,2150 367,2150 367,2151 364,2151 364,2152 361,2152 361,2153 358,2153 358,2154 356,2154 356,2155 353,2155 
	353,2156 353,2153 352,2153 352,2150 351,2150 351,2148 350,2148 350,2145 349,2145 349,2142 348,2142 348,2140 347,2140 347,2137 
	346,2137 346,2134 345,2134 345,2131 344,2131 344,2129 343,2129 343,2126 342,2126 342,2123 341,2123 341,2122 343,2122 343,2121 
	345,2121 345,2120 348,2120 348,2119 350,2119 350,2118 352,2118 352,2117 355,2117 355,2116 357,2116 357,2115 359,2115 359,2114 
	361,2114 361,2113 363,2113 363,2112 366,2112 366,2111 368,2111 368,2110 "/>
<polygon id="C101C" points="410,2091 410,2090 412,2090 412,2089 414,2089 414,2088 416,2088 416,2087 419,2087 419,2086 421,2086 
	421,2089 422,2089 422,2091 423,2091 423,2094 424,2094 424,2097 425,2097 425,2099 426,2099 426,2102 427,2102 427,2105 428,2105 
	428,2107 429,2107 429,2110 430,2110 430,2113 431,2113 431,2115 432,2115 432,2118 433,2118 433,2120 434,2120 434,2123 435,2123 
	435,2125 434,2125 434,2126 433,2126 433,2127 431,2127 431,2128 428,2128 428,2129 425,2129 425,2130 422,2130 422,2131 420,2131 
	420,2132 417,2132 417,2133 414,2133 414,2134 411,2134 411,2135 409,2135 409,2136 406,2136 406,2137 403,2137 403,2138 400,2138 
	400,2139 398,2139 398,2140 395,2140 395,2141 395,2138 394,2138 394,2136 393,2136 393,2133 392,2133 392,2130 391,2130 391,2127 
	390,2127 390,2125 389,2125 389,2122 388,2122 388,2119 387,2119 387,2117 386,2117 386,2114 385,2114 385,2111 384,2111 384,2109 
	383,2109 383,2106 382,2106 382,2103 384,2103 384,2102 386,2102 386,2101 389,2101 389,2100 391,2100 391,2099 393,2099 393,2098 
	395,2098 395,2097 397,2097 397,2096 399,2096 399,2095 401,2095 401,2094 403,2094 403,2093 406,2093 406,2092 408,2092 "/>
<polygon id="C102" points="1045,2115 1045,2116 1049,2116 1049,2117 1053,2117 1053,2118 1058,2118 1058,2119 1062,2119 1062,2120 
	1067,2120 1067,2121 1072,2121 1072,2122 1078,2122 1078,2123 1085,2123 1085,2124 1092,2124 1092,2125 1100,2125 1100,2126 
	1110,2126 1110,2127 1126,2127 1126,2128 1162,2128 1162,2127 1177,2127 1177,2126 1188,2126 1188,2125 1196,2125 1196,2124 
	1204,2124 1204,2123 1212,2123 1212,2122 1220,2122 1220,2121 1227,2121 1227,2120 1236,2120 1236,2119 1247,2119 1247,2118 
	1259,2118 1259,2117 1270,2117 1270,2116 1294,2116 1294,2115 1310,2115 1310,2114 1310,2115 1313,2115 1313,2116 1314,2116 
	1313,2116 1313,2117 1312,2117 1312,2118 1311,2118 1311,2119 1310,2119 1310,2120 1309,2120 1309,2121 1308,2121 1308,2122 
	1307,2122 1307,2123 1306,2123 1306,2124 1305,2124 1305,2125 1304,2125 1304,2126 1303,2126 1303,2127 1302,2127 1302,2128 
	1301,2128 1301,2129 1300,2129 1300,2130 1299,2130 1299,2131 1298,2131 1298,2132 1297,2132 1297,2133 1296,2133 1296,2134 
	1295,2134 1295,2135 1294,2135 1294,2136 1293,2136 1293,2137 1292,2137 1292,2138 1290,2138 1290,2139 1289,2139 1289,2140 
	1288,2140 1288,2141 1287,2141 1287,2142 1286,2142 1286,2143 1285,2143 1285,2144 1284,2144 1284,2145 1282,2145 1282,2146 
	1281,2146 1281,2147 1280,2147 1280,2148 1279,2148 1279,2149 1278,2149 1278,2150 1276,2150 1276,2151 1275,2151 1275,2152 
	1274,2152 1274,2153 1273,2153 1273,2154 1271,2154 1271,2155 1270,2155 1270,2156 1269,2156 1269,2157 1268,2157 1268,2158 
	1266,2158 1266,2159 1265,2159 1265,2160 1264,2160 1264,2161 1262,2161 1262,2162 1261,2162 1261,2163 1260,2163 1260,2164 
	1258,2164 1258,2165 1257,2165 1257,2166 1255,2166 1255,2167 1254,2167 1254,2168 1252,2168 1252,2169 1251,2169 1251,2170 
	1250,2170 1250,2171 1248,2171 1248,2172 1247,2172 1247,2173 1245,2173 1245,2174 1244,2174 1244,2175 1242,2175 1242,2176 
	1241,2176 1241,2177 1239,2177 1239,2178 1237,2178 1237,2179 1236,2179 1236,2180 1234,2180 1234,2181 1232,2181 1232,2182 
	1231,2182 1231,2183 1229,2183 1229,2184 1228,2184 1228,2185 1226,2185 1226,2186 1224,2186 1224,2187 1223,2187 1223,2188 
	1221,2188 1221,2189 1219,2189 1219,2190 1217,2190 1217,2191 1215,2191 1215,2192 1213,2192 1213,2193 1212,2193 1212,2194 
	1210,2194 1210,2195 1208,2195 1208,2196 1206,2196 1206,2197 1204,2197 1204,2198 1202,2198 1202,2199 1200,2199 1200,2200 
	1198,2200 1198,2201 1196,2201 1196,2202 1194,2202 1194,2203 1191,2203 1191,2204 1189,2204 1189,2205 1187,2205 1187,2206 
	1185,2206 1185,2207 1183,2207 1183,2208 1180,2208 1180,2209 1178,2209 1178,2210 1176,2210 1176,2211 1173,2211 1173,2212 
	1171,2212 1171,2213 1168,2213 1168,2214 1166,2214 1166,2215 1163,2215 1163,2216 1160,2216 1160,2217 1158,2217 1158,2218 
	1155,2218 1155,2219 1152,2219 1152,2220 1149,2220 1149,2221 1146,2221 1146,2222 1143,2222 1143,2223 1139,2223 1139,2224 
	1136,2224 1136,2225 1132,2225 1132,2226 1129,2226 1129,2227 1125,2227 1125,2228 1121,2228 1121,2229 1117,2229 1117,2230 
	1113,2230 1113,2231 1108,2231 1108,2232 1104,2232 1104,2233 1099,2233 1099,2234 1094,2234 1094,2235 1087,2235 1087,2236 
	1081,2236 1081,2237 1074,2237 1074,2238 1065,2238 1065,2239 1055,2239 1055,2240 1040,2240 1040,2241 1009,2241 1009,2240 
	993,2240 993,2239 982,2239 982,2238 974,2238 974,2237 967,2237 967,2236 962,2236 962,2235 957,2235 957,2234 952,2234 952,2233 
	947,2233 947,2232 943,2232 943,2231 939,2231 939,2230 935,2230 935,2229 931,2229 931,2228 928,2228 928,2227 924,2227 924,2226 
	921,2226 921,2225 918,2225 918,2224 915,2224 915,2223 912,2223 912,2222 910,2222 910,2221 907,2221 907,2220 904,2220 904,2219 
	902,2219 902,2218 899,2218 899,2217 897,2217 897,2216 894,2216 894,2215 892,2215 892,2214 891,2214 892,2214 892,2213 893,2213 
	893,2212 895,2212 895,2211 896,2211 896,2210 897,2210 897,2209 898,2209 898,2208 900,2208 900,2207 901,2207 901,2206 902,2206 
	902,2205 903,2205 903,2204 905,2204 905,2203 906,2203 906,2202 907,2202 907,2201 908,2201 908,2200 910,2200 910,2199 911,2199 
	911,2198 912,2198 912,2197 913,2197 913,2196 915,2196 915,2195 916,2195 916,2194 917,2194 917,2193 918,2193 918,2192 919,2192 
	919,2191 921,2191 921,2190 922,2190 922,2189 923,2189 923,2188 924,2188 924,2187 926,2187 926,2186 927,2186 927,2185 928,2185 
	928,2184 929,2184 929,2183 931,2183 931,2182 932,2182 932,2181 933,2181 933,2180 934,2180 934,2179 936,2179 936,2178 937,2178 
	937,2177 938,2177 938,2176 939,2176 939,2175 940,2175 940,2174 942,2174 942,2173 943,2173 943,2172 944,2172 944,2171 945,2171 
	945,2170 947,2170 947,2169 948,2169 948,2168 949,2168 949,2167 950,2167 950,2166 952,2166 952,2165 953,2165 953,2164 954,2164 
	954,2163 955,2163 955,2162 957,2162 957,2161 958,2161 958,2160 959,2160 959,2159 960,2159 960,2158 961,2158 961,2157 963,2157 
	963,2156 964,2156 964,2155 965,2155 965,2154 966,2154 966,2153 968,2153 968,2152 969,2152 969,2151 970,2151 970,2150 971,2150 
	971,2149 973,2149 973,2148 974,2148 974,2147 975,2147 975,2146 976,2146 976,2145 978,2145 978,2144 979,2144 979,2143 980,2143 
	980,2142 981,2142 981,2141 982,2141 982,2140 984,2140 984,2139 985,2139 985,2138 986,2138 986,2137 987,2137 987,2136 989,2136 
	989,2135 990,2135 990,2134 991,2134 991,2133 992,2133 992,2132 994,2132 994,2131 995,2131 995,2130 996,2130 996,2129 997,2129 
	997,2128 999,2128 999,2127 1000,2127 1000,2126 1001,2126 1001,2125 1002,2125 1002,2124 1003,2124 1003,2123 1005,2123 1005,2122 
	1006,2122 1006,2121 1007,2121 1007,2120 1008,2120 1008,2119 1010,2119 1010,2118 1011,2118 1011,2117 1012,2117 1012,2116 
	1013,2116 1013,2115 1015,2115 1015,2114 1016,2114 1016,2113 1017,2113 1017,2112 1018,2112 1018,2111 1020,2111 1020,2110 
	1021,2110 1021,2109 1024,2109 1024,2110 1028,2110 1028,2111 1031,2111 1031,2112 1034,2112 1034,2113 1038,2113 1038,2114 
	1041,2114 1041,2115 "/>
<polygon id="C103" points="1357,1951 1357,1950 1358,1950 1358,1948 1359,1948 1359,1946 1360,1946 1360,1944 1361,1944 1361,1943 
	1362,1943 1362,1941 1363,1941 1363,1940 1364,1940 1364,1938 1365,1938 1365,1937 1366,1937 1366,1936 1367,1936 1367,1934 
	1368,1934 1368,1933 1369,1933 1369,1932 1370,1932 1370,1931 1371,1931 1371,1930 1372,1930 1372,1929 1373,1929 1373,1927 
	1374,1927 1374,1926 1375,1926 1375,1925 1376,1925 1376,1924 1377,1924 1377,1923 1379,1923 1379,1922 1380,1922 1380,1921 
	1381,1921 1381,1920 1382,1920 1382,1919 1383,1919 1383,1918 1385,1918 1385,1917 1386,1917 1386,1916 1387,1916 1387,1915 
	1389,1915 1389,1914 1390,1914 1390,1913 1392,1913 1392,1912 1393,1912 1393,1911 1395,1911 1395,1910 1397,1910 1397,1909 
	1398,1909 1398,1908 1400,1908 1400,1907 1402,1907 1402,1906 1404,1906 1404,1905 1405,1905 1405,1909 1406,1909 1406,1916 
	1407,1916 1407,1923 1408,1923 1408,1931 1409,1931 1409,1938 1410,1938 1410,1945 1411,1945 1411,1946 1403,1946 1403,1947 
	1392,1947 1392,1948 1382,1948 1382,1949 1381,1949 1381,1952 1380,1952 1380,1958 1379,1958 1379,1964 1378,1964 1378,1970 
	1377,1970 1377,1976 1376,1976 1376,1981 1375,1981 1375,1985 1374,1985 1374,1989 1373,1989 1373,1993 1372,1993 1372,1997 
	1371,1997 1371,2001 1370,2001 1370,2005 1369,2005 1369,2009 1368,2009 1368,2012 1367,2012 1367,2016 1366,2016 1366,2019 
	1365,2019 1365,2023 1364,2023 1364,2026 1363,2026 1363,2030 1362,2030 1362,2033 1361,2033 1361,2035 1360,2035 1360,2038 
	1359,2038 1359,2041 1358,2041 1358,2044 1357,2044 1357,2045 1353,2045 1353,2046 1350,2046 1350,2047 1347,2047 1347,2048 
	1344,2048 1344,2047 1343,2047 1343,2044 1342,2044 1342,2041 1341,2041 1341,2038 1340,2038 1340,2034 1339,2034 1339,2030 
	1338,2030 1338,2026 1337,2026 1337,2020 1336,2020 1336,2007 1337,2007 1337,2001 1338,2001 1338,1997 1339,1997 1339,1994 
	1340,1994 1340,1992 1341,1992 1341,1989 1342,1989 1342,1987 1343,1987 1343,1985 1344,1985 1344,1982 1345,1982 1345,1980 
	1346,1980 1346,1977 1347,1977 1347,1974 1348,1974 1348,1971 1349,1971 1349,1968 1350,1968 1350,1966 1351,1966 1351,1963 
	1352,1963 1352,1960 1353,1960 1353,1958 1354,1958 1354,1956 1355,1956 1355,1953 1356,1953 "/>
<polygon id="C104" points="1444,1897 1444,1896 1453,1896 1453,1895 1457,1895 1457,1902 1458,1902 1458,1910 1459,1910 1459,1917 
	1460,1917 1460,1925 1461,1925 1461,1933 1462,1933 1462,1940 1463,1940 1463,1941 1456,1941 1456,1942 1448,1942 1448,1943 
	1439,1943 1439,1944 1427,1944 1427,1945 1415,1945 1415,1946 1413,1946 1413,1943 1412,1943 1412,1936 1411,1936 1411,1929 
	1410,1929 1410,1921 1409,1921 1409,1914 1408,1914 1408,1907 1407,1907 1407,1904 1410,1904 1410,1903 1413,1903 1413,1902 
	1416,1902 1416,1901 1419,1901 1419,1900 1421,1900 1421,1899 1426,1899 1426,1898 1432,1898 1432,1897 "/>
<polygon id="C105" points="1494,1893 1494,1892 1509,1892 1509,1891 1510,1891 1510,1895 1511,1895 1511,1903 1512,1903 1512,1910 
	1513,1910 1513,1918 1514,1918 1514,1925 1515,1925 1515,1933 1516,1933 1516,1934 1510,1934 1510,1935 1504,1935 1504,1936 
	1498,1936 1498,1937 1489,1937 1489,1938 1481,1938 1481,1939 1473,1939 1473,1940 1465,1940 1465,1938 1464,1938 1464,1931 
	1463,1931 1463,1923 1462,1923 1462,1915 1461,1915 1461,1908 1460,1908 1460,1900 1459,1900 1459,1895 1463,1895 1463,1894 
	1479,1894 1479,1893 "/>
<polygon id="C106" points="1548,1881 1548,1880 1554,1880 1554,1879 1559,1879 1559,1878 1559,1881 1560,1881 1560,1886 1561,1886 
	1561,1891 1562,1891 1562,1895 1563,1895 1563,1900 1564,1900 1564,1905 1565,1905 1565,1910 1566,1910 1566,1915 1567,1915 
	1567,1920 1568,1920 1568,1925 1569,1925 1564,1925 1564,1926 1559,1926 1559,1927 1553,1927 1553,1928 1547,1928 1547,1929 
	1541,1929 1541,1930 1535,1930 1535,1931 1529,1931 1529,1932 1523,1932 1523,1933 1518,1933 1518,1931 1517,1931 1517,1923 
	1516,1923 1516,1916 1515,1916 1515,1908 1514,1908 1514,1901 1513,1901 1513,1893 1512,1893 1512,1891 1517,1891 1517,1890 
	1521,1890 1521,1889 1524,1889 1524,1888 1526,1888 1526,1887 1527,1887 1527,1886 1529,1886 1529,1885 1531,1885 1531,1884 
	1534,1884 1534,1883 1538,1883 1538,1882 1543,1882 1543,1881 "/>
<polygon id="C107" points="1596,1871 1596,1870 1601,1870 1601,1869 1605,1869 1605,1868 1608,1868 1608,1870 1609,1870 1609,1874 
	1610,1874 1610,1879 1611,1879 1611,1884 1612,1884 1612,1889 1613,1889 1613,1894 1614,1894 1614,1898 1615,1898 1615,1903 
	1616,1903 1616,1908 1617,1908 1617,1913 1618,1913 1618,1915 1615,1915 1615,1916 1610,1916 1610,1917 1605,1917 1605,1918 
	1600,1918 1600,1919 1595,1919 1595,1920 1590,1920 1590,1921 1584,1921 1584,1922 1579,1922 1579,1923 1574,1923 1574,1924 
	1571,1924 1571,1923 1570,1923 1570,1918 1569,1918 1569,1913 1568,1913 1568,1908 1567,1908 1567,1904 1566,1904 1566,1899 
	1565,1899 1565,1894 1564,1894 1564,1889 1563,1889 1563,1884 1562,1884 1562,1879 1561,1879 1561,1878 1565,1878 1565,1877 
	1569,1877 1569,1876 1573,1876 1573,1875 1578,1875 1578,1874 1582,1874 1582,1873 1587,1873 1587,1872 1591,1872 1591,1871 "/>
<polygon id="C108" points="1644,1858 1644,1857 1647,1857 1647,1856 1648,1856 1648,1858 1649,1858 1649,1860 1650,1860 1650,1862 
	1651,1862 1651,1864 1652,1864 1652,1866 1653,1866 1653,1868 1654,1868 1654,1870 1655,1870 1655,1872 1656,1872 1656,1873 
	1657,1873 1657,1875 1658,1875 1658,1877 1659,1877 1659,1879 1660,1879 1660,1881 1661,1881 1661,1883 1662,1883 1662,1885 
	1663,1885 1663,1887 1664,1887 1664,1889 1665,1889 1665,1891 1666,1891 1666,1892 1667,1892 1667,1894 1668,1894 1668,1896 
	1669,1896 1669,1898 1670,1898 1670,1900 1671,1900 1671,1902 1672,1902 1668,1902 1668,1903 1664,1903 1664,1904 1660,1904 
	1660,1905 1656,1905 1656,1906 1652,1906 1652,1907 1648,1907 1648,1908 1644,1908 1644,1909 1640,1909 1640,1910 1635,1910 
	1635,1911 1631,1911 1631,1912 1627,1912 1627,1913 1623,1913 1623,1914 1620,1914 1620,1911 1619,1911 1619,1906 1618,1906 
	1618,1901 1617,1901 1617,1897 1616,1897 1616,1892 1615,1892 1615,1887 1614,1887 1614,1882 1613,1882 1613,1877 1612,1877 
	1612,1873 1611,1873 1611,1868 1610,1868 1610,1867 1613,1867 1613,1866 1616,1866 1616,1865 1620,1865 1620,1864 1624,1864 
	1624,1863 1627,1863 1627,1862 1631,1862 1631,1861 1634,1861 1634,1860 1638,1860 1638,1859 1641,1859 "/>
<polygon id="R201" points="577,2031 577,2030 579,2030 579,2029 580,2029 580,2028 582,2028 582,2027 584,2027 584,2026 586,2026 
	586,2025 587,2025 587,2024 589,2024 589,2023 590,2023 590,2022 592,2022 592,2021 594,2021 594,2020 597,2020 597,2019 602,2019 
	602,2018 605,2018 605,2017 608,2017 608,2016 611,2016 611,2015 615,2015 615,2014 618,2014 618,2013 622,2013 622,2012 625,2012 
	625,2011 629,2011 629,2010 633,2010 633,2009 638,2009 638,2008 642,2008 642,2007 647,2007 647,2006 652,2006 652,2005 658,2005 
	658,2004 664,2004 664,2003 672,2003 672,2002 680,2002 680,2001 691,2001 691,2000 710,2000 710,1999 729,1999 729,2000 748,2000 
	748,2001 758,2001 758,2002 767,2002 767,2003 774,2003 774,2004 780,2004 780,2005 786,2005 786,2006 791,2006 791,2007 796,2007 
	796,2008 801,2008 801,2009 805,2009 805,2010 809,2010 809,2011 813,2011 813,2012 817,2012 817,2013 820,2013 820,2014 824,2014 
	824,2015 827,2015 827,2016 831,2016 831,2017 834,2017 834,2018 837,2018 837,2019 840,2019 840,2020 843,2020 843,2021 845,2021 
	845,2022 848,2022 848,2023 851,2023 851,2024 853,2024 853,2025 856,2025 856,2026 859,2026 859,2027 861,2027 861,2028 863,2028 
	863,2029 866,2029 866,2030 868,2030 868,2031 870,2031 870,2032 873,2032 873,2033 875,2033 875,2034 877,2034 877,2035 879,2035 
	879,2036 880,2036 880,2037 882,2037 882,2039 883,2039 883,2040 884,2040 884,2042 886,2042 886,2043 887,2043 887,2044 889,2044 
	889,2045 900,2045 900,2046 901,2046 901,2047 903,2047 903,2048 905,2048 905,2049 906,2049 906,2050 908,2050 908,2051 909,2051 
	909,2052 911,2052 911,2053 912,2053 912,2054 914,2054 914,2055 916,2055 916,2056 917,2056 917,2057 919,2057 919,2058 920,2058 
	920,2059 922,2059 922,2060 924,2060 924,2061 925,2061 925,2062 927,2062 927,2063 928,2063 928,2064 930,2064 930,2065 931,2065 
	931,2066 933,2066 933,2067 935,2067 935,2068 936,2068 936,2069 938,2069 938,2070 940,2070 940,2071 941,2071 941,2072 943,2072 
	943,2073 944,2073 944,2074 946,2074 946,2075 947,2075 947,2076 949,2076 949,2077 951,2077 951,2078 953,2078 953,2079 955,2079 
	955,2080 957,2080 957,2081 959,2081 959,2082 961,2082 961,2083 963,2083 963,2084 965,2084 965,2085 967,2085 967,2086 969,2086 
	969,2087 971,2087 971,2088 973,2088 973,2089 975,2089 975,2090 977,2090 977,2091 979,2091 979,2092 981,2092 981,2093 984,2093 
	984,2094 986,2094 986,2095 988,2095 988,2096 991,2096 991,2097 993,2097 993,2098 995,2098 995,2099 998,2099 998,2100 1000,2100 
	1000,2101 1003,2101 1003,2102 1006,2102 1006,2103 1008,2103 1008,2104 1011,2104 1011,2105 1014,2105 1014,2106 1017,2106 
	1017,2107 1018,2107 1017,2107 1017,2108 1016,2108 1016,2109 1015,2109 1015,2110 1013,2110 1013,2111 1012,2111 1012,2112 
	1011,2112 1011,2113 1010,2113 1010,2114 1009,2114 1009,2115 1007,2115 1007,2116 1006,2116 1006,2117 1005,2117 1005,2118 
	1004,2118 1004,2119 1002,2119 1002,2120 1001,2120 1001,2121 1000,2121 1000,2122 999,2122 999,2123 997,2123 997,2124 996,2124 
	996,2125 995,2125 995,2126 994,2126 994,2127 992,2127 992,2128 991,2128 991,2129 990,2129 990,2130 989,2130 989,2131 988,2131 
	988,2132 986,2132 986,2133 985,2133 985,2134 984,2134 984,2135 983,2135 983,2136 981,2136 981,2137 980,2137 980,2138 979,2138 
	979,2139 978,2139 978,2140 976,2140 976,2141 975,2141 975,2142 974,2142 974,2143 973,2143 973,2144 971,2144 971,2145 970,2145 
	970,2146 969,2146 969,2147 968,2147 968,2148 967,2148 967,2149 965,2149 965,2150 964,2150 964,2151 963,2151 963,2152 962,2152 
	962,2153 960,2153 960,2154 959,2154 959,2155 958,2155 958,2156 957,2156 957,2157 955,2157 955,2158 954,2158 954,2159 953,2159 
	953,2160 952,2160 952,2161 950,2161 950,2162 949,2162 949,2163 948,2163 948,2164 947,2164 947,2165 946,2165 946,2166 944,2166 
	944,2167 943,2167 943,2168 942,2168 942,2169 941,2169 941,2170 939,2170 939,2171 938,2171 938,2172 937,2172 937,2173 936,2173 
	936,2174 934,2174 934,2175 933,2175 933,2176 932,2176 932,2177 931,2177 931,2178 929,2178 929,2179 928,2179 928,2180 927,2180 
	927,2181 926,2181 926,2182 925,2182 925,2183 923,2183 923,2184 922,2184 922,2185 921,2185 921,2186 920,2186 920,2187 918,2187 
	918,2188 917,2188 917,2189 916,2189 916,2190 915,2190 915,2191 913,2191 913,2192 912,2192 912,2193 911,2193 911,2194 910,2194 
	910,2195 908,2195 908,2196 907,2196 907,2197 906,2197 906,2198 905,2198 905,2199 904,2199 904,2200 902,2200 902,2201 901,2201 
	901,2202 900,2202 900,2203 899,2203 899,2204 897,2204 897,2205 896,2205 896,2206 895,2206 895,2207 894,2207 894,2208 892,2208 
	892,2209 891,2209 891,2210 890,2210 890,2211 889,2211 889,2212 887,2212 887,2213 886,2213 886,2214 885,2214 885,2215 884,2215 
	884,2216 882,2216 882,2217 881,2217 881,2218 880,2218 880,2219 879,2219 879,2220 878,2220 878,2221 877,2221 877,2222 875,2222 
	875,2223 874,2223 874,2224 873,2224 873,2225 872,2225 872,2226 871,2226 871,2227 869,2227 869,2228 868,2228 868,2229 867,2229 
	867,2230 866,2230 866,2231 865,2231 865,2232 864,2232 864,2233 863,2233 863,2234 862,2234 862,2235 861,2235 861,2236 860,2236 
	860,2237 859,2237 859,2238 858,2238 858,2239 857,2239 857,2240 856,2240 856,2241 855,2241 855,2242 854,2242 854,2243 853,2243 
	853,2244 852,2244 852,2245 851,2245 851,2246 849,2246 849,2247 848,2247 848,2248 847,2248 847,2249 846,2249 846,2250 845,2250 
	845,2252 844,2252 844,2253 843,2253 843,2254 842,2254 842,2255 841,2255 841,2256 840,2256 840,2257 839,2257 839,2258 838,2258 
	838,2259 837,2259 837,2260 836,2260 836,2261 835,2261 835,2262 834,2262 834,2263 833,2263 833,2265 832,2265 832,2266 831,2266 
	831,2267 830,2267 830,2268 829,2268 829,2269 828,2269 828,2270 827,2270 827,2271 826,2271 826,2272 825,2272 825,2274 824,2274 
	824,2275 823,2275 823,2276 822,2276 822,2277 821,2277 821,2279 820,2279 820,2280 819,2280 819,2281 818,2281 818,2282 817,2282 
	817,2284 816,2284 816,2285 815,2285 815,2286 814,2286 814,2287 813,2287 813,2288 812,2288 812,2290 811,2290 811,2291 810,2291 
	810,2292 809,2292 809,2294 808,2294 808,2295 807,2295 807,2296 806,2296 806,2298 805,2298 805,2299 804,2299 804,2301 803,2301 
	803,2302 802,2302 802,2303 801,2303 801,2305 800,2305 800,2306 799,2306 799,2307 798,2307 798,2309 797,2309 797,2310 796,2310 
	796,2312 795,2312 795,2313 794,2313 794,2315 793,2315 793,2316 792,2316 792,2318 791,2318 791,2319 790,2319 790,2321 789,2321 
	789,2323 788,2323 788,2324 787,2324 787,2326 786,2326 786,2328 785,2328 785,2329 784,2329 784,2331 783,2331 783,2333 782,2333 
	782,2334 781,2334 781,2336 780,2336 780,2338 779,2338 779,2340 778,2340 778,2341 777,2341 777,2343 776,2343 776,2345 775,2345 
	775,2347 774,2347 774,2349 773,2349 773,2351 772,2351 772,2353 771,2353 771,2354 770,2354 770,2356 769,2356 769,2358 768,2358 
	768,2360 767,2360 767,2362 766,2362 766,2364 765,2364 765,2366 764,2366 764,2368 763,2368 763,2371 762,2371 762,2373 761,2373 
	761,2375 760,2375 760,2377 759,2377 759,2379 758,2379 758,2381 757,2381 757,2383 756,2383 756,2386 755,2386 755,2388 754,2388 
	754,2391 753,2391 753,2393 752,2393 752,2396 751,2396 751,2398 750,2398 750,2401 749,2401 749,2404 748,2404 748,2406 747,2406 
	747,2409 746,2409 746,2411 745,2411 745,2414 744,2414 744,2417 743,2417 743,2421 742,2421 742,2424 741,2424 741,2428 740,2428 
	740,2431 739,2431 739,2434 738,2434 738,2438 737,2438 737,2441 736,2441 736,2445 735,2445 735,2449 734,2449 734,2454 733,2454 
	733,2458 732,2458 732,2462 731,2462 731,2466 730,2466 730,2470 729,2470 729,2476 728,2476 728,2482 727,2482 727,2488 726,2488 
	726,2494 725,2494 725,2500 724,2500 724,2514 723,2514 723,2528 721,2528 721,2529 719,2529 719,2530 716,2530 716,2531 713,2531 
	713,2532 710,2532 710,2533 708,2533 708,2534 705,2534 705,2535 702,2535 702,2536 699,2536 699,2537 696,2537 696,2538 694,2538 
	694,2539 691,2539 691,2540 688,2540 688,2541 685,2541 685,2542 683,2542 683,2543 680,2543 680,2544 677,2544 677,2545 674,2545 
	674,2546 672,2546 672,2547 669,2547 669,2548 666,2548 666,2549 663,2549 663,2550 661,2550 661,2551 658,2551 658,2552 655,2552 
	655,2553 652,2553 652,2554 649,2554 649,2555 647,2555 647,2556 644,2556 644,2557 641,2557 641,2558 638,2558 638,2559 636,2559 
	636,2560 633,2560 633,2561 630,2561 630,2562 627,2562 627,2563 625,2563 625,2564 622,2564 622,2565 619,2565 619,2566 616,2566 
	616,2567 613,2567 613,2568 611,2568 611,2569 608,2569 608,2570 605,2570 605,2571 602,2571 602,2572 600,2572 600,2573 597,2573 
	597,2574 594,2574 594,2575 591,2575 591,2576 589,2576 589,2577 586,2577 586,2578 583,2578 583,2579 580,2579 580,2580 578,2580 
	578,2581 575,2581 575,2582 572,2582 572,2583 569,2583 569,2584 566,2584 566,2585 564,2585 564,2586 561,2586 561,2587 558,2587 
	558,2588 555,2588 555,2589 553,2589 553,2590 550,2590 550,2591 547,2591 547,2592 544,2592 544,2593 542,2593 542,2594 539,2594 
	539,2595 536,2595 536,2596 533,2596 533,2597 530,2597 530,2598 528,2598 528,2599 525,2599 525,2600 522,2600 522,2601 519,2601 
	519,2602 517,2602 517,2603 514,2603 514,2604 511,2604 511,2605 508,2605 508,2606 506,2606 506,2607 503,2607 503,2608 500,2608 
	500,2609 497,2609 497,2610 495,2610 495,2611 492,2611 492,2612 489,2612 489,2613 486,2613 486,2614 483,2614 483,2615 481,2615 
	481,2616 480,2616 480,2615 479,2615 479,2612 478,2612 478,2610 477,2610 477,2607 476,2607 476,2604 475,2604 475,2602 474,2602 
	474,2599 473,2599 473,2596 472,2596 472,2594 471,2594 471,2591 470,2591 470,2588 469,2588 469,2586 468,2586 468,2583 467,2583 
	467,2580 466,2580 466,2578 465,2578 465,2575 464,2575 464,2572 463,2572 463,2570 462,2570 462,2567 461,2567 461,2564 460,2564 
	460,2561 459,2561 459,2559 458,2559 458,2556 457,2556 457,2553 456,2553 456,2551 455,2551 455,2548 454,2548 454,2545 453,2545 
	453,2543 452,2543 452,2540 451,2540 451,2537 450,2537 450,2535 449,2535 449,2532 448,2532 448,2529 447,2529 447,2527 446,2527 
	446,2524 445,2524 445,2521 444,2521 444,2519 443,2519 443,2516 442,2516 442,2513 441,2513 441,2510 440,2510 440,2508 439,2508 
	439,2505 438,2505 438,2502 437,2502 437,2500 436,2500 436,2497 435,2497 435,2494 434,2494 434,2492 433,2492 433,2489 432,2489 
	432,2486 431,2486 431,2484 430,2484 430,2481 429,2481 429,2478 428,2478 428,2476 427,2476 427,2473 426,2473 426,2470 425,2470 
	425,2468 424,2468 424,2465 423,2465 423,2462 422,2462 422,2460 421,2460 421,2457 420,2457 420,2454 419,2454 419,2452 418,2452 
	418,2449 417,2449 417,2446 416,2446 416,2443 415,2443 415,2441 414,2441 414,2438 413,2438 413,2435 412,2435 412,2433 411,2433 
	411,2430 410,2430 410,2427 409,2427 409,2425 408,2425 408,2422 407,2422 407,2419 406,2419 406,2417 405,2417 405,2414 404,2414 
	404,2411 403,2411 403,2409 402,2409 402,2406 401,2406 401,2403 400,2403 400,2401 399,2401 399,2398 398,2398 398,2395 397,2395 
	397,2393 396,2393 396,2390 395,2390 395,2387 394,2387 394,2385 393,2385 393,2382 392,2382 392,2379 391,2379 391,2377 390,2377 
	390,2375 389,2375 389,2372 388,2372 388,2370 387,2370 387,2367 386,2367 386,2365 385,2365 385,2362 384,2362 384,2359 383,2359 
	383,2357 382,2357 382,2354 381,2354 381,2352 380,2352 380,2349 379,2349 379,2346 378,2346 378,2344 377,2344 377,2341 376,2341 
	376,2338 375,2338 375,2336 374,2336 374,2333 373,2333 373,2330 372,2330 372,2328 371,2328 371,2325 370,2325 370,2322 369,2322 
	369,2320 368,2320 368,2317 367,2317 367,2314 366,2314 366,2312 365,2312 365,2309 364,2309 364,2307 363,2307 363,2304 362,2304 
	362,2301 361,2301 361,2299 360,2299 360,2296 359,2296 359,2293 358,2293 358,2291 357,2291 357,2288 356,2288 356,2285 355,2285 
	355,2283 354,2283 354,2280 353,2280 353,2277 352,2277 352,2275 351,2275 351,2272 350,2272 350,2269 349,2269 349,2267 348,2267 
	348,2264 347,2264 347,2261 346,2261 346,2259 345,2259 345,2256 344,2256 344,2254 343,2254 343,2251 342,2251 342,2248 341,2248 
	341,2246 340,2246 340,2243 339,2243 339,2240 338,2240 338,2238 337,2238 337,2235 336,2235 336,2232 335,2232 335,2230 334,2230 
	334,2227 333,2227 333,2224 332,2224 332,2222 331,2222 331,2219 330,2219 330,2216 329,2216 329,2214 328,2214 328,2211 327,2211 
	327,2209 326,2209 326,2206 325,2206 325,2203 324,2203 324,2201 323,2201 323,2198 322,2198 322,2195 321,2195 321,2193 320,2193 
	320,2190 319,2190 319,2187 318,2187 318,2185 317,2185 317,2182 316,2182 316,2179 315,2179 315,2177 314,2177 314,2174 313,2174 
	313,2172 316,2172 316,2171 319,2171 319,2170 321,2170 321,2169 324,2169 324,2168 327,2168 327,2167 330,2167 330,2166 332,2166 
	332,2165 335,2165 335,2164 338,2164 338,2163 341,2163 341,2162 344,2162 344,2161 346,2161 346,2160 349,2160 349,2159 352,2159 
	352,2158 355,2158 355,2157 357,2157 357,2156 360,2156 360,2155 363,2155 363,2154 366,2154 366,2153 369,2153 369,2152 371,2152 
	371,2151 374,2151 374,2150 377,2150 377,2149 380,2149 380,2148 383,2148 383,2147 385,2147 385,2146 388,2146 388,2145 391,2145 
	391,2144 394,2144 394,2143 397,2143 397,2142 399,2142 399,2141 402,2141 402,2140 405,2140 405,2139 408,2139 408,2138 410,2138 
	410,2137 413,2137 413,2136 416,2136 416,2135 419,2135 419,2134 421,2134 421,2133 424,2133 424,2132 427,2132 427,2131 430,2131 
	430,2130 432,2130 432,2129 435,2129 435,2128 436,2128 436,2127 437,2127 437,2121 436,2121 436,2119 435,2119 435,2116 434,2116 
	434,2113 433,2113 433,2111 432,2111 432,2108 431,2108 431,2105 430,2105 430,2103 429,2103 429,2100 428,2100 428,2097 427,2097 
	427,2095 426,2095 426,2092 425,2092 425,2090 424,2090 424,2087 423,2087 423,2085 424,2085 424,2084 426,2084 426,2083 428,2083 
	428,2082 431,2082 431,2081 433,2081 433,2080 435,2080 435,2079 438,2079 438,2078 440,2078 440,2077 442,2077 442,2076 445,2076 
	445,2075 447,2075 447,2074 449,2074 449,2073 452,2073 452,2072 454,2072 454,2071 456,2071 456,2070 460,2070 460,2069 462,2069 
	462,2068 464,2068 464,2067 466,2067 466,2066 470,2066 470,2065 475,2065 475,2064 479,2064 479,2063 483,2063 483,2062 488,2062 
	488,2061 492,2061 492,2060 495,2060 495,2059 497,2059 497,2058 500,2058 500,2057 502,2057 502,2056 505,2056 505,2055 507,2055 
	507,2054 510,2054 510,2053 513,2053 513,2052 517,2052 517,2051 520,2051 520,2050 524,2050 524,2049 527,2049 527,2048 530,2048 
	530,2047 534,2047 534,2046 537,2046 537,2045 540,2045 540,2044 544,2044 544,2043 547,2043 547,2042 551,2042 551,2041 553,2041 
	553,2040 556,2040 556,2039 559,2039 559,2038 562,2038 562,2037 564,2037 564,2036 567,2036 567,2035 569,2035 569,2034 571,2034 
	571,2033 573,2033 573,2032 575,2032 575,2031 "/>
<polygon id="R202" points="1084,1815 1084,1814 1087,1814 1087,1813 1090,1813 1090,1812 1092,1812 1092,1811 1095,1811 1095,1810 
	1098,1810 1098,1809 1100,1809 1100,1808 1103,1808 1103,1807 1106,1807 1106,1806 1109,1806 1109,1805 1111,1805 1111,1804 
	1114,1804 1114,1803 1117,1803 1117,1802 1119,1802 1119,1801 1122,1801 1122,1800 1125,1800 1125,1799 1127,1799 1127,1798 
	1130,1798 1130,1797 1133,1797 1133,1796 1136,1796 1136,1795 1138,1795 1138,1794 1141,1794 1141,1793 1144,1793 1144,1792 
	1146,1792 1146,1791 1149,1791 1149,1790 1152,1790 1152,1789 1154,1789 1154,1788 1157,1788 1157,1787 1160,1787 1160,1786 
	1162,1786 1162,1785 1165,1785 1165,1784 1168,1784 1168,1783 1171,1783 1171,1782 1173,1782 1173,1781 1176,1781 1176,1780 
	1179,1780 1179,1779 1181,1779 1181,1778 1184,1778 1184,1777 1187,1777 1187,1776 1189,1776 1189,1775 1192,1775 1192,1774 
	1195,1774 1195,1773 1198,1773 1198,1772 1200,1772 1200,1771 1203,1771 1203,1770 1206,1770 1206,1769 1208,1769 1208,1768 
	1211,1768 1211,1767 1214,1767 1214,1766 1216,1766 1216,1765 1219,1765 1219,1764 1222,1764 1222,1763 1224,1763 1224,1762 
	1227,1762 1227,1761 1230,1761 1230,1760 1233,1760 1233,1759 1235,1759 1235,1758 1235,1760 1236,1760 1236,1766 1237,1766 
	1237,1772 1238,1772 1238,1778 1239,1778 1239,1783 1240,1783 1240,1789 1241,1789 1241,1795 1242,1795 1242,1801 1243,1801 
	1243,1807 1244,1807 1244,1812 1245,1812 1245,1818 1246,1818 1246,1824 1247,1824 1247,1829 1248,1829 1248,1834 1249,1834 
	1249,1839 1250,1839 1250,1844 1251,1844 1251,1848 1252,1848 1252,1853 1253,1853 1253,1858 1254,1858 1254,1863 1255,1863 
	1255,1868 1256,1868 1256,1872 1257,1872 1257,1877 1258,1877 1258,1882 1259,1882 1259,1887 1260,1887 1260,1892 1261,1892 
	1261,1896 1262,1896 1262,1901 1263,1901 1263,1905 1264,1905 1264,1909 1265,1909 1265,1913 1266,1913 1266,1918 1267,1918 
	1267,1922 1268,1922 1268,1926 1269,1926 1269,1931 1270,1931 1270,1935 1271,1935 1271,1939 1272,1939 1272,1943 1273,1943 
	1273,1948 1274,1948 1274,1952 1275,1952 1275,1956 1276,1956 1276,1961 1277,1961 1277,1965 1278,1965 1278,1969 1279,1969 
	1279,1990 1278,1990 1278,1995 1277,1995 1277,1998 1276,1998 1276,2001 1275,2001 1275,2004 1274,2004 1274,2006 1273,2006 
	1273,2008 1272,2008 1272,2010 1271,2010 1271,2012 1270,2012 1270,2013 1269,2013 1269,2015 1268,2015 1268,2016 1267,2016 
	1267,2018 1266,2018 1266,2020 1265,2020 1265,2021 1264,2021 1264,2022 1263,2022 1263,2024 1262,2024 1262,2025 1261,2025 
	1261,2026 1260,2026 1260,2027 1259,2027 1259,2028 1258,2028 1258,2029 1256,2029 1256,2030 1254,2030 1254,2031 1253,2031 
	1253,2032 1251,2032 1251,2033 1249,2033 1249,2034 1247,2034 1247,2035 1245,2035 1245,2036 1243,2036 1243,2037 1241,2037 
	1241,2038 1238,2038 1238,2039 1236,2039 1236,2040 1233,2040 1233,2041 1230,2041 1230,2042 1227,2042 1227,2043 1223,2043 
	1223,2044 1219,2044 1219,2045 1215,2045 1215,2046 1210,2046 1210,2047 1205,2047 1205,2048 1200,2048 1200,2049 1194,2049 
	1194,2050 1187,2050 1187,2051 1179,2051 1179,2052 1168,2052 1168,2053 1122,2053 1122,2052 1112,2052 1112,2051 1103,2051 
	1103,2050 1097,2050 1097,2049 1091,2049 1091,2048 1085,2048 1085,2047 1080,2047 1080,2046 1076,2046 1076,2045 1071,2045 
	1071,2044 1067,2044 1067,2043 1064,2043 1064,2042 1060,2042 1060,2041 1056,2041 1056,2040 1053,2040 1053,2039 1050,2039 
	1050,2038 1047,2038 1047,2037 1044,2037 1044,2036 1041,2036 1041,2035 1038,2035 1038,2034 1035,2034 1035,2033 1033,2033 
	1033,2032 1030,2032 1030,2031 1028,2031 1028,2030 1025,2030 1025,2029 1023,2029 1023,2028 1020,2028 1020,2027 1018,2027 
	1018,2026 1016,2026 1016,2025 1014,2025 1014,2024 1011,2024 1011,2023 1009,2023 1009,2022 1007,2022 1007,2021 1005,2021 
	1005,2020 1003,2020 1003,2019 1001,2019 1001,2018 999,2018 999,2017 997,2017 997,2016 995,2016 995,2015 994,2015 994,2014 
	992,2014 992,2013 990,2013 990,2012 988,2012 988,2011 986,2011 986,2010 985,2010 985,2009 983,2009 983,2008 981,2008 981,2007 
	980,2007 980,2006 978,2006 978,2005 977,2005 977,2004 975,2004 975,2003 973,2003 973,2002 972,2002 972,2001 970,2001 970,2000 
	969,2000 969,1999 967,1999 967,1998 966,1998 966,1997 964,1997 964,1996 963,1996 963,1995 962,1995 962,1994 960,1994 960,1993 
	958,1993 958,1992 956,1992 956,1991 954,1991 954,1990 953,1990 953,1989 951,1989 951,1988 949,1988 949,1987 947,1987 947,1986 
	946,1986 946,1985 944,1985 944,1984 942,1984 942,1983 940,1983 940,1982 939,1982 939,1981 937,1981 937,1980 936,1980 936,1979 
	934,1979 934,1978 933,1978 933,1977 932,1977 932,1976 931,1976 931,1975 930,1975 930,1974 928,1974 928,1973 927,1973 927,1972 
	926,1972 926,1971 925,1971 925,1970 924,1970 924,1969 923,1969 923,1968 922,1968 922,1966 921,1966 921,1965 919,1965 919,1964 
	918,1964 918,1963 917,1963 917,1962 916,1962 916,1961 915,1961 915,1960 913,1960 913,1959 912,1959 912,1958 911,1958 911,1957 
	910,1957 910,1956 909,1956 909,1955 907,1955 907,1954 906,1954 906,1953 905,1953 905,1952 903,1952 903,1951 902,1951 902,1950 
	901,1950 901,1949 899,1949 899,1948 898,1948 898,1947 897,1947 897,1946 895,1946 895,1945 894,1945 894,1944 892,1944 892,1943 
	891,1943 891,1942 889,1942 889,1941 888,1941 888,1940 886,1940 886,1939 885,1939 885,1938 883,1938 883,1937 882,1937 882,1936 
	880,1936 880,1935 879,1935 879,1934 877,1934 877,1933 876,1933 876,1932 874,1932 874,1931 872,1931 872,1930 870,1930 870,1929 
	869,1929 869,1928 867,1928 867,1927 865,1927 865,1926 863,1926 863,1925 862,1925 862,1924 860,1924 860,1923 858,1923 858,1922 
	856,1922 856,1921 854,1921 854,1920 852,1920 852,1919 850,1919 850,1918 849,1918 849,1917 847,1917 847,1916 846,1916 846,1914 
	845,1914 845,1910 844,1910 844,1904 845,1904 845,1903 848,1903 848,1902 851,1902 851,1901 853,1901 853,1900 856,1900 856,1899 
	859,1899 859,1898 862,1898 862,1897 864,1897 864,1896 867,1896 867,1895 870,1895 870,1894 872,1894 872,1893 875,1893 875,1892 
	878,1892 878,1891 880,1891 880,1890 883,1890 883,1889 886,1889 886,1888 888,1888 888,1887 891,1887 891,1886 894,1886 894,1885 
	897,1885 897,1884 899,1884 899,1883 902,1883 902,1882 905,1882 905,1881 907,1881 907,1880 910,1880 910,1879 913,1879 913,1878 
	915,1878 915,1877 918,1877 918,1876 921,1876 921,1875 924,1875 924,1874 926,1874 926,1873 929,1873 929,1872 932,1872 932,1871 
	934,1871 934,1870 937,1870 937,1869 940,1869 940,1868 942,1868 942,1867 945,1867 945,1866 948,1866 948,1865 950,1865 950,1864 
	953,1864 953,1863 956,1863 956,1862 959,1862 959,1861 961,1861 961,1860 964,1860 964,1859 967,1859 967,1858 969,1858 969,1857 
	972,1857 972,1856 975,1856 975,1855 977,1855 977,1854 980,1854 980,1853 983,1853 983,1852 985,1852 985,1851 988,1851 988,1850 
	991,1850 991,1849 993,1849 993,1848 996,1848 996,1847 999,1847 999,1846 1001,1846 1001,1845 1004,1845 1004,1844 1007,1844 
	1007,1843 1009,1843 1009,1842 1012,1842 1012,1841 1015,1841 1015,1840 1017,1840 1017,1839 1020,1839 1020,1838 1023,1838 
	1023,1837 1025,1837 1025,1836 1028,1836 1028,1835 1031,1835 1031,1834 1033,1834 1033,1833 1036,1833 1036,1832 1039,1832 
	1039,1831 1041,1831 1041,1830 1044,1830 1044,1829 1047,1829 1047,1828 1050,1828 1050,1827 1052,1827 1052,1826 1055,1826 
	1055,1825 1058,1825 1058,1824 1060,1824 1060,1823 1063,1823 1063,1822 1066,1822 1066,1821 1068,1821 1068,1820 1071,1820 
	1071,1819 1074,1819 1074,1818 1076,1818 1076,1817 1079,1817 1079,1816 1082,1816 "/>
<polygon id="R202_1_" points="1402,1715 1405,1715 1405,1716 1409,1716 1409,1717 1412,1717 1412,1718 1416,1718 1416,1719 
	1419,1719 1419,1720 1422,1720 1422,1721 1425,1721 1425,1722 1428,1722 1428,1723 1432,1723 1432,1724 1435,1724 1435,1725 
	1438,1725 1438,1726 1441,1726 1441,1727 1443,1727 1443,1728 1446,1728 1446,1729 1449,1729 1449,1730 1452,1730 1452,1731 
	1455,1731 1455,1732 1457,1732 1457,1733 1460,1733 1460,1734 1463,1734 1463,1735 1465,1735 1465,1736 1468,1736 1468,1737 
	1471,1737 1471,1738 1473,1738 1473,1739 1476,1739 1476,1740 1478,1740 1478,1741 1480,1741 1480,1742 1483,1742 1483,1743 
	1485,1743 1485,1744 1488,1744 1488,1745 1490,1745 1490,1746 1492,1746 1492,1747 1495,1747 1495,1748 1497,1748 1497,1749 
	1499,1749 1499,1750 1501,1750 1501,1751 1504,1751 1504,1752 1506,1752 1506,1753 1508,1753 1508,1754 1510,1754 1510,1755 
	1512,1755 1512,1756 1514,1756 1514,1757 1517,1757 1517,1758 1519,1758 1519,1759 1521,1759 1521,1760 1523,1760 1523,1761 
	1525,1761 1525,1762 1527,1762 1527,1763 1529,1763 1529,1764 1531,1764 1531,1765 1533,1765 1533,1766 1535,1766 1535,1767 
	1537,1767 1537,1768 1539,1768 1539,1769 1540,1769 1540,1770 1542,1770 1542,1771 1544,1771 1544,1772 1546,1772 1546,1773 
	1548,1773 1548,1774 1550,1774 1550,1775 1552,1775 1552,1776 1553,1776 1553,1777 1555,1777 1555,1778 1557,1778 1557,1779 
	1559,1779 1559,1780 1561,1780 1561,1781 1562,1781 1562,1782 1564,1782 1564,1783 1566,1783 1566,1784 1568,1784 1568,1785 
	1569,1785 1569,1786 1571,1786 1571,1787 1573,1787 1573,1788 1574,1788 1574,1789 1576,1789 1576,1790 1578,1790 1578,1791 
	1579,1791 1579,1792 1581,1792 1581,1793 1583,1793 1583,1794 1584,1794 1584,1795 1586,1795 1586,1796 1587,1796 1587,1797 
	1589,1797 1589,1798 1590,1798 1590,1799 1592,1799 1592,1800 1594,1800 1594,1801 1595,1801 1595,1802 1597,1802 1597,1803 
	1598,1803 1598,1804 1600,1804 1600,1805 1601,1805 1601,1806 1604,1806 1604,1807 1605,1807 1605,1808 1606,1808 1606,1809 
	1607,1809 1607,1811 1608,1811 1608,1813 1609,1813 1609,1819 1608,1819 1608,1822 1607,1822 1607,1823 1606,1823 1606,1824 
	1605,1824 1605,1825 1604,1825 1604,1826 1603,1826 1603,1827 1601,1827 1601,1828 1598,1828 1598,1829 1594,1829 1594,1830 
	1590,1830 1590,1831 1586,1831 1586,1832 1582,1832 1582,1833 1577,1833 1577,1834 1573,1834 1573,1835 1568,1835 1568,1836 
	1564,1836 1564,1837 1559,1837 1559,1838 1554,1838 1554,1839 1549,1839 1549,1840 1544,1840 1544,1841 1539,1841 1539,1842 
	1534,1842 1534,1843 1531,1843 1531,1844 1525,1844 1525,1843 1520,1843 1520,1842 1507,1842 1507,1843 1502,1843 1502,1844 
	1496,1844 1496,1845 1487,1845 1487,1846 1484,1846 1484,1847 1481,1847 1481,1848 1479,1848 1479,1849 1478,1849 1478,1850 
	1476,1850 1476,1851 1474,1851 1474,1852 1471,1852 1471,1853 1462,1853 1462,1854 1453,1854 1453,1855 1444,1855 1444,1856 
	1435,1856 1435,1857 1435,1856 1433,1856 1433,1857 1425,1857 1425,1858 1419,1858 1419,1859 1415,1859 1415,1860 1411,1860 
	1411,1861 1407,1861 1407,1862 1404,1862 1404,1863 1401,1863 1401,1864 1398,1864 1398,1865 1395,1865 1395,1866 1393,1866 
	1393,1867 1390,1867 1390,1868 1388,1868 1388,1869 1386,1869 1386,1870 1384,1870 1384,1871 1382,1871 1382,1872 1380,1872 
	1380,1873 1378,1873 1378,1874 1377,1874 1377,1875 1375,1875 1375,1876 1373,1876 1373,1877 1372,1877 1372,1878 1370,1878 
	1370,1879 1369,1879 1369,1880 1367,1880 1367,1881 1366,1881 1366,1882 1364,1882 1364,1883 1363,1883 1363,1884 1362,1884 
	1362,1885 1360,1885 1360,1886 1359,1886 1359,1887 1358,1887 1358,1888 1357,1888 1357,1889 1355,1889 1355,1890 1354,1890 
	1354,1891 1353,1891 1353,1892 1352,1892 1352,1893 1351,1893 1351,1894 1350,1894 1350,1895 1349,1895 1349,1896 1348,1896 
	1348,1897 1347,1897 1347,1898 1346,1898 1346,1899 1345,1899 1345,1900 1344,1900 1344,1901 1343,1901 1343,1902 1342,1902 
	1342,1903 1341,1903 1341,1904 1340,1904 1340,1906 1339,1906 1339,1907 1338,1907 1338,1908 1337,1908 1337,1909 1336,1909 
	1336,1911 1335,1911 1335,1912 1334,1912 1334,1913 1333,1913 1333,1915 1332,1915 1332,1916 1331,1916 1331,1917 1329,1917 
	1329,1918 1327,1918 1327,1919 1319,1919 1319,1918 1317,1918 1317,1917 1316,1917 1316,1916 1314,1916 1314,1914 1313,1914 
	1313,1913 1312,1913 1312,1911 1311,1911 1311,1907 1310,1907 1310,1902 1309,1902 1309,1897 1308,1897 1308,1893 1307,1893 
	1307,1888 1306,1888 1306,1883 1305,1883 1305,1879 1304,1879 1304,1874 1303,1874 1303,1869 1302,1869 1302,1865 1301,1865 
	1301,1860 1300,1860 1300,1855 1299,1855 1299,1851 1298,1851 1298,1846 1297,1846 1297,1841 1296,1841 1296,1837 1295,1837 
	1295,1832 1294,1832 1294,1827 1293,1827 1293,1822 1292,1822 1292,1817 1291,1817 1291,1811 1290,1811 1290,1805 1289,1805 
	1289,1800 1288,1800 1288,1794 1287,1794 1287,1788 1286,1788 1286,1783 1285,1783 1285,1777 1284,1777 1284,1772 1283,1772 
	1283,1766 1282,1766 1282,1760 1281,1760 1281,1755 1280,1755 1280,1749 1279,1749 1279,1743 1278,1743 1278,1742 1281,1742 
	1281,1741 1284,1741 1284,1740 1286,1740 1286,1739 1289,1739 1289,1738 1292,1738 1292,1737 1295,1737 1295,1736 1297,1736 
	1297,1735 1300,1735 1300,1734 1303,1734 1303,1733 1305,1733 1305,1732 1308,1732 1308,1731 1311,1731 1311,1730 1313,1730 
	1313,1729 1316,1729 1316,1728 1319,1728 1319,1727 1322,1727 1322,1726 1324,1726 1324,1725 1327,1725 1327,1724 1330,1724 
	1330,1723 1332,1723 1332,1722 1335,1722 1335,1721 1338,1721 1338,1720 1340,1720 1340,1719 1343,1719 1343,1718 1346,1718 
	1346,1717 1348,1717 1348,1716 1351,1716 1351,1715 1354,1715 1354,1714 1357,1714 1357,1713 1359,1713 1359,1712 1362,1712 
	1362,1711 1365,1711 1365,1710 1367,1710 1367,1709 1370,1709 1370,1708 1373,1708 1373,1707 1374,1707 1374,1708 1379,1708 
	1379,1709 1383,1709 1383,1710 1387,1710 1387,1711 1391,1711 1391,1712 1394,1712 1394,1713 1398,1713 1398,1714 "/>
<path id="R203_x2C__R204_x2C__R205" d="M1917.1,1504.4c-51.1-136.1-102.1-272.1-153.2-408.2c125.3-47.4,250.6-94.8,375.9-142.2
	c7.6,13.9,15.1,27.7,22.7,41.6c0.1,7.3,1.8,12.5,3.3,15.8c1.9,4.1,3.2,4.8,6.6,11.7c2.7,5.5,2.4,6,4.6,9.7c1.8,2.9,3.7,5.3,6.9,9.4
	c2.4,3.1,4.3,5.3,4.3,5.4c3.5,4.2,22.8,52.1,71.6,183c3.7,11.5,7.2,23.5,10.6,36.1c2.1,7.9,10.4,40.3,17,85.8
	c2.1,14.5,3.5,26.8,4.4,35.7c0.7,15.1,1.4,30.2,2,45.3c-3.3,9.8-4.6,18.2-5.1,24.2c-1.1,11.7,0.1,21.5,0.7,25.9
	c1.4,10.1,3.1,11.7,3.1,19.1c0,4.7-0.7,9.9-3.7,19.4c-3.1,9.5-7,21.5-16.3,35.4c-3.1,4.6-13.8,19.9-33.4,33.4
	c-7.7,5.3-14.6,8.9-19.7,11.2c-81.7,30.4-163.4,60.8-245.1,91.2c-4.1,0.4-8.4,1-12.9,1.7c-6.4,1-12.3,2.3-17.7,3.7
	c-6.7,3.2-13.4,6.4-20.1,9.5c-2.3,2.4-4.5,4.8-6.8,7.1c-65,24.3-130,48.6-195.1,72.9c-3.4,1.4-8.5,3-14.6,2.4
	c-9.6-1-16.1-6.8-18.7-9.2c-15.8-13.9-34.4-24.1-51.4-36.4c-5-3.6-18-11.1-43.9-26.2c-19.6-11.5-26.5-15.2-33.4-18.7
	c-12.9-6.6-22.8-10.9-33.7-15.7c-11.5-5-26.7-11.3-44.9-18C1626.4,1612.4,1771.7,1558.4,1917.1,1504.4z"/>
<polygon id="R206" points="1823,752 1823,751 1827,751 1827,750 1831,750 1831,749 1835,749 1835,748 1839,748 1839,747 1843,747 
	1843,746 1848,746 1848,745 1852,745 1852,744 1857,744 1857,743 1861,743 1861,742 1866,742 1866,741 1871,741 1871,740 1876,740 
	1876,739 1881,739 1881,738 1887,738 1887,737 1892,737 1892,736 1898,736 1898,735 1904,735 1904,734 1910,734 1910,733 1916,733 
	1916,732 1923,732 1923,731 1930,731 1930,730 1938,730 1938,729 1946,729 1946,728 1955,728 1955,727 1965,727 1965,726 1975,726 
	1975,725 1978,725 1978,726 1981,726 1981,727 1983,727 1983,728 1984,728 1984,729 1985,729 1985,730 1986,730 1986,731 1987,731 
	1986,731 1986,733 1987,733 1987,735 1988,735 1988,737 1989,737 1989,738 1990,738 1990,740 1991,740 1991,742 1992,742 1992,743 
	1993,743 1993,745 1994,745 1994,746 1995,746 1995,748 1996,748 1996,750 1997,750 1997,751 1998,751 1998,753 1999,753 1999,755 
	2000,755 2000,756 2001,756 2001,758 2002,758 2002,760 2003,760 2003,761 2004,761 2004,763 2005,763 2005,764 2006,764 2006,766 
	2007,766 2007,768 2008,768 2008,769 2009,769 2009,771 2010,771 2010,772 2011,772 2011,774 2012,774 2012,775 2013,775 2013,776 
	2014,776 2014,778 2015,778 2015,779 2016,779 2016,781 2017,781 2017,782 2018,782 2018,783 2019,783 2019,785 2020,785 2020,786 
	2021,786 2021,788 2022,788 2022,789 2023,789 2023,790 2024,790 2024,792 2025,792 2025,793 2026,793 2026,795 2027,795 2027,796 
	2028,796 2028,797 2029,797 2029,799 2030,799 2030,800 2031,800 2031,801 2032,801 2032,803 2033,803 2033,804 2034,804 2034,806 
	2035,806 2035,807 2036,807 2036,812 2039,812 2039,810 2039,811 2040,811 2040,813 2041,813 2041,814 2042,814 2042,815 2043,815 
	2043,816 2044,816 2044,818 2045,818 2045,819 2046,819 2046,820 2047,820 2047,821 2048,821 2048,823 2049,823 2049,824 2050,824 
	2050,825 2051,825 2051,826 2052,826 2052,828 2053,828 2053,829 2054,829 2054,830 2055,830 2055,831 2056,831 2056,833 2057,833 
	2057,834 2058,834 2058,835 2059,835 2059,836 2060,836 2060,838 2061,838 2061,839 2062,839 2062,840 2063,840 2063,842 2064,842 
	2064,843 2065,843 2065,844 2066,844 2066,846 2067,846 2067,847 2068,847 2068,848 2069,848 2069,850 2070,850 2070,851 2071,851 
	2071,852 2072,852 2072,854 2073,854 2073,855 2074,855 2074,856 2075,856 2075,858 2076,858 2076,859 2077,859 2077,860 2078,860 
	2078,862 2079,862 2079,863 2080,863 2080,864 2081,864 2081,866 2082,866 2082,867 2083,867 2083,869 2084,869 2084,870 2085,870 
	2085,871 2086,871 2086,873 2087,873 2087,874 2088,874 2088,876 2089,876 2089,877 2090,877 2090,879 2091,879 2091,880 2092,880 
	2092,881 2093,881 2093,883 2094,883 2094,884 2095,884 2095,886 2096,886 2096,887 2097,887 2097,889 2098,889 2098,890 2099,890 
	2099,892 2100,892 2100,893 2101,893 2101,894 2102,894 2102,896 2103,896 2103,897 2104,897 2104,899 2105,899 2105,900 2106,900 
	2106,902 2107,902 2107,903 2108,903 2108,905 2109,905 2109,907 2110,907 2110,908 2111,908 2111,910 2112,910 2112,911 2113,911 
	2113,913 2114,913 2114,914 2115,914 2115,916 2116,916 2116,917 2117,917 2117,919 2118,919 2118,920 2119,920 2119,922 2120,922 
	2120,924 2121,924 2121,925 2122,925 2122,927 2123,927 2123,928 2124,928 2124,930 2125,930 2125,932 2126,932 2126,933 2127,933 
	2127,935 2128,935 2128,937 2129,937 2129,938 2130,938 2130,940 2131,940 2131,941 2132,941 2132,943 2133,943 2133,945 2134,945 
	2134,947 2135,947 2135,948 2136,948 2136,950 2137,950 2137,952 2138,952 2136,952 2136,953 2134,953 2134,954 2131,954 2131,955 
	2128,955 2128,956 2126,956 2126,957 2123,957 2123,958 2120,958 2120,959 2118,959 2118,960 2115,960 2115,961 2113,961 2113,962 
	2110,962 2110,963 2107,963 2107,964 2105,964 2105,965 2102,965 2102,966 2099,966 2099,967 2097,967 2097,968 2094,968 2094,969 
	2091,969 2091,970 2089,970 2089,971 2086,971 2086,972 2084,972 2084,973 2081,973 2081,974 2078,974 2078,975 2076,975 2076,976 
	2073,976 2073,977 2070,977 2070,978 2068,978 2068,979 2065,979 2065,980 2062,980 2062,981 2060,981 2060,982 2057,982 2057,983 
	2054,983 2054,984 2052,984 2052,985 2049,985 2049,986 2047,986 2047,987 2044,987 2044,988 2041,988 2041,989 2039,989 2039,990 
	2036,990 2036,991 2033,991 2033,992 2031,992 2031,993 2028,993 2028,994 2025,994 2025,995 2023,995 2023,996 2020,996 2020,997 
	2018,997 2018,998 2015,998 2015,999 2012,999 2012,1000 2010,1000 2010,1001 2007,1001 2007,1002 2004,1002 2004,1003 2002,1003 
	2002,1004 1999,1004 1999,1005 1996,1005 1996,1006 1994,1006 1994,1007 1991,1007 1991,1008 1989,1008 1989,1009 1986,1009 
	1986,1010 1983,1010 1983,1011 1981,1011 1981,1012 1978,1012 1978,1013 1975,1013 1975,1014 1973,1014 1973,1015 1970,1015 
	1970,1016 1967,1016 1967,1017 1965,1017 1965,1018 1962,1018 1962,1019 1959,1019 1959,1020 1957,1020 1957,1021 1954,1021 
	1954,1022 1952,1022 1952,1023 1949,1023 1949,1024 1946,1024 1946,1025 1944,1025 1944,1026 1941,1026 1941,1027 1938,1027 
	1938,1028 1936,1028 1936,1029 1933,1029 1933,1030 1930,1030 1930,1031 1928,1031 1928,1032 1925,1032 1925,1033 1923,1033 
	1923,1034 1920,1034 1920,1035 1917,1035 1917,1036 1915,1036 1915,1037 1912,1037 1912,1038 1909,1038 1909,1039 1907,1039 
	1907,1040 1904,1040 1904,1041 1901,1041 1901,1042 1899,1042 1899,1043 1896,1043 1896,1044 1893,1044 1893,1045 1891,1045 
	1891,1046 1888,1046 1888,1047 1886,1047 1886,1048 1883,1048 1883,1049 1880,1049 1880,1050 1878,1050 1878,1051 1875,1051 
	1875,1052 1872,1052 1872,1053 1870,1053 1870,1054 1867,1054 1867,1055 1864,1055 1864,1056 1862,1056 1862,1057 1859,1057 
	1859,1058 1857,1058 1857,1059 1854,1059 1854,1060 1851,1060 1851,1061 1849,1061 1849,1062 1846,1062 1846,1063 1843,1063 
	1843,1064 1841,1064 1841,1065 1838,1065 1838,1066 1835,1066 1835,1067 1833,1067 1833,1068 1830,1068 1830,1069 1828,1069 
	1828,1070 1825,1070 1825,1071 1822,1071 1822,1072 1820,1072 1820,1073 1817,1073 1817,1074 1814,1074 1814,1075 1812,1075 
	1812,1076 1809,1076 1809,1077 1806,1077 1806,1078 1804,1078 1804,1079 1801,1079 1801,1080 1798,1080 1798,1081 1796,1081 
	1796,1082 1793,1082 1793,1083 1791,1083 1791,1084 1788,1084 1788,1085 1785,1085 1785,1086 1783,1086 1783,1087 1780,1087 
	1780,1088 1777,1088 1777,1089 1775,1089 1775,1090 1772,1090 1772,1091 1769,1091 1769,1092 1767,1092 1767,1093 1764,1093 
	1764,1094 1763,1094 1763,1091 1762,1091 1762,1089 1761,1089 1761,1086 1760,1086 1760,1083 1759,1083 1759,1081 1758,1081 
	1758,1078 1757,1078 1757,1075 1756,1075 1756,1073 1755,1073 1755,1070 1754,1070 1754,1067 1753,1067 1753,1065 1752,1065 
	1752,1062 1751,1062 1751,1059 1750,1059 1750,1057 1749,1057 1749,1054 1748,1054 1748,1051 1747,1051 1747,1049 1746,1049 
	1746,1046 1745,1046 1745,1043 1744,1043 1744,1041 1743,1041 1743,1038 1742,1038 1742,1035 1741,1035 1741,1033 1740,1033 
	1740,1030 1739,1030 1739,1027 1738,1027 1738,1025 1737,1025 1737,1022 1736,1022 1736,1019 1735,1019 1735,1017 1734,1017 
	1734,1014 1733,1014 1733,1011 1732,1011 1732,1009 1731,1009 1731,1006 1730,1006 1730,1003 1729,1003 1729,1001 1728,1001 
	1728,998 1727,998 1727,995 1726,995 1726,993 1725,993 1725,990 1724,990 1724,987 1723,987 1723,985 1722,985 1722,982 1721,982 
	1721,979 1720,979 1720,977 1719,977 1719,974 1718,974 1718,972 1717,972 1717,969 1716,969 1716,966 1715,966 1715,964 1714,964 
	1714,961 1713,961 1713,958 1712,958 1712,956 1711,956 1711,953 1710,953 1710,950 1709,950 1709,948 1708,948 1708,945 1707,945 
	1707,943 1706,943 1706,940 1705,940 1705,937 1704,937 1704,935 1703,935 1703,932 1702,932 1702,929 1701,929 1701,927 1700,927 
	1700,924 1699,924 1699,921 1698,921 1698,919 1697,919 1697,916 1696,916 1696,914 1695,914 1695,911 1694,911 1694,908 1693,908 
	1693,906 1692,906 1692,903 1691,903 1691,900 1690,900 1690,898 1689,898 1689,895 1688,895 1688,892 1687,892 1687,890 1686,890 
	1686,887 1685,887 1685,885 1684,885 1684,882 1683,882 1683,879 1682,879 1682,877 1681,877 1681,874 1680,874 1680,871 1679,871 
	1679,869 1678,869 1678,866 1677,866 1677,864 1676,864 1676,861 1675,861 1675,858 1674,858 1674,856 1673,856 1673,853 1672,853 
	1672,850 1671,850 1671,848 1670,848 1670,845 1669,845 1669,842 1668,842 1668,840 1667,840 1667,837 1666,837 1666,835 1665,835 
	1665,832 1664,832 1664,829 1663,829 1663,827 1662,827 1662,824 1661,824 1661,821 1660,821 1660,819 1659,819 1659,816 1658,816 
	1658,814 1657,814 1657,811 1659,811 1659,810 1661,810 1661,809 1664,809 1664,808 1666,808 1666,807 1668,807 1668,806 1670,806 
	1670,805 1672,805 1672,804 1675,804 1675,803 1677,803 1677,802 1679,802 1679,801 1681,801 1681,800 1684,800 1684,799 1686,799 
	1686,798 1688,798 1688,797 1691,797 1691,796 1693,796 1693,795 1695,795 1695,794 1698,794 1698,793 1700,793 1700,792 1703,792 
	1703,791 1705,791 1705,790 1707,790 1707,789 1710,789 1710,788 1712,788 1712,787 1715,787 1715,786 1718,786 1718,785 1720,785 
	1720,784 1723,784 1723,783 1725,783 1725,782 1728,782 1728,781 1731,781 1731,780 1733,780 1733,779 1736,779 1736,778 1739,778 
	1739,777 1742,777 1742,776 1744,776 1744,775 1747,775 1747,774 1750,774 1750,773 1753,773 1753,772 1756,772 1756,771 1759,771 
	1759,770 1762,770 1762,769 1765,769 1765,768 1768,768 1768,767 1771,767 1771,766 1774,766 1774,765 1777,765 1777,764 1781,764 
	1781,763 1784,763 1784,762 1787,762 1787,761 1791,761 1791,760 1794,760 1794,759 1797,759 1797,758 1801,758 1801,757 1804,757 
	1804,756 1808,756 1808,755 1812,755 1812,754 1815,754 1815,753 1819,753 1819,752 "/>
<polygon id="R207" points="1647,384 1647,383 1650,383 1650,382 1653,382 1653,381 1656,381 1656,380 1659,380 1659,379 1662,379 
	1662,378 1665,378 1665,377 1668,377 1668,376 1671,376 1671,375 1674,375 1674,374 1677,374 1677,373 1680,373 1680,372 1683,372 
	1683,371 1686,371 1686,370 1689,370 1689,369 1692,369 1692,368 1695,368 1695,367 1698,367 1698,366 1701,366 1701,365 1705,365 
	1705,364 1708,364 1708,363 1711,363 1711,362 1714,362 1714,361 1717,361 1717,360 1720,360 1720,359 1723,359 1723,358 1726,358 
	1726,357 1729,357 1729,356 1732,356 1732,355 1735,355 1735,354 1738,354 1738,353 1741,353 1741,352 1744,352 1744,351 1747,351 
	1747,350 1750,350 1750,349 1753,349 1753,348 1756,348 1756,347 1759,347 1759,346 1763,346 1763,345 1766,345 1766,344 1769,344 
	1769,343 1772,343 1772,342 1775,342 1775,341 1778,341 1778,340 1781,340 1781,339 1784,339 1784,338 1787,338 1787,337 1790,337 
	1790,336 1793,336 1793,335 1796,335 1796,334 1799,334 1799,333 1802,333 1802,332 1805,332 1805,331 1808,331 1808,330 1811,330 
	1811,329 1814,329 1814,328 1817,328 1817,327 1820,327 1820,326 1824,326 1824,325 1827,325 1827,324 1830,324 1830,323 1833,323 
	1833,322 1836,322 1836,321 1839,321 1839,320 1842,320 1842,319 1845,319 1845,318 1848,318 1848,317 1851,317 1851,316 1854,316 
	1854,315 1857,315 1857,314 1860,314 1860,313 1860,314 1861,314 1861,317 1862,317 1862,320 1863,320 1863,323 1864,323 1864,325 
	1865,325 1865,328 1866,328 1866,331 1867,331 1867,334 1868,334 1868,337 1869,337 1869,340 1870,340 1870,343 1871,343 1871,346 
	1872,346 1872,349 1873,349 1873,352 1874,352 1874,355 1875,355 1875,359 1876,359 1876,362 1877,362 1877,365 1878,365 1878,369 
	1879,369 1879,372 1880,372 1880,376 1881,376 1881,379 1882,379 1882,383 1883,383 1883,386 1884,386 1884,390 1885,390 1885,394 
	1886,394 1886,398 1887,398 1887,402 1888,402 1888,406 1889,406 1889,410 1890,410 1890,414 1891,414 1891,418 1892,418 1892,423 
	1893,423 1893,427 1894,427 1894,432 1895,432 1895,437 1896,437 1896,442 1897,442 1897,447 1898,447 1898,452 1899,452 1899,458 
	1900,458 1900,463 1901,463 1901,469 1902,469 1902,476 1903,476 1903,483 1904,483 1904,489 1905,489 1905,495 1906,495 1906,501 
	1907,501 1907,506 1908,506 1908,512 1909,512 1909,517 1910,517 1910,522 1911,522 1911,527 1912,527 1912,532 1913,532 1913,536 
	1914,536 1914,541 1915,541 1915,546 1916,546 1916,550 1917,550 1917,555 1918,555 1918,558 1919,558 1919,562 1920,562 1920,566 
	1921,566 1921,570 1922,570 1922,574 1923,574 1923,578 1924,578 1924,582 1925,582 1925,586 1926,586 1926,590 1927,590 1927,599 
	1928,599 1928,607 1929,607 1929,611 1930,611 1930,615 1931,615 1931,618 1932,618 1932,621 1933,621 1933,624 1934,624 1934,627 
	1935,627 1935,629 1936,629 1936,631 1937,631 1937,633 1938,633 1938,635 1939,635 1939,637 1940,637 1940,638 1941,638 1941,640 
	1942,640 1942,642 1944,642 1944,644 1945,644 1945,646 1946,646 1946,649 1947,649 1947,652 1948,652 1948,655 1949,655 1949,657 
	1950,657 1950,659 1951,659 1951,662 1952,662 1952,664 1953,664 1953,667 1954,667 1954,668 1955,668 1955,674 1954,674 1954,676 
	1953,676 1953,678 1952,678 1952,679 1951,679 1951,680 1950,680 1950,681 1949,681 1949,682 1947,682 1947,683 1942,683 1942,684 
	1934,684 1934,685 1926,685 1926,686 1918,686 1918,687 1911,687 1911,688 1905,688 1905,689 1898,689 1898,690 1892,690 1892,691 
	1887,691 1887,692 1881,692 1881,693 1875,693 1875,694 1870,694 1870,695 1865,695 1865,696 1860,696 1860,697 1855,697 1855,698 
	1850,698 1850,699 1846,699 1846,700 1841,700 1841,701 1837,701 1837,702 1832,702 1832,703 1828,703 1828,704 1824,704 1824,705 
	1820,705 1820,706 1816,706 1816,707 1812,707 1812,708 1808,708 1808,709 1804,709 1804,710 1800,710 1800,711 1797,711 1797,712 
	1793,712 1793,713 1790,713 1790,714 1786,714 1786,715 1783,715 1783,716 1779,716 1779,717 1776,717 1776,718 1772,718 1772,719 
	1769,719 1769,720 1766,720 1766,721 1763,721 1763,722 1759,722 1759,723 1756,723 1756,724 1753,724 1753,725 1750,725 1750,726 
	1747,726 1747,727 1744,727 1744,728 1741,728 1741,729 1738,729 1738,730 1735,730 1735,731 1732,731 1732,732 1729,732 1729,733 
	1727,733 1727,734 1724,734 1724,735 1721,735 1721,736 1718,736 1718,737 1716,737 1716,738 1713,738 1713,739 1710,739 1710,740 
	1708,740 1708,741 1705,741 1705,742 1702,742 1702,743 1700,743 1700,744 1697,744 1697,745 1695,745 1695,746 1692,746 1692,747 
	1690,747 1690,748 1687,748 1687,749 1685,749 1685,750 1682,750 1682,751 1680,751 1680,752 1678,752 1678,753 1675,753 1675,754 
	1673,754 1673,755 1670,755 1670,756 1668,756 1668,757 1666,757 1666,758 1663,758 1663,759 1661,759 1661,760 1659,760 1659,761 
	1657,761 1657,762 1654,762 1654,763 1652,763 1652,764 1650,764 1650,765 1648,765 1648,766 1646,766 1646,767 1643,767 1643,768 
	1641,768 1641,769 1640,769 1640,766 1639,766 1639,764 1638,764 1638,761 1637,761 1637,758 1636,758 1636,756 1635,756 1635,753 
	1634,753 1634,750 1633,750 1633,748 1632,748 1632,745 1631,745 1631,743 1630,743 1630,740 1629,740 1629,737 1628,737 1628,735 
	1627,735 1627,732 1626,732 1626,729 1625,729 1625,727 1624,727 1624,724 1623,724 1623,722 1622,722 1622,719 1621,719 1621,716 
	1620,716 1620,714 1619,714 1619,711 1618,711 1618,708 1617,708 1617,706 1616,706 1616,703 1615,703 1615,701 1614,701 1614,698 
	1613,698 1613,695 1612,695 1612,693 1611,693 1611,690 1610,690 1610,687 1609,687 1609,685 1608,685 1608,682 1607,682 1607,679 
	1606,679 1606,677 1605,677 1605,674 1604,674 1604,672 1603,672 1603,669 1602,669 1602,666 1601,666 1601,664 1600,664 1600,661 
	1599,661 1599,658 1598,658 1598,656 1597,656 1597,653 1596,653 1596,651 1595,651 1595,648 1594,648 1594,645 1593,645 1593,643 
	1592,643 1592,640 1591,640 1591,637 1590,637 1590,635 1589,635 1589,632 1588,632 1588,630 1587,630 1587,627 1586,627 1586,624 
	1585,624 1585,622 1584,622 1584,619 1583,619 1583,616 1582,616 1582,614 1581,614 1581,611 1580,611 1580,609 1579,609 1579,606 
	1578,606 1578,603 1577,603 1577,601 1576,601 1576,598 1575,598 1575,595 1574,595 1574,593 1573,593 1573,590 1572,590 1572,588 
	1571,588 1571,585 1570,585 1570,582 1569,582 1569,580 1568,580 1568,577 1567,577 1567,574 1566,574 1566,572 1565,572 1565,569 
	1564,569 1564,567 1563,567 1563,564 1562,564 1562,561 1561,561 1561,559 1560,559 1560,556 1559,556 1559,553 1558,553 1558,551 
	1557,551 1557,548 1556,548 1556,546 1555,546 1555,543 1554,543 1554,540 1553,540 1553,538 1552,538 1552,535 1551,535 1551,533 
	1550,533 1550,530 1549,530 1549,527 1548,527 1548,525 1547,525 1547,522 1546,522 1546,520 1545,520 1545,517 1544,517 1544,514 
	1543,514 1543,512 1542,512 1542,509 1541,509 1541,507 1540,507 1540,504 1539,504 1539,501 1538,501 1538,499 1537,499 1537,496 
	1536,496 1536,494 1535,494 1535,491 1534,491 1534,488 1533,488 1533,486 1532,486 1532,483 1531,483 1531,481 1530,481 1530,478 
	1529,478 1529,475 1528,475 1528,473 1527,473 1527,470 1526,470 1526,468 1525,468 1525,465 1524,465 1524,462 1523,462 1523,460 
	1522,460 1522,457 1521,457 1521,455 1520,455 1520,452 1519,452 1519,449 1518,449 1518,447 1517,447 1517,444 1516,444 1516,442 
	1515,442 1515,439 1514,439 1514,436 1513,436 1513,434 1512,434 1512,431 1511,431 1511,429 1510,429 1510,428 1512,428 1512,427 
	1515,427 1515,426 1518,426 1518,425 1521,425 1521,424 1524,424 1524,423 1528,423 1528,422 1531,422 1531,421 1534,421 1534,420 
	1537,420 1537,419 1540,419 1540,418 1543,418 1543,417 1546,417 1546,416 1549,416 1549,415 1552,415 1552,414 1555,414 1555,413 
	1558,413 1558,412 1561,412 1561,411 1564,411 1564,410 1567,410 1567,409 1570,409 1570,408 1573,408 1573,407 1576,407 1576,406 
	1579,406 1579,405 1582,405 1582,404 1586,404 1586,403 1589,403 1589,402 1592,402 1592,401 1595,401 1595,400 1598,400 1598,399 
	1601,399 1601,398 1604,398 1604,397 1607,397 1607,396 1610,396 1610,395 1613,395 1613,394 1616,394 1616,393 1619,393 1619,392 
	1622,392 1622,391 1625,391 1625,390 1628,390 1628,389 1631,389 1631,388 1634,388 1634,387 1637,387 1637,386 1640,386 1640,385 
	1643,385 1643,384 "/>
<polygon id="R208" points="1581,160 1581,159 1583,159 1583,158 1584,158 1584,157 1586,157 1586,156 1587,156 1587,155 1589,155 
	1589,154 1590,154 1590,153 1592,153 1592,152 1593,152 1593,151 1595,151 1595,150 1596,150 1596,149 1598,149 1598,148 1599,148 
	1599,147 1601,147 1601,146 1602,146 1602,145 1604,145 1604,144 1605,144 1605,143 1607,143 1607,142 1609,142 1609,141 1610,141 
	1610,140 1612,140 1612,139 1613,139 1613,138 1615,138 1615,137 1616,137 1616,136 1618,136 1618,135 1619,135 1619,134 1621,134 
	1621,133 1622,133 1622,132 1624,132 1624,131 1625,131 1625,130 1627,130 1627,129 1628,129 1628,128 1630,128 1630,127 1632,127 
	1632,126 1633,126 1633,125 1635,125 1635,124 1636,124 1636,123 1638,123 1638,122 1639,122 1639,121 1641,121 1641,120 1642,120 
	1642,119 1644,119 1644,118 1645,118 1645,117 1647,117 1647,116 1648,116 1648,115 1650,115 1650,114 1651,114 1651,113 1653,113 
	1653,112 1654,112 1654,111 1656,111 1656,110 1658,110 1658,109 1659,109 1659,108 1661,108 1661,107 1662,107 1662,106 1664,106 
	1664,105 1665,105 1665,104 1667,104 1667,103 1668,103 1668,102 1670,102 1670,101 1671,101 1671,100 1673,100 1673,99 1674,99 
	1674,98 1676,98 1676,97 1676,98 1677,98 1677,100 1678,100 1678,102 1679,102 1679,104 1680,104 1680,106 1681,106 1681,109 
	1682,109 1682,110 1683,110 1683,111 1684,111 1684,113 1685,113 1685,114 1686,114 1686,116 1687,116 1687,117 1688,117 1688,119 
	1689,119 1689,120 1690,120 1690,121 1691,121 1691,123 1692,123 1692,124 1693,124 1693,125 1694,125 1694,126 1695,126 1695,128 
	1696,128 1696,129 1697,129 1697,130 1698,130 1698,131 1699,131 1699,132 1700,132 1700,133 1701,133 1701,134 1702,134 1702,135 
	1703,135 1703,136 1704,136 1704,137 1705,137 1705,138 1706,138 1706,139 1707,139 1707,140 1708,140 1708,141 1709,141 1709,142 
	1711,142 1711,143 1712,143 1712,144 1713,144 1713,145 1715,145 1715,146 1716,146 1716,147 1717,147 1717,148 1719,148 1719,149 
	1720,149 1720,150 1722,150 1722,151 1723,151 1723,152 1725,152 1725,153 1726,153 1726,154 1728,154 1728,155 1729,155 1729,156 
	1731,156 1731,157 1734,157 1734,158 1736,158 1736,159 1738,159 1738,160 1739,160 1739,161 1741,161 1741,162 1743,162 1743,163 
	1744,163 1744,164 1746,164 1746,165 1748,165 1748,166 1749,166 1749,167 1751,167 1751,168 1752,168 1752,169 1754,169 1754,170 
	1755,170 1755,171 1757,171 1757,172 1758,172 1758,173 1760,173 1760,174 1761,174 1761,175 1762,175 1762,176 1764,176 1764,177 
	1765,177 1765,178 1766,178 1766,179 1768,179 1768,180 1769,180 1769,181 1770,181 1770,182 1772,182 1772,183 1773,183 1773,184 
	1774,184 1774,185 1775,185 1775,186 1776,186 1776,187 1778,187 1778,188 1779,188 1779,189 1780,189 1780,190 1781,190 1781,191 
	1782,191 1782,192 1783,192 1783,193 1784,193 1784,194 1785,194 1785,195 1787,195 1787,196 1788,196 1788,197 1789,197 1789,198 
	1790,198 1790,199 1791,199 1791,200 1792,200 1792,201 1793,201 1793,202 1794,202 1794,203 1795,203 1795,204 1796,204 1796,205 
	1797,205 1797,206 1798,206 1798,207 1799,207 1799,208 1800,208 1800,210 1801,210 1801,211 1802,211 1802,212 1803,212 1803,213 
	1804,213 1804,214 1805,214 1805,215 1806,215 1806,216 1807,216 1807,218 1808,218 1808,219 1809,219 1809,220 1810,220 1810,221 
	1811,221 1811,222 1812,222 1812,224 1813,224 1813,225 1814,225 1814,226 1815,226 1815,227 1816,227 1816,229 1817,229 1817,230 
	1818,230 1818,231 1819,231 1819,233 1820,233 1820,234 1821,234 1821,236 1822,236 1822,237 1823,237 1823,239 1824,239 1824,240 
	1825,240 1825,241 1826,241 1826,243 1827,243 1827,245 1828,245 1828,246 1829,246 1829,248 1830,248 1830,249 1831,249 1831,251 
	1832,251 1832,253 1833,253 1833,254 1834,254 1834,256 1835,256 1835,258 1836,258 1836,260 1837,260 1837,261 1838,261 1838,263 
	1839,263 1839,265 1840,265 1840,267 1841,267 1841,269 1842,269 1842,271 1843,271 1843,273 1844,273 1844,275 1845,275 1845,277 
	1846,277 1846,280 1847,280 1847,282 1848,282 1848,284 1849,284 1849,287 1850,287 1850,289 1851,289 1851,291 1852,291 1852,294 
	1853,294 1853,296 1854,296 1854,299 1855,299 1855,301 1856,301 1856,304 1857,304 1857,306 1858,306 1858,309 1859,309 1859,311 
	1858,311 1858,312 1855,312 1855,313 1852,313 1852,314 1849,314 1849,315 1846,315 1846,316 1843,316 1843,317 1840,317 1840,318 
	1837,318 1837,319 1834,319 1834,320 1831,320 1831,321 1828,321 1828,322 1825,322 1825,323 1822,323 1822,324 1818,324 1818,325 
	1815,325 1815,326 1812,326 1812,327 1809,327 1809,328 1806,328 1806,329 1803,329 1803,330 1800,330 1800,331 1797,331 1797,332 
	1794,332 1794,333 1791,333 1791,334 1788,334 1788,335 1785,335 1785,336 1782,336 1782,337 1779,337 1779,338 1776,338 1776,339 
	1773,339 1773,340 1770,340 1770,341 1767,341 1767,342 1764,342 1764,343 1761,343 1761,344 1757,344 1757,345 1754,345 1754,346 
	1751,346 1751,347 1748,347 1748,348 1745,348 1745,349 1742,349 1742,350 1739,350 1739,351 1736,351 1736,352 1733,352 1733,353 
	1730,353 1730,354 1727,354 1727,355 1724,355 1724,356 1721,356 1721,357 1718,357 1718,358 1715,358 1715,359 1712,359 1712,360 
	1709,360 1709,361 1706,361 1706,362 1703,362 1703,363 1699,363 1699,364 1696,364 1696,365 1693,365 1693,366 1690,366 1690,367 
	1687,367 1687,368 1684,368 1684,369 1681,369 1681,370 1678,370 1678,371 1675,371 1675,372 1672,372 1672,373 1669,373 1669,374 
	1666,374 1666,375 1663,375 1663,376 1660,376 1660,377 1657,377 1657,378 1654,378 1654,379 1651,379 1651,380 1648,380 1648,381 
	1645,381 1645,382 1641,382 1641,383 1638,383 1638,384 1635,384 1635,385 1632,385 1632,386 1629,386 1629,387 1626,387 1626,388 
	1623,388 1623,389 1620,389 1620,390 1617,390 1617,391 1614,391 1614,392 1611,392 1611,393 1608,393 1608,394 1605,394 1605,395 
	1602,395 1602,396 1599,396 1599,397 1596,397 1596,398 1593,398 1593,399 1590,399 1590,400 1587,400 1587,401 1584,401 1584,402 
	1580,402 1580,403 1577,403 1577,404 1574,404 1574,405 1571,405 1571,406 1568,406 1568,407 1565,407 1565,408 1562,408 1562,409 
	1559,409 1559,410 1556,410 1556,411 1553,411 1553,412 1550,412 1550,413 1547,413 1547,414 1544,414 1544,415 1541,415 1541,416 
	1538,416 1538,417 1535,417 1535,418 1532,418 1532,419 1529,419 1529,420 1526,420 1526,421 1522,421 1522,422 1519,422 1519,423 
	1516,423 1516,424 1513,424 1513,425 1510,425 1510,426 1506,426 1506,427 1503,427 1503,428 1500,428 1500,429 1497,429 1497,430 
	1494,430 1494,431 1491,431 1491,432 1488,432 1488,433 1485,433 1485,434 1482,434 1482,435 1478,435 1478,436 1475,436 1475,437 
	1472,437 1472,438 1469,438 1469,439 1466,439 1466,440 1463,440 1463,441 1460,441 1460,442 1457,442 1457,443 1454,443 1454,444 
	1451,444 1451,445 1448,445 1448,446 1445,446 1445,447 1441,447 1441,448 1438,448 1438,449 1435,449 1435,450 1432,450 1432,451 
	1429,451 1429,452 1426,452 1426,453 1423,453 1423,454 1420,454 1420,455 1418,455 1418,454 1417,454 1417,453 1416,453 1416,451 
	1415,451 1415,449 1414,449 1414,448 1413,448 1413,446 1412,446 1412,445 1411,445 1411,443 1410,443 1410,442 1409,442 1409,440 
	1408,440 1408,439 1407,439 1407,437 1406,437 1406,436 1405,436 1405,434 1404,434 1404,433 1403,433 1403,431 1402,431 1402,430 
	1401,430 1401,428 1400,428 1400,427 1399,427 1399,425 1398,425 1398,423 1397,423 1397,422 1396,422 1396,420 1395,420 1395,419 
	1394,419 1394,417 1393,417 1393,416 1392,416 1392,414 1391,414 1391,413 1390,413 1390,411 1389,411 1389,410 1388,410 1388,408 
	1387,408 1387,407 1386,407 1386,405 1385,405 1385,404 1384,404 1384,402 1383,402 1383,401 1382,401 1382,399 1381,399 1381,397 
	1380,397 1380,396 1379,396 1379,394 1378,394 1378,393 1377,393 1377,391 1376,391 1376,390 1375,390 1375,388 1374,388 1374,387 
	1373,387 1373,385 1372,385 1372,384 1371,384 1371,382 1370,382 1370,381 1369,381 1369,379 1368,379 1368,378 1367,378 1367,376 
	1366,376 1366,375 1365,375 1365,373 1364,373 1364,372 1363,372 1363,370 1362,370 1362,368 1361,368 1361,367 1360,367 1360,365 
	1359,365 1359,364 1358,364 1358,362 1357,362 1357,361 1356,361 1356,359 1355,359 1355,358 1354,358 1354,356 1353,356 1353,355 
	1352,355 1352,353 1351,353 1351,352 1350,352 1350,350 1349,350 1349,349 1348,349 1348,347 1347,347 1347,346 1346,346 1346,344 
	1345,344 1345,342 1344,342 1344,341 1343,341 1343,339 1342,339 1342,338 1341,338 1341,336 1340,336 1340,335 1339,335 1339,333 
	1338,333 1338,332 1337,332 1337,330 1336,330 1336,329 1335,329 1335,327 1334,327 1334,326 1333,326 1333,324 1332,324 1332,323 
	1331,323 1331,322 1333,322 1333,321 1334,321 1334,320 1336,320 1336,319 1337,319 1337,318 1339,318 1339,317 1341,317 1341,316 
	1342,316 1342,315 1344,315 1344,314 1345,314 1345,313 1347,313 1347,312 1348,312 1348,311 1350,311 1350,310 1351,310 1351,309 
	1353,309 1353,308 1354,308 1354,307 1356,307 1356,306 1357,306 1357,305 1359,305 1359,304 1360,304 1360,303 1362,303 1362,302 
	1364,302 1364,301 1365,301 1365,300 1367,300 1367,299 1368,299 1368,298 1370,298 1370,297 1371,297 1371,296 1373,296 1373,295 
	1374,295 1374,294 1376,294 1376,293 1377,293 1377,292 1379,292 1379,291 1380,291 1380,290 1382,290 1382,289 1383,289 1383,288 
	1385,288 1385,287 1386,287 1386,286 1388,286 1388,285 1390,285 1390,284 1391,284 1391,283 1393,283 1393,282 1394,282 1394,281 
	1396,281 1396,280 1397,280 1397,279 1399,279 1399,278 1400,278 1400,277 1402,277 1402,276 1403,276 1403,275 1405,275 1405,274 
	1406,274 1406,273 1408,273 1408,272 1409,272 1409,271 1411,271 1411,270 1413,270 1413,269 1414,269 1414,268 1416,268 1416,267 
	1417,267 1417,266 1419,266 1419,265 1420,265 1420,264 1422,264 1422,263 1423,263 1423,262 1425,262 1425,261 1426,261 1426,260 
	1428,260 1428,259 1429,259 1429,258 1431,258 1431,257 1432,257 1432,256 1434,256 1434,255 1435,255 1435,254 1437,254 1437,253 
	1439,253 1439,252 1440,252 1440,251 1442,251 1442,250 1443,250 1443,249 1445,249 1445,248 1446,248 1446,247 1448,247 1448,246 
	1449,246 1449,245 1451,245 1451,244 1452,244 1452,243 1454,243 1454,242 1455,242 1455,241 1457,241 1457,240 1458,240 1458,239 
	1460,239 1460,238 1462,238 1462,237 1463,237 1463,236 1465,236 1465,235 1466,235 1466,234 1468,234 1468,233 1469,233 1469,232 
	1471,232 1471,231 1472,231 1472,230 1474,230 1474,229 1475,229 1475,228 1477,228 1477,227 1478,227 1478,226 1480,226 1480,225 
	1481,225 1481,224 1483,224 1483,223 1484,223 1484,222 1486,222 1486,221 1488,221 1488,220 1489,220 1489,219 1491,219 1491,218 
	1492,218 1492,217 1494,217 1494,216 1495,216 1495,215 1497,215 1497,214 1498,214 1498,213 1500,213 1500,212 1501,212 1501,211 
	1503,211 1503,210 1504,210 1504,209 1506,209 1506,208 1507,208 1507,207 1509,207 1509,206 1511,206 1511,205 1512,205 1512,204 
	1514,204 1514,203 1515,203 1515,202 1517,202 1517,201 1518,201 1518,200 1520,200 1520,199 1521,199 1521,198 1523,198 1523,197 
	1524,197 1524,196 1526,196 1526,195 1527,195 1527,194 1529,194 1529,193 1530,193 1530,192 1532,192 1532,191 1533,191 1533,190 
	1535,190 1535,189 1537,189 1537,188 1538,188 1538,187 1540,187 1540,186 1541,186 1541,185 1543,185 1543,184 1544,184 1544,183 
	1546,183 1546,182 1547,182 1547,181 1549,181 1549,180 1550,180 1550,179 1552,179 1552,178 1553,178 1553,177 1555,177 1555,176 
	1556,176 1556,175 1558,175 1558,174 1560,174 1560,173 1561,173 1561,172 1563,172 1563,171 1564,171 1564,170 1566,170 1566,169 
	1567,169 1567,168 1569,168 1569,167 1570,167 1570,166 1572,166 1572,165 1573,165 1573,164 1575,164 1575,163 1576,163 1576,162 
	1578,162 1578,161 1579,161 "/>
</svg>
