<?xml version="1.0" encoding="utf-8"?>
<!-- Generator: Adobe Illustrator 27.0.1, SVG Export Plug-In . SVG Version: 6.00 Build 0)  -->
<svg version="1.1" id="Capa_1" xmlns="http://www.w3.org/2000/svg" xmlns:xlink="http://www.w3.org/1999/xlink" x="0px" y="0px"
	 viewBox="0 0 516.9 559.6" style="enable-background:new 0 0 516.9 559.6;" xml:space="preserve">
<style type="text/css">
	
		.st0{opacity:0.5;fill-rule:evenodd;clip-rule:evenodd;fill:#878787;stroke:#343434;stroke-width:0.1379;stroke-miterlimit:13.7897;enable-background:new    ;}
	.st1{opacity:0.5;fill:#878787;stroke:#343434;stroke-width:0.1379;stroke-miterlimit:13.7897;enable-background:new    ;}
	.st2{opacity:0.6;fill:#878787;stroke:#343434;stroke-width:0.1368;stroke-miterlimit:13.7897;}
</style>
<image style="overflow:visible;" width="5400" height="7200" xlink:href="Plano Base Junio 2023.jpg"  transform="matrix(0.106 0 0 0.1028 -26.5212 -70.1521)">
</image>
<polygon id="AFA" class="st0" points="296.1,535.3 295.9,535.3 295.4,535.6 294,536.2 290.9,537.9 288.2,539.6 286.4,539.8 282,544 
	280.6,546 279.2,547.8 277.2,551 276.2,552.7 272.9,557.8 272.3,558.6 271.8,559.5 271.4,559.4 268.6,559.1 265.2,559 263.6,558.7 
	260.2,558.4 247.8,557.5 241.6,557.2 228.2,556.5 223.5,556.2 217.2,555.8 213.3,555.8 208.2,555.7 203.4,555.4 204.6,553.8 
	202.6,553.2 203.5,544.8 204.5,536 106.6,519.1 70.4,512.9 70,516.4 69.5,521.5 68.5,530.3 34.2,524.5 25.1,522.9 22.2,522.5 
	18.2,521.8 7.3,519.8 0.1,518.6 0.5,518 2.3,514.7 5.5,508.9 6.6,507.1 7.3,505.8 12.1,496.9 16.9,487.6 17.6,487.7 19.4,488 
	22,488.8 24.7,489.9 26.3,490.6 29.2,491.6 29.9,492 30.7,492.7 31,492.8 31.7,493.8 34,495 35.4,494.3 36.2,494 43.7,491.3 
	50.6,489.2 53.2,488.8 57.9,487.8 62,487 64,486.5 66.6,486.6 68.1,486.7 69.3,486.7 70.2,486.6 73.9,486.3 75.8,486.5 77.5,486.6 
	78.6,486.7 78.7,486.3 83,487 86,487.2 87.4,486.7 91.5,486.5 93.2,486 95.7,486 100.9,485.6 102.2,485.1 104.4,484.4 106.6,483.7 
	108.9,482.7 110.7,482.1 113.2,481.2 114.9,480.5 116.1,479.6 118.9,478.3 120.4,476.9 122,475.7 123.1,475.2 124.1,475 
	124.6,474.7 124.9,475 125.9,476.4 126.4,477.9 127.1,479.3 128.1,480.8 129.6,482.5 131.8,483.8 133.9,485.4 136.6,486.9 
	137.3,487.4 139.3,488.1 140.8,488.1 142.3,488 143.9,487.4 145.9,487.2 147.5,486.9 148.8,486.9 150.4,486.2 151.8,485.9 
	153.7,485.6 155.7,485.9 156.4,486.2 158.2,486.3 160.1,486.9 162,487 164.5,487.6 167.5,488 170.4,488.3 172.1,488.5 172.9,488.4 
	174,488.8 175.7,488.7 176.8,486.3 181.6,487.6 191,489.8 199.4,494.3 203.4,503.6 204.1,512.2 204.8,519.8 208.8,526.5 
	216.6,528.8 225.7,526.9 235.5,528.5 243.9,530.6 252.5,528.9 261,524.1 269.3,518.5 278.7,518 282.5,523.7 286.8,535 "/>
<path id="H418" class="st0" d="M361.1,493.9l0.8-1.5l-66.2-23.6l-2.9,7.9l-3.2,8.7l-5.2-1.9l-5.4,19.4c-0.1,0.6,0,1.2,0.5,1.7
	l0.1,0.1c2.2,3,1.7,7.2-1.2,9.5l3.4,5l2.3,3.3l3.9,10.5l12.3,0.3l5-2.1l8-3.9l9.1-4.3l3.9-1.9l2.1-0.8l1.4-0.7l3.9-2.2l9.5-6.1
	L361.1,493.9L361.1,493.9z"/>
<path id="H417" class="st0" d="M278.7,481.5l-6.3-2.2l-2.6-1l-63.4-22.8l-7,10.6l-3,4.7l-6.7,9.7l-2.6,3.7l-0.7,0.4l-2.5,0.3
	l-1.9,0.1l-1.8,0.1l2.1,0.6l9.7,2.3l9.1,5l4.4,10.2l0.7,9l0.8,7l3.4,5.8l6.7,1.9l9.1-1.8l10.2,1.6l8.1,2.1l7.9-1.5l8.1-4.5l8.7-5.9
	l0.8-2.8c-0.7-0.7-1.2-1.5-1.5-2.5c-1.3-3.5,0.5-7.4,4.1-8.7c0,0,0.1,0,0.1,0c0.6-0.2,1-0.7,1.1-1.2L278.7,481.5L278.7,481.5z"/>
<polygon id="C225" class="st0" points="293,476.7 287.1,474.6 284.6,483.6 289.8,485.5 "/>
<path id="C224" class="st0" d="M295.8,468.8l-6.3-2.2c-0.7,2.1-1.2,4.1-1.9,6.2l-0.5,1.8l5.8,2.1L295.8,468.8L295.8,468.8z"/>
<polygon id="C223" class="st0" points="281,473.2 275.2,471.2 272.3,479.3 278.7,481.5 "/>
<path id="C222" class="st0" d="M283.6,464.3l-5.2-1.9l-2.5,6.9l-0.7,1.9l5.8,2.1l0.5-2.1C282.3,468.8,283,466.5,283.6,464.3z"/>
<path id="H416" class="st0" d="M379.1,452.5l-3.2,8L362,492.4l-72.4-25.9c0,0,8.7-26.3,23.3-44.1l59.6,28L379.1,452.5z"/>
<path id="H415" class="st1" d="M283.6,464.3l4.3-11.4l4.8-10.2c4.1-7.8,8.9-15.2,14.2-22.2l-11.2-5.5l-2.3,1.8
	c-2.5,4.4-5.3,8.5-8.4,12.4L270.3,419l-1.8,0.1l-17.9,14.5L214,446.9l-3.2,2.9l-2.1,2.3l-2.5,3.3l66.2,23.7l6.1-16.8L283.6,464.3z"
	/>
<polygon id="H413-B" class="st0" points="312.9,422.5 316.5,417.4 377.4,445.8 377.4,452.1 372.4,450.5 "/>
<path id="H413-A" class="st0" d="M377.4,445.8l1.8-48l-12.8-28.7l-10.9,4.8l-2.2-4.8c0,0-5.4,3.3-7.4,7.2c-2.1,3.9,0,0.3,0,0.3
	l-29.4,40.8L377.4,445.8z"/>
<path id="C221" class="st0" d="M353.4,369.2c0.4-0.3,0.8-0.5,1.2-0.7c0.4-0.1,0.7-0.4,1.1-0.5c0.1-0.1,0.4-0.1,0.5-0.3l2.6-1.2
	c0.5-0.2,1.2-0.2,1.7,0.1c1.5,0.9,3.3,1.2,5,0.8l0.8,1.8l-10.9,4.8L353.4,369.2L353.4,369.2z"/>
<polygon id="H414" class="st1" points="306.9,420.4 295.8,414.9 293.7,416.4 285,429.1 270.3,419.2 268.9,419.2 265.4,392 
	291.6,364 330.2,388 "/>
<path id="H412" class="st1" d="M330.3,388l-38.6-24c0,0,4.1-7.3,22.3-19.7c0,0,5.8-3.9,20.7-10.6l11-4.8l9.7,20.3l-4.8,2.2l4.7,10.2
	c0,0-7.6,3.9-11,7.9L330.3,388z"/>
<path id="C219" class="st0" d="M358.2,357.4c-0.4,0.6-0.7,1.3-0.8,2.1c-0.2,0.6-0.6,1.1-1.1,1.4l-1.4,0.5l-4.7-10.2l4.8-2.2l1.4,3.2
	l1.6,3.6C358.6,356.2,358.6,356.9,358.2,357.4z"/>
<path id="H411-C" class="st1" d="M300.6,323.3c4.4,6.9,9,13.9,13.4,21c9.9-6.2,20.8-10.9,31.6-15.4c-3-7-6.1-14.1-9.1-21.2
	c-0.2-0.8-0.8-1.5-1.5-1.9c-0.8-0.4-1.8,0-2.8,0.4c-4.5,2.2-9.5,4.3-14.6,4.3c-3.6,0-7.4-0.8-10.6,0.8c-0.8,0.5-1.5,1-2.2,1.7
	c-0.4,0.3-0.8,0.6-1,1.1c-0.4,1,0,2.1,0.1,3.2C304.3,319.7,303,322.3,300.6,323.3z"/>
<path id="H411-B" class="st1" d="M239.7,334.9l12.4-13.8l2.1,1.9c0,0,14.9,19.7,33,3.3l5.1-4.8c0,0,3,4.4,8.5,1.8l13.4,21
	c-7.8,5.8-15.1,12.2-21.8,19.2l-9.7,10.3l-3.2,3.4l-4.1-4.5l-3.6-5.2l-6.3-5.4L239.7,334.9z"/>
<path id="H411-A" class="st1" d="M282,287.9l13.2,10.8l6.1,4.7l3.7,2.5c0,0-5.1,2.7-6.3,5.5c-3.1-0.6-6.1,1-7.4,3.9
	c-0.9,2.2-0.6,4.7,0.8,6.6l-5.1,4.8c0,0-15.4,16.7-33-3.3l-2.1-1.9L282,287.9z"/>
<path id="C218" class="st0" d="M309.2,259.2c-0.1-0.4-0.2-0.9-0.1-1.4v-0.3l-8.3,9.1l14.3,12.5l5.8-6.6l-2.3-5.1
	c-0.6-1.2-1.6-2-2.9-2.2C312.3,265,309.7,262.5,309.2,259.2z"/>
<polygon id="C217" class="st1" points="223.4,218 223.7,212.5 237.4,213.2 240.6,213.8 237.3,220 237.2,220 "/>
<path id="I303" class="st1" d="M141.1,266.9l8.3-15.6l-2.5-1.2c-1.2-0.5-2.6-0.2-3.6,0.7l6.3-12c0,0-1.1,2.6,1.2,3.9l2.2,1.2
	l15.2-28.7l2.5,1.4l2.5-10.9l11.4,1.5c0,0,4.5,0.7,8.4,1.6c3.9,1,10.1,2.2,10.1,2.2c1.7,0.5,3.5,0.8,5.2,0.7l15.6,0.5l-0.3,5.5
	l13.9,2.1l-35.8,68.3l-10.3-4.3l-17.5-6.8l-16.7-6.5l-7.3-3C149.5,267.8,145.5,266.8,141.1,266.9z"/>
<path id="C234" class="st1" d="M163.4,212.7l2.9-5.5c0.7-1.2,2-2,3.4-1.9l3.4,0.4l-2.5,10.9L163.4,212.7z"/>
<polygon id="C233" class="st1" points="165.5,220.6 160.6,217.8 163.4,212.7 168.2,215.4 "/>
<polygon id="C232" class="st1" points="162.7,225.8 157.7,223.1 160.6,217.8 165.3,220.6 "/>
<polygon id="C231" class="st1" points="155.1,228.3 157.7,223.1 162.7,225.8 159.9,231.1 "/>
<polygon id="C230" class="st1" points="152.4,233.6 155.1,228.3 159.9,231.1 157.2,236.2 "/>
<path id="C229" class="st1" d="M149.6,238.9l2.9-5.4l4.8,2.6l-4.1,7.9l-2.2-1.2C150.7,242.7,148.6,242,149.6,238.9z"/>
<path id="C228" class="st1" d="M141.1,255.1l2.2-4.1c0.9-0.9,2.4-1.2,3.6-0.7l2.5,1.2l-3.3,6.2L141.1,255.1z"/>
<polygon id="C227" class="st1" points="138.3,260.3 141.1,255.1 146,257.6 143.1,262.9 "/>
<path id="C226" class="st1" d="M138.3,260.3l-3.4,6.5c0,0-0.1,0.1,6.2,0.3l2.2-4L138.3,260.3z"/>
<path id="C220" class="st0" d="M361,346.1l4.8-2.1l4.7,10.3l-1.2,0.7c0,0-1.1,0.5-1.8,0c-0.7-0.4-1.4-0.8-2.2-1c0,0-1-0.3-1.1-0.8
	C364.1,352.7,361,346.1,361,346.1z"/>
<path id="H410" class="st0" d="M340.5,300.4l10.6-6.1c0,0,10.3-5.9,13.6-6.9l26.6,39.8l-3,5.2c-2,3.9-4.4,7.6-7.2,11
	c0,0-6.3,9.9-10.7,11.6l-4.7-11l-4.8,2.1L340.5,300.4z"/>
<path id="H409" class="st0" d="M423.5,286.6l0.8-1l-32.4-22.5L377,279.2c0,0-5.9,5.9-12.3,8.3l26.6,39.8c0,0,6.9-12,9.1-14.6
	c0,0,7.7-10.2,10.5-12.3c0,0,7-6.2,8.1-8.3l-5.1-3.7l4.3-5.5L423.5,286.6z"/>
<polygon id="C237" class="st0" points="423.5,286.5 418.1,282.8 413.8,288.3 419.1,292 "/>
<path id="I302" class="st0" d="M497.8,236l0.1-0.7l0.3-0.8l-1.5-0.7c-7.7-3.3-16.4-3.7-24.4-1.1l-5.5,1.8c-1.1,0.4-2.3,0.8-3.4,1
	l-5.4,1c-0.8,9-4,17.6-9.1,25l-8.7,12.5l23.4,11.9l18.5,9.2l1.1-9.2l1.8-13.6l0.3-1.8l0.3-1.5l7.6-20.7l4.7-12.1V236z"/>
<path id="H408" class="st0" d="M443.7,257.7c4.4-6.3,7.1-13.5,8-21.1l-4.8-0.3l-3-0.4l-13.3-2.3l-9.8-2.1c-1,1.4-2.1,2.7-3.3,3.9
	l-25.6,27.7l32.4,22.5c0.3-0.3,0.5-0.6,0.7-1L443.7,257.7L443.7,257.7z"/>
<path id="M203" class="st0" d="M353.7,254.1c1-1,1-2.7,0-3.8c0,0-0.1-0.1-0.1-0.1l0,0l-18.3-16l-7.2,8.1c-2.5,2.7-4.2,6.1-4.8,9.8
	c-0.1,0.9,0,1.7,0.4,2.5c0.4,0.9,0.7,1.8,0.8,2.7c0.1,1.1,0,2.3-0.4,3.3c-0.3,0.8-0.3,1.7,0,2.5c0.3,0.7,0.4,1.2,0.7,1.9l6.5,14.2
	L353.7,254.1L353.7,254.1z"/>
<path id="M201" class="st0" d="M343.2,199.2l-17.5-13.1l-12.4,18.3l18.5,12.5C336.3,211.6,340.2,205.6,343.2,199.2L343.2,199.2z"/>
<path id="C216" class="st0" d="M336.3,210.9l4.4,3.3c0.8,0.6,1,1.8,0.4,2.6c-1.1,1.5-2.2,2.9-3.3,4.3l-6.1-4.1
	C333.4,215.1,334.9,213.1,336.3,210.9L336.3,210.9z"/>
<path id="C215" class="st0" d="M343.2,199.2l6.1,4.5c-1,1.9-1.9,3.7-3,5.5c0,0.1-0.1,0.1-0.1,0.1l0,0c-0.6,0.8-1.8,1-2.6,0.4
	l-4.3-3.2C340.6,204.2,342,201.7,343.2,199.2L343.2,199.2z"/>
<path id="H407" class="st0" d="M292.2,206.8l8.4-12.1l-2.2-1.5l4.4-6.3l-41.1-29.3l-5.2,15.7l-19.9,32.1l29.9,11.3l24.3,16.4
	l22.7,15.6l22.5-25.4c0.5-0.7,1.2-1.4,1.8-2.1l-6.1-4.1l-17-11.6l-1.4,2.2l-0.5-0.4l-6.1,8.8l0,0c-0.1,0.3-0.5,0.3-0.8,0.1
	c-0.4-0.4-1-0.7-1.4-1.1L292.2,206.8L292.2,206.8z"/>
<path id="C236" class="st0" d="M479.5,217.6c0,0,11.3,9.1,20.7,11.3l-0.4,1.2c0,0-11.4-4.8-16.4-3.7c-2.8-0.1-5.6,0.1-8.4,0.7
	L479.5,217.6z"/>
<path id="C235" class="st0" d="M479.5,217.6l-4.4,9.5l-16.8,4.7c0,0,0.4-13,5-19.2l0.4,0.1l1.1-2.2L479.5,217.6z"/>
<path id="C214" class="st0" d="M450.2,201.3l-1.2,6.6c0,0-0.3,0.7,0.3,0.8l8,1.4l1.9-4.3c0.2-0.8,0-1.7-0.6-2.3l-4.8-1.8
	L450.2,201.3z"/>
<path id="H420" class="st1" d="M457.2,210.3l-8-1.4c-0.3-0.1-0.4-0.5-0.3-0.8c0,0,0,0,0,0l1.2-6.6l-5.9-1.8c0,0-11.4-0.7-12.3,0
	c0,0-0.1,9.7-0.8,9c0,0-1.6,10.3-6.8,17.6l27.4,4.8l0.7-6.6l-0.1-1.6l1-2.1L457.2,210.3z"/>
<path id="C212" class="st0" d="M386.9,187.4l-1.9,9.9l20.7,4l1.1-3.7C399.6,195.5,392.8,192,386.9,187.4z"/>
<path id="C211" class="st0" d="M386.9,187.4c-3-2.4-5.8-5.1-8.3-8c-0.4-0.4-0.8-1-1.2-1.4l-4.4,17l12,2.3L386.9,187.4L386.9,187.4z"
	/>
<path id="H406" class="st0" d="M354.5,190.4c-0.4,1.2-0.8,2.5-1.2,3.7c-0.1,0.4-0.3,0.7-0.4,1.1l-6.1-2.9c-1,2.5-1.9,5-3,7.3
	l-18.1-13.5l-7.6-5.2l-7.7,11.3l-7.6-5.4l-41.4-29.3l6.6-20.4l0.1-0.3l0.4-1.4l1-3l7.4-23.3l3.3-5c1,0.7,1.9,1.2,2.9,1.9l8.3,5.6
	l3.4,3l2.3,1.6l3,1.4l4.4,3c1.2,0.8,2.4,1.8,3.6,2.8l0.3,0.3l0.3,0.3l2.1,1.7l1.7,1.1l30.1,20.7l4.1,2.9l-4.4,6.5l7,4.8l2.3,4.5
	c-0.2,7.2-1.3,14.3-3.3,21.2l6.1,2.7L354.5,190.4z"/>
<path id="C136" class="st0" d="M473.5,207.9c0,0-3.9-2.9-5.2-3.9c-1.4-1-1.2-2.9-1.2-2.9l0.8-4h5.7V207.9L473.5,207.9z"/>
<path id="I301" class="st0" d="M479.2,129.4l33.6,26.1l-8.1,69.8l-0.4,0.5l-1.9,0.6l-15.4-7.3l-6.2-4.5l-7.2-6.7v-10.8h-5.7l0.5-4.4
	c0,0,1.4-25.5,1.7-25.6s-0.5-9.8-0.5-9.8l-1.1-21.7l5.2,3.3L479.2,129.4z"/>
<path id="H404" class="st0" d="M392.2,146.3l22.9,13.6l-8,32.7c0,0-9.1-3-14.1-6.8l-1.6-1.1l-5.4-5.4l-2.8-1.9l-5.9-6.8L392.2,146.3
	z"/>
<path id="H405B" class="st0" d="M442.1,115.6l20.5,12.4c-0.6,2-0.8,4-0.5,6.1l1.7,27.3v7.6l-20-2.1c0,0-9.2,0.1-15.7-1.8
	c-4.5-1-8.8-2.7-12.8-5.1L442.1,115.6z"/>
<path id="H405A" class="st0" d="M374.9,135.9l40.3,24c0.1-1.9,26.9-44.5,26.9-44.5l-10.5-6.2l-1.9,3.2l-8.7-5.1
	c-3.3,2.9-5.7,4.7-8.8,7c-3.7,2.5-9.1,5.2-13.5,5.8c-3,0.3-5,1.6-7.9,2.6C378.1,129.2,377.8,133.6,374.9,135.9z"/>
<path id="H402" class="st0" d="M390.9,112.6c-0.8,0.3-1.8,0-2.2-0.8l-0.8-1.6c1.4-0.4,2.9-0.8,4.3-1.1h0.3c7.8-1.5,15-5.3,20.7-10.9
	l-59.8-35.4L321,117l13.1,9.1l-3.6,5.4l3,1.4l2.3,1.7l3.4,3l6.9,4.7c2.8,1.9,5.4,3.9,8,5.8c3.1-16,13.8-29.5,28.7-36.1l1,1.9
	c0.4,0.9,0.1,1.9-0.7,2.5C385.7,115,388.3,113.7,390.9,112.6L390.9,112.6z"/>
<path id="C213A" class="st0" d="M355.1,162.4l-5.8-0.7c0.2-2.6,1.2-5.1,2.8-7.2c1.3,0.9,2.1,2.3,2.1,3.9
	C354.3,159.8,354.6,161.1,355.1,162.4z"/>
<path id="C213" class="st0" d="M349.3,161.7c0.1-2.6,1-5.2,2.8-7.2l-5.4-4.1l-4.4,6.5L349.3,161.7z"/>
<path id="C210" class="st0" d="M377.4,170.6l14.8-24.3L373.7,135l-3.9,6.9c0,0,5.2,4.4,3.6,10.9c0,0-2.1,6.9-3.9,9.2l0.4,1
	L377.4,170.6z"/>
<polygon id="C209" class="st0" points="265.7,95.5 257.6,91.4 254.1,98.7 262.4,102.6 "/>
<polygon id="C208" class="st0" points="257.4,91.3 249.2,87.4 245.9,94.8 254.1,98.6 "/>
<polygon id="C207" class="st0" points="249.2,87.4 240.9,83.7 237.4,91 245.7,94.8 "/>
<path id="C206" class="st0" d="M240.9,83.7l-5.8-2.6c-1.3-0.6-2.9-0.1-3.6,1.2l-2.6,4.8l8.7,4L240.9,83.7L240.9,83.7z"/>
<polygon id="C205" class="st0" points="334.2,126.3 327.8,121.9 324,127.1 330.5,131.5 "/>
<path id="C204" class="st0" d="M327.8,121.9l-6.8-4.5l-2.5,4.1c-0.5,0.8-0.3,1.9,0.5,2.5c0,0,0,0,0,0l5,3.4L327.8,121.9z"/>
<path id="C203" class="st0" d="M316.5,114.7l-5.2-3.6l-3.6,5.2c0.5,0.4,3.4,2.1,4,2.5l0.3,0.1c0.9,0.4,1.9,0.1,2.5-0.7L316.5,114.7
	L316.5,114.7z"/>
<polygon id="C202" class="st0" points="311.2,111.1 306.1,107.5 302.4,112.9 307.6,116.5 "/>
<polygon id="C201" class="st0" points="306.1,107.5 300.9,104.1 297.3,109.3 302.4,112.9 "/>
<polygon id="C200" class="st0" points="300.9,104.1 295.8,100.5 292.1,105.9 297.3,109.3 "/>
<path id="H401" class="st0" d="M346.9,63.4l-45.2-26.7l-29.2,49.2c4.1,2.2,8.1,4.6,12,7.2l-2.3,3.9l0,0c-0.5,0.8-1.6,1.1-2.5,0.6
	c0,0,0,0,0,0c2.2,1.4,4.4,2.9,6.6,4.3l0.8,0.6c-0.8-0.5-1.1-1.6-0.6-2.5l2.3-4.1c0.4,0.2,0.7,0.4,1,0.7l26.6,18.3L346.9,63.4
	L346.9,63.4z"/>
<polygon id="C402" class="st0" points="260.9,42.7 263.5,37.7 256.9,34.3 254.4,39.3 "/>
<polygon id="C401" class="st0" points="263.5,37.7 266.1,32.9 259.5,29.3 256.9,34.3 "/>
<polygon id="C400" class="st0" points="266.1,32.9 268.6,28.1 262.3,24.2 259.5,29.3 "/>
<path id="H121-B" class="st0" d="M260.9,42.7l-19,36l-4.3-1.8c-1.2-0.7-1.8-2.1-1.4-3.4l18.1-34.2L260.9,42.7z"/>
<path id="H121-A" class="st0" d="M241.9,78.7l3.6,1.4l3.2,0.8l2.6,1.2l4,2.3l2.8,1.2c3.9,1.8,7.7,3.7,11.6,5.8l3-5.6l24.3-41.1
	l-28.3-16.7L241.9,78.7z"/>
<path id="C135" class="st0" d="M468.4,135.6l5.2,3.3c0,0,5.5-9.2,5.5-9.4c0-0.1-5.8-4.7-5.8-4.7s-2.8-1.8-4.3,1.1
	c-0.6,2.3-0.8,4.8-0.8,7.2L468.4,135.6z"/>
<path id="C134" class="st0" d="M464.7,120.1L464.7,120.1c0.4-0.9,0.1-1.9-0.7-2.5c-0.8-0.5-1.5-1-2.3-1.5l-5.1-3l-4.7,8l5.1,3
	c1.9,1.1,3.7,2.3,5.5,3.6C462.8,125,463.6,122.5,464.7,120.1L464.7,120.1z"/>
<polygon id="C133" class="st0" points="456.6,113.2 446.8,107.4 442.1,115.4 444.6,116.9 451.9,121.2 "/>
<polygon id="C132" class="st0" points="431.6,109.2 436.3,101.2 445.4,106.7 440.7,114.6 "/>
<path id="C131" class="st0" d="M436.3,101.2l-7-4.1c-0.8-0.5-1.9-0.3-2.5,0.5c0,0,0,0,0,0c-2.1,3.2-4.5,6.1-7.3,8.7l10.2,6.1
	L436.3,101.2L436.3,101.2z"/>
<path id="C130" class="st0" d="M419.6,91.4l-8.3-5l-4.7,8l9,5.2c1.7-1.8,3.2-3.7,4.7-5.7C420.8,93,420.5,91.9,419.6,91.4L419.6,91.4
	z"/>
<polygon id="C129" class="st0" points="399.3,79.4 394.5,87.3 406.5,94.4 411.2,86.4 "/>
<polygon id="C128" class="st0" points="399.3,79.4 391.3,74.7 386.7,82.6 394.5,87.3 "/>
<polygon id="C127" class="st0" points="383.3,70 378.7,77.9 386.7,82.6 391.3,74.7 "/>
<polygon id="C126" class="st0" points="375.5,65.2 370.8,73.2 378.7,77.9 383.3,70 "/>
<polygon id="C125" class="st0" points="375.5,65.2 367.5,60.5 362.8,68.5 370.8,73.2 "/>
<path id="C124" class="st0" d="M359.5,55.8c-0.8-0.5-1.8-0.3-2.4,0.5c0,0.1-0.1,0.1-0.1,0.2l-3.7,6.3l9.6,5.6l4.7-8L359.5,55.8
	L359.5,55.8z"/>
<path id="C123" class="st0" d="M352.6,53.9c0.5-0.8,0.3-1.8-0.5-2.4c-0.1,0-0.1-0.1-0.2-0.1l-13.4-8l-6.6,11.2l15,8.8L352.6,53.9
	L352.6,53.9z"/>
<path id="C122" class="st0" d="M308.2,25.9l-0.3-0.1l-0.5-0.3c-9.8-5.8-18.3-13.5-25-22.6c-1.7-2.4-5.1-3-7.5-1.3
	c-0.1,0.1-0.1,0.1-0.2,0.2c-0.7,0.5-1.2,1.1-1.6,1.8l-10.9,20.8l34.6,20.5L308.2,25.9z"/>
<polygon id="C120" class="st0" points="323.5,34.4 316.9,45.6 331.9,54.4 338.5,43.4 "/>
<path id="C118" class="st0" d="M484.8,119.2l30.1,23.3v-0.3l0.5-4.1l0.1-1.2l1.2-10.6l-21.1-6.7l-2.1-0.7l-3.2-1L488,117
	c-0.2-0.1-0.3-0.3-0.3-0.5h-0.1L484.8,119.2L484.8,119.2z"/>
<path id="C117" class="st0" d="M465.2,95.7l1.5,1l0,0v-0.1l7.2,2.8l-3.2,7c0,0.1,0,0.1-0.1,0.1c-0.5,0.8-1.6,1.1-2.5,0.6
	c0,0,0,0,0,0c-0.3-0.2-0.6-0.4-1-0.6l-6.2-3.7L465.2,95.7L465.2,95.7z"/>
<polygon id="C116" class="st0" points="465.2,95.7 456.4,90.4 452.3,97.6 461.1,102.8 "/>
<polygon id="C115" class="st0" points="456.4,90.4 447.6,85.3 443.5,92.4 452.3,97.6 "/>
<polygon id="C114" class="st0" points="441.7,81.7 438.8,79.9 434.5,87.1 443.5,92.4 447.6,85.3 "/>
<polygon id="C113" class="st0" points="421.3,69.6 423.5,70.8 437.3,79.1 438.8,79.9 434.5,87.1 417,76.8 "/>
<polygon id="C112" class="st0" points="421.3,69.6 412.4,64.4 408.2,71.5 417,76.8 "/>
<polygon id="C111" class="st0" points="412.4,64.4 403.6,59.1 399.3,66.3 408.2,71.5 "/>
<polygon id="C110" class="st0" points="403.6,59.1 394.8,54 390.5,61.2 399.3,66.3 "/>
<polygon id="C109" class="st0" points="394.8,54 389.7,51 386,48.8 381.8,55.9 390.5,61.2 "/>
<polygon id="C108" class="st0" points="379.3,44.8 377.1,43.5 373,50.7 381.8,55.9 386,48.8 "/>
<polygon id="C107" class="st0" points="359.5,33.2 355.3,40.2 373,50.7 377.1,43.5 375.2,42.4 374.4,41.9 372,40.5 "/>
<polygon id="C106" class="st0" points="359.5,33.2 351.5,28.5 350.5,28 346.4,35 355.3,40.2 "/>
<polygon id="C105" class="st0" points="348,26.3 341.7,22.6 337.6,29.7 346.4,35 350.5,28 "/>
<polygon id="C104" class="st0" points="340.5,21.8 333,17.3 328.7,24.5 337.6,29.7 341.7,22.6 "/>
<polygon id="C103" class="st0" points="333,17.3 324.2,12.1 319.9,19.3 328.7,24.5 "/>
<path id="C102" class="st0" d="M324.2,12.1l-8.8-5.2l-4.3,7c0.7,0.4,1.4,1,2.2,1.4l6.6,4L324.2,12.1L324.2,12.1z"/>
<path id="C101" class="st0" d="M315.2,7l-4.5-2.8l-7-4.1l-3.3,5.7c3.3,3.1,6.9,5.9,10.8,8.3L315.2,7L315.2,7z"/>
<path id="H403-A" class="st0" d="M407.1,192.6l8-32.7c9.1,5.5,23,6.3,23,6.3l-1.9,27.3C422.9,195.9,412.9,194.7,407.1,192.6z"/>
<path id="H403" class="st0" d="M436.2,194c0,0,12.3-0.4,22.7,4.3c0,0,2.1,1.2,2.8-1.4l1.9-27.9c0,0-25.6-2.5-25.5-2.2L436.2,194z"/>
<polygon id="C119-A" class="st0" points="308.2,25.9 311.4,27.9 313.5,29.2 307.4,39.9 301.7,36.6 "/>
<polygon id="C119-B" class="st0" points="316.9,45.6 323.5,34.4 317.3,30.9 314.6,29.6 313.5,29.2 307.4,39.9 "/>
<path id="H419-A" class="st2" d="M227.3,239.2c9.1,6,18.1,12.1,27.2,18.1c5.1-7.2,10.2-14.4,15.2-21.6c-2.6-1.8-5.3-3.6-7.9-5.4
	c-0.9-0.5-2-1-3.1-1.5c-0.8-0.3-1.5-0.6-2.2-0.8c0.8-2.3,1.6-4.6,2.5-6.9l-18.7-6.6C236,222.7,231.7,231,227.3,239.2z"/>
<path id="H419-C" class="st2" d="M247.5,275.7v-3.4c0,0-0.1-1.1,0-3.6l1.9-4.9c0,0,2.3-3.7,2.5-3.5l2.6-3l-27.2-18.1l-17.3,33
	c0,0,8.7,3.3,15.6,2.7L247.5,275.7z"/>
<path id="H419-D" class="st2" d="M250.8,276l-3.3-0.3v1.8l-22.8-0.9c0,0-10.4-0.7-11.7-1.7l-3.9-1l-7.5,14.3l5.4,2.4l3,0.7l2.4,1
	l2.7,2.7l8.3,13.3l1.7-1.9l10.6,17.2c0,0,2.5,5.5,8.3,2.1l35.1-37.7l1.1-1.3c0,0,1.9-2.2,3.3-2.1c-2.5-1.6-5.5-3.3-9.2-4.5
	c0,0-6.4-2.1-12.7-1.9c0,0-0.1,0-0.3,0c-0.1,0-0.2,0-0.3,0l-10.3-0.5L250.8,276z"/>
<path id="H419-B" class="st2" d="M285.7,283.3l-1.9-0.9c0,0-7.2-5.1-20-6.1l-13-0.3v-3.2c0,0,1-6.5,1.9-7l0.5-1.1l5.5-7.8l16.4-23.4
	c0,0,0.9-2,3.4-0.9l6.6,4.4l2,1.3l19.3,14.8c0,0,1.6,1.4,2.5,4.2L285.7,283.3z"/>
<path id="C243" class="st2" d="M259,221.1l4,1.5l1.2,0.6l8.3,5.5c0,0,1.1,1.2,0.5,2.3l-3.2,4.7l-8.4-5.7l-2.3-1.1l-2.5-0.9
	L259,221.1z"/>
</svg>
