<svg id="Capa_1" data-name="Capa 1" xmlns="http://www.w3.org/2000/svg" width="182.35mm" height="197.43mm" viewBox="0 0 516.91 559.64"><polygon id="AFA" points="296.06 535.28 295.92 535.28 295.37 535.56 293.99 536.25 290.95 537.9 288.2 539.56 286.4 539.84 281.99 543.97 280.61 546.04 279.23 547.83 277.16 551 276.2 552.66 272.89 557.76 272.34 558.59 271.79 559.55 271.37 559.42 268.61 559.14 265.17 559 263.65 558.73 260.2 558.45 247.79 557.49 241.59 557.21 228.21 556.52 223.52 556.25 217.18 555.83 213.32 555.83 208.21 555.69 203.39 555.42 204.63 553.76 202.56 553.21 203.53 544.8 204.49 535.97 106.58 519.15 70.45 512.94 70.04 516.39 69.49 521.49 68.52 530.32 34.18 524.53 25.08 522.87 22.19 522.46 18.19 521.77 7.29 519.84 0.12 518.6 0.54 518.05 2.33 514.74 5.5 508.94 6.6 507.15 7.29 505.77 12.12 496.95 16.95 487.57 17.64 487.71 19.43 487.99 22.05 488.81 24.67 489.92 26.32 490.61 29.22 491.57 29.91 491.98 30.74 492.67 31.01 492.81 31.7 493.78 34.05 495.02 35.42 494.33 36.25 494.05 43.7 491.29 50.59 489.23 53.21 488.81 57.9 487.85 62.04 487.02 63.97 486.47 66.59 486.61 68.11 486.74 69.35 486.74 70.18 486.61 73.9 486.33 75.83 486.47 77.48 486.61 78.59 486.74 78.73 486.33 83 487.02 86.03 487.16 87.41 486.74 91.55 486.47 93.2 486.05 95.69 486.05 100.93 485.64 102.17 485.09 104.38 484.4 106.58 483.71 108.93 482.74 110.72 482.06 113.2 481.23 114.86 480.54 116.1 479.57 118.86 478.33 120.37 476.95 122.03 475.71 123.13 475.16 124.09 475.02 124.65 474.75 124.92 475.02 125.89 476.4 126.44 477.92 127.13 479.3 128.09 480.81 129.61 482.47 131.82 483.85 133.89 485.36 136.64 486.88 137.33 487.43 139.26 488.12 140.78 488.12 142.3 487.99 143.95 487.43 145.88 487.16 147.54 486.88 148.78 486.88 150.43 486.19 151.81 485.92 153.74 485.64 155.67 485.92 156.36 486.19 158.16 486.33 160.09 486.88 162.02 487.02 164.5 487.57 167.53 487.99 170.43 488.26 172.08 488.54 172.91 488.4 174.01 488.81 175.67 488.67 176.77 486.33 181.6 487.57 190.98 489.78 199.39 494.33 203.39 503.57 204.08 512.25 204.77 519.84 208.76 526.46 216.63 528.8 225.73 526.87 235.52 528.53 243.93 530.6 252.48 528.94 261.03 524.11 269.3 518.46 278.68 518.05 282.54 523.7 286.82 535.01 296.06 535.28" style="fill:#878787;stroke:#343434;stroke-miterlimit:13.789995908737183;stroke-width:0.13789996114224135px;fill-rule:evenodd;opacity:0.5;isolation:isolate"/><path id="H418" d="M408.6,624.36l.82-1.51-66.19-23.59-2.89,7.86-3.17,8.69-5.24-1.93-5.38,19.45A1.8,1.8,0,0,0,327,635l.14.14a6.9,6.9,0,0,1-1.24,9.51l3.45,5,2.34,3.31,3.86,10.48,12.27.27,5-2.06,8-3.87,9.1-4.27,3.86-1.93,2.07-.83,1.38-.69,3.86-2.2,9.51-6.07,18.07-17.38Z" transform="translate(-47.45 -130.45)" style="fill:#878787;stroke:#343434;stroke-miterlimit:13.789995908737183;stroke-width:0.13789996114224135px;fill-rule:evenodd;opacity:0.5;isolation:isolate"/><path id="H417" d="M326.13,612l-6.34-2.21-2.62-1L253.74,586l-7,10.61-3,4.69L237.05,611l-2.62,3.72-.69.41-2.48.28-1.93.14-1.8.13,2.07.56,9.66,2.34,9.1,5,4.41,10.2.69,9,.83,7,3.45,5.79,6.75,1.93,9.1-1.79,10.21,1.65,8.13,2.07,7.86-1.52,8.14-4.55,8.69-5.93.83-2.76a5.69,5.69,0,0,1-1.52-2.48,6.76,6.76,0,0,1,4.14-8.69,1.67,1.67,0,0,0,1.1-1.24l5-20.27Z" transform="translate(-47.45 -130.45)" style="fill:#878787;stroke:#343434;stroke-miterlimit:13.789995908737183;stroke-width:0.13789996114224135px;fill-rule:evenodd;opacity:0.5;isolation:isolate"/><polygon id="C225" points="293.02 476.68 287.09 474.61 284.61 483.57 289.85 485.5 293.02 476.68" style="fill:#878787;stroke:#343434;stroke-miterlimit:13.789995908737183;stroke-width:0.13789996114224135px;fill-rule:evenodd;opacity:0.5;isolation:isolate"/><path id="C224" d="M343.23,599.26l-6.34-2.2c-.69,2.07-1.24,4.14-1.93,6.2l-.55,1.8,5.79,2.06,3-7.86Z" transform="translate(-47.45 -130.45)" style="fill:#878787;stroke:#343434;stroke-miterlimit:13.789995908737183;stroke-width:0.13789996114224135px;fill-rule:evenodd;opacity:0.5;isolation:isolate"/><polygon id="C223" points="281.02 473.23 275.23 471.16 272.34 479.3 278.68 481.5 281.02 473.23" style="fill:#878787;stroke:#343434;stroke-miterlimit:13.789995908737183;stroke-width:0.13789996114224135px;fill-rule:evenodd;opacity:0.5;isolation:isolate"/><path id="C222" d="M331.1,594.71l-5.24-1.93-2.48,6.9-.69,1.93,5.79,2.07.55-2.07c.69-2.35,1.38-4.69,2.07-6.9Z" transform="translate(-47.45 -130.45)" style="fill:#878787;stroke:#343434;stroke-miterlimit:13.789995908737183;stroke-width:0.13789996114224135px;fill-rule:evenodd;opacity:0.5;isolation:isolate"/><path id="H416" d="M426.52,583l-3.17,8-13.93,31.86L337,596.92s8.69-26.34,23.3-44.13l59.58,28Z" transform="translate(-47.45 -130.45)" style="fill:#878787;stroke:#343434;stroke-miterlimit:13.789995908737183;stroke-width:0.13789996114224135px;fill-rule:evenodd;opacity:0.5;isolation:isolate"/><path id="H415" d="M331.1,594.71l4.27-11.44,4.83-10.21a164.74,164.74,0,0,1,14.2-22.2l-11.17-5.51-2.34,1.79a95.24,95.24,0,0,1-8.41,12.41l-14.76-10.07-1.79.14L298,564.1l-36.54,13.24-3.17,2.89-2.07,2.35-2.48,3.31,66.19,23.72L326,592.78Z" transform="translate(-47.45 -130.45)" style="fill:#878787;stroke:#343434;stroke-miterlimit:13.789995908737183;stroke-width:0.13789996114224135px;opacity:0.5;isolation:isolate"/><polygon id="H413-B" points="312.88 422.48 316.46 417.38 377.42 445.79 377.42 452.13 372.45 450.48 312.88 422.48" style="fill:#878787;stroke:#343434;stroke-miterlimit:13.789995908737183;stroke-width:0.13789996114224135px;fill-rule:evenodd;opacity:0.5;isolation:isolate"/><path id="H413-A" d="M424.87,576.24l1.79-48-12.82-28.69-10.9,4.83-2.2-4.83s-5.38,3.31-7.45,7.17,0,.28,0,.28l-29.37,40.82Z" transform="translate(-47.45 -130.45)" style="fill:#878787;stroke:#343434;stroke-miterlimit:13.789995908737183;stroke-width:0.13789996114224135px;fill-rule:evenodd;opacity:0.5;isolation:isolate"/><path id="C221" d="M400.88,499.7a5.3,5.3,0,0,1,1.24-.69c.41-.14.69-.41,1.1-.55.14-.14.41-.14.55-.28l2.62-1.24a1.76,1.76,0,0,1,1.66.14,7,7,0,0,0,5,.83l.83,1.79-10.9,4.83-2.06-4.83Z" transform="translate(-47.45 -130.45)" style="fill:#878787;stroke:#343434;stroke-miterlimit:13.789995908737183;stroke-width:0.13789996114224135px;fill-rule:evenodd;opacity:0.5;isolation:isolate"/><polygon id="H414" points="306.95 420.41 295.78 414.9 293.71 416.41 285.02 429.1 270.27 419.17 268.89 419.17 265.44 392.01 291.64 364.01 330.25 388.01 306.95 420.41" style="fill:#878787;stroke:#343434;stroke-miterlimit:13.789995908737183;stroke-width:0.13789996114224135px;opacity:0.5;isolation:isolate"/><path id="H412" d="M377.71,518.46l-38.61-24s4.13-7.31,22.34-19.72c0,0,5.79-3.86,20.68-10.62l11-4.82,9.66,20.27-4.83,2.2L402.67,492s-7.59,3.86-11,7.86Z" transform="translate(-47.45 -130.45)" style="fill:#878787;stroke:#343434;stroke-miterlimit:13.789995908737183;stroke-width:0.13789996114224135px;opacity:0.5;isolation:isolate"/><path id="C219" d="M405.7,487.84a6.66,6.66,0,0,0-.83,2.07,2.18,2.18,0,0,1-1.1,1.38l-1.38.55-4.69-10.2,4.83-2.21,1.38,3.17,1.65,3.59a1.25,1.25,0,0,1,.14,1.65Z" transform="translate(-47.45 -130.45)" style="fill:#878787;stroke:#343434;stroke-miterlimit:13.789995908737183;stroke-width:0.13789996114224135px;fill-rule:evenodd;opacity:0.5;isolation:isolate"/><path id="H411-C" d="M348.06,453.78c4.41,6.9,9,13.93,13.38,21,9.92-6.2,20.82-10.89,31.57-15.44-3-7-6.06-14.07-9.1-21.24a3,3,0,0,0-1.51-1.93c-.83-.41-1.8,0-2.76.41-4.55,2.21-9.52,4.28-14.62,4.28-3.58,0-7.45-.83-10.62.82a13.94,13.94,0,0,0-2.2,1.66,2.47,2.47,0,0,0-1,1.1c-.41,1,0,2.07.14,3.17A5.75,5.75,0,0,1,348.06,453.78Z" transform="translate(-47.45 -130.45)" style="fill:#878787;stroke:#343434;stroke-miterlimit:13.789995908737183;stroke-width:0.13789996114224135px;opacity:0.5;isolation:isolate"/><path id="H411-B" d="M287.11,465.36l12.41-13.79,2.07,1.93s14.89,19.72,33,3.31l5.1-4.82s3,4.41,8.55,1.79l13.37,21a176,176,0,0,0-21.78,19.17l-9.66,10.34L327,507.7l-4.14-4.55-3.58-5.24L313,492.53Z" transform="translate(-47.45 -130.45)" style="fill:#878787;stroke:#343434;stroke-miterlimit:13.789995908737183;stroke-width:0.13789996114224135px;opacity:0.5;isolation:isolate"/><path id="H411-A" d="M329.44,418.34l13.24,10.76,6.07,4.68,3.72,2.49s-5.1,2.75-6.34,5.51a6.81,6.81,0,0,0-7.45,3.86,6.58,6.58,0,0,0,.83,6.62l-5.1,4.83s-15.45,16.69-33-3.31l-2.07-1.93Z" transform="translate(-47.45 -130.45)" style="fill:#878787;stroke:#343434;stroke-miterlimit:13.789995908737183;stroke-width:0.13789996114224135px;opacity:0.5;isolation:isolate"/><path id="C218" d="M356.61,389.66a4.22,4.22,0,0,1-.14-1.38V388l-8.27,9.1,14.34,12.55,5.79-6.62-2.34-5.1a4,4,0,0,0-2.9-2.21,7.16,7.16,0,0,1-6.48-6.06Z" transform="translate(-47.45 -130.45)" style="fill:#878787;stroke:#343434;stroke-miterlimit:13.789995908737183;stroke-width:0.13789996114224135px;fill-rule:evenodd;opacity:0.5;isolation:isolate"/><polygon id="C217" points="223.38 217.98 223.66 212.46 237.45 213.15 240.62 213.84 237.31 220.04 237.17 220.04 223.38 217.98" style="fill:#878787;stroke:#343434;stroke-miterlimit:13.789995908737183;stroke-width:0.13789996114224135px;opacity:0.5;isolation:isolate"/><path id="I303" d="M188.51,397.38l8.27-15.58-2.48-1.24a3.47,3.47,0,0,0-3.58.68l6.34-12s-1.1,2.62,1.24,3.86l2.21,1.24,15.17-28.68,2.48,1.38,2.48-10.9L232,337.67s4.55.69,8.41,1.65,10.07,2.21,10.07,2.21a15,15,0,0,0,5.24.69l15.58.55-.28,5.52,13.93,2.07-35.85,68.26-10.35-4.28-17.51-6.76-16.68-6.48-7.31-3C196.92,398.21,192.92,397.24,188.51,397.38Z" transform="translate(-47.45 -130.45)" style="fill:#878787;stroke:#343434;stroke-miterlimit:13.789995908737183;stroke-width:0.13789996114224135px;opacity:0.5;isolation:isolate"/><path id="C234" d="M210.85,343.18l2.89-5.51a3.89,3.89,0,0,1,3.45-1.93l3.45.41-2.48,10.9Z" transform="translate(-47.45 -130.45)" style="fill:#878787;stroke:#343434;stroke-miterlimit:13.789995908737183;stroke-width:0.13789996114224135px;opacity:0.5;isolation:isolate"/><polygon id="C233" points="165.47 220.6 160.64 217.84 163.4 212.74 168.22 215.36 165.47 220.6" style="fill:#878787;stroke:#343434;stroke-miterlimit:13.789995908737183;stroke-width:0.13789996114224135px;opacity:0.5;isolation:isolate"/><polygon id="C232" points="162.71 225.84 157.74 223.08 160.64 217.84 165.33 220.6 162.71 225.84" style="fill:#878787;stroke:#343434;stroke-miterlimit:13.789995908737183;stroke-width:0.13789996114224135px;opacity:0.5;isolation:isolate"/><polygon id="C231" points="155.12 228.32 157.74 223.08 162.71 225.84 159.95 231.08 155.12 228.32" style="fill:#878787;stroke:#343434;stroke-miterlimit:13.789995908737183;stroke-width:0.13789996114224135px;opacity:0.5;isolation:isolate"/><polygon id="C230" points="152.36 233.56 155.12 228.32 159.95 231.08 157.19 236.18 152.36 233.56" style="fill:#878787;stroke:#343434;stroke-miterlimit:13.789995908737183;stroke-width:0.13789996114224135px;opacity:0.5;isolation:isolate"/><path id="C229" d="M197.06,369.39,200,364l4.83,2.62-4.14,7.86-2.2-1.24C198.16,373.11,196.09,372.42,197.06,369.39Z" transform="translate(-47.45 -130.45)" style="fill:#878787;stroke:#343434;stroke-miterlimit:13.789995908737183;stroke-width:0.13789996114224135px;opacity:0.5;isolation:isolate"/><path id="C228" d="M188.51,385.52l2.21-4.14a3.28,3.28,0,0,1,3.58-.69l2.48,1.24-3.31,6.21Z" transform="translate(-47.45 -130.45)" style="fill:#878787;stroke:#343434;stroke-miterlimit:13.789995908737183;stroke-width:0.13789996114224135px;opacity:0.5;isolation:isolate"/><polygon id="C227" points="138.3 260.31 141.06 255.07 146.02 257.55 143.13 262.93 138.3 260.31" style="fill:#878787;stroke:#343434;stroke-miterlimit:13.789995908737183;stroke-width:0.13789996114224135px;opacity:0.5;isolation:isolate"/><path id="C226" d="M185.75,390.76l-3.45,6.48s-.13.14,6.21.28l2.21-4Z" transform="translate(-47.45 -130.45)" style="fill:#878787;stroke:#343434;stroke-miterlimit:13.789995908737183;stroke-width:0.13789996114224135px;opacity:0.5;isolation:isolate"/><path id="C220" d="M408.46,476.53l4.83-2.06L418,484.81l-1.24.69s-1.1.55-1.79,0a8,8,0,0,0-2.21-1s-1-.27-1.1-.83S408.46,476.53,408.46,476.53Z" transform="translate(-47.45 -130.45)" style="fill:#878787;stroke:#343434;stroke-miterlimit:13.789995908737183;stroke-width:0.13789996114224135px;fill-rule:evenodd;opacity:0.5;isolation:isolate"/><path id="H410" d="M387.91,430.89l10.62-6.07s10.34-5.93,13.65-6.89l26.62,39.85-3,5.24a65.35,65.35,0,0,1-7.17,11s-6.34,9.93-10.75,11.58l-4.69-11-4.83,2.07Z" transform="translate(-47.45 -130.45)" style="fill:#878787;stroke:#343434;stroke-miterlimit:13.789995908737183;stroke-width:0.13789996114224135px;fill-rule:evenodd;opacity:0.5;isolation:isolate"/><path id="H409" d="M470.93,417l.83-1-32.41-22.48-14.89,16.13s-5.93,5.93-12.28,8.28l26.62,39.85s6.89-12,9.1-14.62c0,0,7.72-10.2,10.48-12.27,0,0,7-6.21,8.14-8.28l-5.11-3.72,4.28-5.51Z" transform="translate(-47.45 -130.45)" style="fill:#878787;stroke:#343434;stroke-miterlimit:13.789995908737183;stroke-width:0.13789996114224135px;fill-rule:evenodd;opacity:0.5;isolation:isolate"/><polygon id="C237" points="423.48 286.51 418.1 282.79 413.82 288.31 419.06 292.03 423.48 286.51" style="fill:#878787;stroke:#343434;stroke-miterlimit:13.789995908737183;stroke-width:0.13789996114224135px;fill-rule:evenodd;opacity:0.5;isolation:isolate"/><path id="I302" d="M545.26,366.49l.13-.69.28-.83-1.52-.69a34.64,34.64,0,0,0-24.41-1.1L514.23,365a24.82,24.82,0,0,1-3.45,1l-5.38,1a52.12,52.12,0,0,1-9.1,25l-8.69,12.55,23.45,11.86,18.48,9.24,1.1-9.24,1.79-13.65.28-1.79.27-1.52,7.59-20.69,4.69-12.13Z" transform="translate(-47.45 -130.45)" style="fill:#878787;stroke:#343434;stroke-miterlimit:13.789995908737183;stroke-width:0.13789996114224135px;fill-rule:evenodd;opacity:0.5;isolation:isolate"/><path id="H408" d="M491.2,388.14a46.5,46.5,0,0,0,8-21.1l-4.83-.27-3-.42L478.1,364l-9.79-2.07A29.16,29.16,0,0,1,465,365.8l-25.65,27.72L471.76,416a4.47,4.47,0,0,0,.69-1l18.75-26.89Z" transform="translate(-47.45 -130.45)" style="fill:#878787;stroke:#343434;stroke-miterlimit:13.789995908737183;stroke-width:0.13789996114224135px;fill-rule:evenodd;opacity:0.5;isolation:isolate"/><path id="M203" d="M401.15,384.55a2.66,2.66,0,0,0-.14-3.86h0l-18.34-16-7.17,8.13a19.85,19.85,0,0,0-4.82,9.79,4,4,0,0,0,.41,2.49,9.25,9.25,0,0,1,.83,2.75,6.68,6.68,0,0,1-.42,3.31,3.93,3.93,0,0,0,0,2.49c.28.69.42,1.24.69,1.93l6.48,14.2,22.48-25.24Z" transform="translate(-47.45 -130.45)" style="fill:#878787;stroke:#343434;stroke-miterlimit:13.789995908737183;stroke-width:0.13789996114224135px;fill-rule:evenodd;opacity:0.5;isolation:isolate"/><path id="M201" d="M390.67,329.67l-17.51-13.1-12.41,18.34,18.47,12.55a82.94,82.94,0,0,0,11.45-17.79Z" transform="translate(-47.45 -130.45)" style="fill:#878787;stroke:#343434;stroke-miterlimit:13.789995908737183;stroke-width:0.13789996114224135px;fill-rule:evenodd;opacity:0.5;isolation:isolate"/><path id="C216" d="M383.78,341.39l4.41,3.31a1.93,1.93,0,0,1,.41,2.62c-1.1,1.52-2.2,2.9-3.31,4.28l-6.07-4.14a62.44,62.44,0,0,0,4.56-6.07Z" transform="translate(-47.45 -130.45)" style="fill:#878787;stroke:#343434;stroke-miterlimit:13.789995908737183;stroke-width:0.13789996114224135px;fill-rule:evenodd;opacity:0.5;isolation:isolate"/><path id="C215" d="M390.67,329.67l6.07,4.55c-1,1.93-1.93,3.72-3,5.52a.13.13,0,0,1-.13.13,1.93,1.93,0,0,1-2.62.42l-4.28-3.17c1.38-2.49,2.76-5,4-7.45Z" transform="translate(-47.45 -130.45)" style="fill:#878787;stroke:#343434;stroke-miterlimit:13.789995908737183;stroke-width:0.13789996114224135px;fill-rule:evenodd;opacity:0.5;isolation:isolate"/><path id="H407" d="M339.65,337.25l8.41-12.13-2.21-1.52,4.42-6.34L309.17,288l-5.24,15.72-19.86,32.14L314,347.18l24.27,16.41L361,379.18,383.5,353.8c.55-.69,1.24-1.38,1.79-2.07l-6.07-4.13-17-11.59-1.38,2.21-.55-.41-6.07,8.82h0c-.13.28-.55.28-.82.14-.42-.41-1-.69-1.38-1.1l-12.41-8.42Z" transform="translate(-47.45 -130.45)" style="fill:#878787;stroke:#343434;stroke-miterlimit:13.789995908737183;stroke-width:0.13789996114224135px;fill-rule:evenodd;opacity:0.5;isolation:isolate"/><path id="C236" d="M526.92,348s11.3,9.1,20.68,11.31l-.41,1.24s-11.45-4.83-16.41-3.72a38,38,0,0,0-8.41.69Z" transform="translate(-47.45 -130.45)" style="fill:#878787;stroke:#343434;stroke-miterlimit:13.789995908737183;stroke-width:0.13789996114224135px;fill-rule:evenodd;opacity:0.5;isolation:isolate"/><path id="C235" d="M526.92,348l-4.42,9.52-16.82,4.68s.41-13,5-19.16l.42.13,1.1-2.2Z" transform="translate(-47.45 -130.45)" style="fill:#878787;stroke:#343434;stroke-miterlimit:13.789995908737183;stroke-width:0.13789996114224135px;fill-rule:evenodd;opacity:0.5;isolation:isolate"/><path id="C214" d="M497.68,331.74l-1.24,6.62s-.28.69.28.83l8,1.37,1.93-4.27A2.3,2.3,0,0,0,506,334l-4.82-1.8Z" transform="translate(-47.45 -130.45)" style="fill:#878787;stroke:#343434;stroke-miterlimit:13.789995908737183;stroke-width:0.13789996114224135px;fill-rule:evenodd;opacity:0.5;isolation:isolate"/><path id="H420" d="M504.71,340.7l-8-1.38a.59.59,0,0,1-.28-.82l1.24-6.62-5.93-1.8s-11.44-.69-12.27,0c0,0-.14,9.66-.83,9,0,0-1.65,10.34-6.76,17.65l27.45,4.83L500,355l-.14-1.65,1-2.07Z" transform="translate(-47.45 -130.45)" style="fill:#878787;stroke:#343434;stroke-miterlimit:13.789995908737183;stroke-width:0.13789996114224135px;opacity:0.5;isolation:isolate"/><path id="C212" d="M434.38,317.81l-1.93,9.93,20.69,4,1.1-3.72a57.92,57.92,0,0,1-19.86-10.21Z" transform="translate(-47.45 -130.45)" style="fill:#878787;stroke:#343434;stroke-miterlimit:13.789995908737183;stroke-width:0.13789996114224135px;fill-rule:evenodd;opacity:0.5;isolation:isolate"/><path id="C211" d="M434.38,317.81a56.37,56.37,0,0,1-8.27-8c-.41-.41-.83-1-1.24-1.38l-4.41,17,12,2.34,1.93-9.93Z" transform="translate(-47.45 -130.45)" style="fill:#878787;stroke:#343434;stroke-miterlimit:13.789995908737183;stroke-width:0.13789996114224135px;fill-rule:evenodd;opacity:0.5;isolation:isolate"/><path id="H406" d="M402,320.84c-.42,1.25-.83,2.49-1.24,3.73-.14.41-.28.69-.42,1.1l-6.06-2.89c-1,2.48-1.93,5-3,7.3l-18.06-13.51-7.59-5.24-7.72,11.31-7.58-5.38L308.9,288l6.62-20.4.13-.28.42-1.38,1-3,7.45-23.31,3.31-5c1,.69,1.93,1.24,2.89,1.93l8.28,5.65,3.45,3,2.34,1.65,3,1.38,4.42,3a36.18,36.18,0,0,1,3.58,2.76l.28.28.27.27,2.07,1.66,1.66,1.1,30.06,20.69,4.14,2.89-4.42,6.48,7,4.83,2.34,4.55a85.43,85.43,0,0,1-3.31,21.24l6.07,2.75Z" transform="translate(-47.45 -130.45)" style="fill:#878787;stroke:#343434;stroke-miterlimit:13.789995908737183;stroke-width:0.13789996114224135px;fill-rule:evenodd;opacity:0.5;isolation:isolate"/><path id="C136" d="M521,338.36s-3.87-2.9-5.24-3.86-1.25-2.9-1.25-2.9l.83-4H521v10.76Z" transform="translate(-47.45 -130.45)" style="fill:#878787;stroke:#343434;stroke-miterlimit:13.789995908737183;stroke-width:0.13789996114224135px;fill-rule:evenodd;opacity:0.5;isolation:isolate"/><path id="I301" d="M526.64,259.89,560.29,286l-8.14,69.77-.41.55-1.93.56-15.45-7.31-6.2-4.55L521,338.36V327.6h-5.66l.55-4.41s1.38-25.51,1.66-25.65-.55-9.79-.55-9.79L515.88,266l5.24,3.31Z" transform="translate(-47.45 -130.45)" style="fill:#878787;stroke:#343434;stroke-miterlimit:13.789995908737183;stroke-width:0.13789996114224135px;fill-rule:evenodd;opacity:0.5;isolation:isolate"/><path id="H404" d="M439.63,276.72l22.89,13.65-8,32.68s-9.1-3-14.07-6.76l-1.65-1.1-5.38-5.38-2.76-1.93-5.93-6.76Z" transform="translate(-47.45 -130.45)" style="fill:#878787;stroke:#343434;stroke-miterlimit:13.789995908737183;stroke-width:0.13789996114224135px;fill-rule:evenodd;opacity:0.5;isolation:isolate"/><path id="H405B" d="M489.54,246,510,258.38a14.81,14.81,0,0,0-.55,6.06l1.66,27.31v7.58l-20-2.07s-9.24.14-15.72-1.79a44.41,44.41,0,0,1-12.82-5.1Z" transform="translate(-47.45 -130.45)" style="fill:#878787;stroke:#343434;stroke-miterlimit:13.789995908737183;stroke-width:0.13789996114224135px;fill-rule:evenodd;opacity:0.5;isolation:isolate"/><path id="H405A" d="M422.39,266.37l40.26,24c.14-1.93,26.89-44.54,26.89-44.54l-10.48-6.21-1.93,3.17-8.68-5.1c-3.31,2.9-5.66,4.69-8.83,7-3.72,2.49-9.1,5.24-13.51,5.8-3,.27-5,1.65-7.86,2.62C425.56,259.62,425.28,264,422.39,266.37Z" transform="translate(-47.45 -130.45)" style="fill:#878787;stroke:#343434;stroke-miterlimit:13.789995908737183;stroke-width:0.13789996114224135px;fill-rule:evenodd;opacity:0.5;isolation:isolate"/><path id="H402" d="M438.38,243.07a1.79,1.79,0,0,1-2.2-.83l-.83-1.65c1.38-.42,2.9-.83,4.28-1.11h.27a39.75,39.75,0,0,0,20.69-10.89l-59.85-35.44-32.27,54.33,13.1,9.1L378,262l3,1.38,2.34,1.66,3.45,3,6.89,4.69c2.76,1.93,5.38,3.86,8,5.79a50.06,50.06,0,0,1,28.69-36.13l1,1.93a2,2,0,0,1-.69,2.48,66.32,66.32,0,0,1,7.72-3.72Z" transform="translate(-47.45 -130.45)" style="fill:#878787;stroke:#343434;stroke-miterlimit:13.789995908737183;stroke-width:0.13789996114224135px;fill-rule:evenodd;opacity:0.5;isolation:isolate"/><path id="C213A" d="M402.53,292.85l-5.79-.69A13.94,13.94,0,0,1,399.5,285a4.67,4.67,0,0,1,2.06,3.86A19.42,19.42,0,0,0,402.53,292.85Z" transform="translate(-47.45 -130.45)" style="fill:#878787;stroke:#343434;stroke-miterlimit:13.789995908737183;stroke-width:0.13789996114224135px;fill-rule:evenodd;opacity:0.5;isolation:isolate"/><path id="C213" d="M396.74,292.16A11.25,11.25,0,0,1,399.5,285l-5.38-4.14-4.41,6.48Z" transform="translate(-47.45 -130.45)" style="fill:#878787;stroke:#343434;stroke-miterlimit:13.789995908737183;stroke-width:0.13789996114224135px;fill-rule:evenodd;opacity:0.5;isolation:isolate"/><path id="C210" d="M424.87,301l14.76-24.27-18.48-11.31-3.86,6.89s5.24,4.42,3.58,10.9c0,0-2.07,6.89-3.86,9.24l.41,1Z" transform="translate(-47.45 -130.45)" style="fill:#878787;stroke:#343434;stroke-miterlimit:13.789995908737183;stroke-width:0.13789996114224135px;fill-rule:evenodd;opacity:0.5;isolation:isolate"/><polygon id="C209" points="265.72 95.52 257.58 91.38 254.13 98.69 262.41 102.55 265.72 95.52" style="fill:#878787;stroke:#343434;stroke-miterlimit:13.789995908737183;stroke-width:0.13789996114224135px;fill-rule:evenodd;opacity:0.5;isolation:isolate"/><polygon id="C208" points="257.44 91.25 249.17 87.39 245.86 94.83 254.13 98.56 257.44 91.25" style="fill:#878787;stroke:#343434;stroke-miterlimit:13.789995908737183;stroke-width:0.13789996114224135px;fill-rule:evenodd;opacity:0.5;isolation:isolate"/><polygon id="C207" points="249.17 87.39 240.9 83.66 237.45 90.97 245.72 94.83 249.17 87.39" style="fill:#878787;stroke:#343434;stroke-miterlimit:13.789995908737183;stroke-width:0.13789996114224135px;fill-rule:evenodd;opacity:0.5;isolation:isolate"/><path id="C206" d="M288.35,214.11l-5.79-2.62a2.73,2.73,0,0,0-3.59,1.24l-2.62,4.83,8.69,4,3.31-7.45Z" transform="translate(-47.45 -130.45)" style="fill:#878787;stroke:#343434;stroke-miterlimit:13.789995908737183;stroke-width:0.13789996114224135px;fill-rule:evenodd;opacity:0.5;isolation:isolate"/><polygon id="C205" points="334.25 126.27 327.77 121.86 324.05 127.1 330.53 131.51 334.25 126.27" style="fill:#878787;stroke:#343434;stroke-miterlimit:13.789995908737183;stroke-width:0.13789996114224135px;fill-rule:evenodd;opacity:0.5;isolation:isolate"/><path id="C204" d="M375.23,252.31l-6.76-4.55L366,251.89a1.79,1.79,0,0,0,.55,2.49l5,3.44Z" transform="translate(-47.45 -130.45)" style="fill:#878787;stroke:#343434;stroke-miterlimit:13.789995908737183;stroke-width:0.13789996114224135px;fill-rule:evenodd;opacity:0.5;isolation:isolate"/><path id="C203" d="M363.92,245.14l-5.24-3.59-3.59,5.24c.55.42,3.45,2.07,4,2.48l.28.14a2,2,0,0,0,2.48-.69l2.07-3.58Z" transform="translate(-47.45 -130.45)" style="fill:#878787;stroke:#343434;stroke-miterlimit:13.789995908737183;stroke-width:0.13789996114224135px;fill-rule:evenodd;opacity:0.5;isolation:isolate"/><polygon id="C202" points="311.23 111.1 306.12 107.52 302.4 112.9 307.64 116.48 311.23 111.1" style="fill:#878787;stroke:#343434;stroke-miterlimit:13.789995908737183;stroke-width:0.13789996114224135px;fill-rule:evenodd;opacity:0.5;isolation:isolate"/><polygon id="C201" points="306.12 107.52 300.88 104.07 297.3 109.31 302.4 112.9 306.12 107.52" style="fill:#878787;stroke:#343434;stroke-miterlimit:13.789995908737183;stroke-width:0.13789996114224135px;fill-rule:evenodd;opacity:0.5;isolation:isolate"/><polygon id="C200" points="300.88 104.07 295.78 100.49 292.06 105.86 297.3 109.31 300.88 104.07" style="fill:#878787;stroke:#343434;stroke-miterlimit:13.789995908737183;stroke-width:0.13789996114224135px;fill-rule:evenodd;opacity:0.5;isolation:isolate"/><path id="H401" d="M394.39,193.84l-45.23-26.75-29.23,49.23a132,132,0,0,1,12,7.17l-2.35,3.86h0a1.79,1.79,0,0,1-2.48.55c2.21,1.38,4.41,2.9,6.62,4.27l.83.56a1.81,1.81,0,0,1-.56-2.49l2.35-4.13a5.18,5.18,0,0,1,1,.69l26.62,18.34,30.47-51.3Z" transform="translate(-47.45 -130.45)" style="fill:#878787;stroke:#343434;stroke-miterlimit:13.789995908737183;stroke-width:0.13789996114224135px;fill-rule:evenodd;opacity:0.5;isolation:isolate"/><polygon id="C402" points="260.89 42.71 263.51 37.74 256.89 34.29 254.41 39.26 260.89 42.71" style="fill:#878787;stroke:#343434;stroke-miterlimit:13.789995908737183;stroke-width:0.13789996114224135px;fill-rule:evenodd;opacity:0.5;isolation:isolate"/><polygon id="C401" points="263.51 37.74 266.13 32.91 259.51 29.33 256.89 34.29 263.51 37.74" style="fill:#878787;stroke:#343434;stroke-miterlimit:13.789995908737183;stroke-width:0.13789996114224135px;fill-rule:evenodd;opacity:0.5;isolation:isolate"/><polygon id="C400" points="266.13 32.91 268.61 28.09 262.27 24.23 259.51 29.33 266.13 32.91" style="fill:#878787;stroke:#343434;stroke-miterlimit:13.789995908737183;stroke-width:0.13789996114224135px;fill-rule:evenodd;opacity:0.5;isolation:isolate"/><path id="H121-B" d="M308.34,173.15l-19,36-4.27-1.8a2.86,2.86,0,0,1-1.38-3.44l18.07-34.2Z" transform="translate(-47.45 -130.45)" style="fill:#878787;stroke:#343434;stroke-miterlimit:13.789995908737183;stroke-width:0.13789996114224135px;fill-rule:evenodd;opacity:0.5;isolation:isolate"/><path id="H121-A" d="M289.31,209.15l3.59,1.37,3.17.83,2.62,1.24,4,2.35,2.76,1.24q5.79,2.69,11.58,5.79l3-5.65,24.27-41.1-28.27-16.68Z" transform="translate(-47.45 -130.45)" style="fill:#878787;stroke:#343434;stroke-miterlimit:13.789995908737183;stroke-width:0.13789996114224135px;fill-rule:evenodd;opacity:0.5;isolation:isolate"/><path id="C135" d="M515.88,266l5.24,3.31s5.52-9.24,5.52-9.38-5.79-4.69-5.79-4.69-2.76-1.79-4.28,1.11a29.92,29.92,0,0,0-.82,7.17Z" transform="translate(-47.45 -130.45)" style="fill:#878787;stroke:#343434;stroke-miterlimit:13.789995908737183;stroke-width:0.13789996114224135px;fill-rule:evenodd;opacity:0.5;isolation:isolate"/><path id="C134" d="M512.16,250.52h0a2,2,0,0,0-.69-2.49c-.83-.55-1.52-1-2.34-1.51l-5.11-3-4.68,8,5.1,3c1.93,1.11,3.72,2.35,5.51,3.59a26.53,26.53,0,0,1,2.21-7.58Z" transform="translate(-47.45 -130.45)" style="fill:#878787;stroke:#343434;stroke-miterlimit:13.789995908737183;stroke-width:0.13789996114224135px;fill-rule:evenodd;opacity:0.5;isolation:isolate"/><polygon id="C133" points="456.57 113.17 446.78 107.38 442.09 115.38 444.57 116.9 451.88 121.17 456.57 113.17" style="fill:#878787;stroke:#343434;stroke-miterlimit:13.789995908737183;stroke-width:0.13789996114224135px;fill-rule:evenodd;opacity:0.5;isolation:isolate"/><polygon id="C132" points="431.61 109.17 436.3 101.17 445.4 106.69 440.71 114.55 431.61 109.17" style="fill:#878787;stroke:#343434;stroke-miterlimit:13.789995908737183;stroke-width:0.13789996114224135px;fill-rule:evenodd;opacity:0.5;isolation:isolate"/><path id="C131" d="M483.75,231.62l-7-4.13a1.78,1.78,0,0,0-2.48.55,48.9,48.9,0,0,1-7.31,8.69l10.2,6.06,6.62-11.17Z" transform="translate(-47.45 -130.45)" style="fill:#878787;stroke:#343434;stroke-miterlimit:13.789995908737183;stroke-width:0.13789996114224135px;fill-rule:evenodd;opacity:0.5;isolation:isolate"/><path id="C130" d="M467.07,221.83l-8.28-5-4.69,8,9,5.24a62,62,0,0,0,4.69-5.66,2,2,0,0,0-.69-2.62Z" transform="translate(-47.45 -130.45)" style="fill:#878787;stroke:#343434;stroke-miterlimit:13.789995908737183;stroke-width:0.13789996114224135px;fill-rule:evenodd;opacity:0.5;isolation:isolate"/><polygon id="C129" points="399.34 79.39 394.52 87.25 406.51 94.42 411.2 86.42 399.34 79.39" style="fill:#878787;stroke:#343434;stroke-miterlimit:13.789995908737183;stroke-width:0.13789996114224135px;fill-rule:evenodd;opacity:0.5;isolation:isolate"/><polygon id="C128" points="399.34 79.39 391.35 74.7 386.66 82.56 394.52 87.25 399.34 79.39" style="fill:#878787;stroke:#343434;stroke-miterlimit:13.789995908737183;stroke-width:0.13789996114224135px;fill-rule:evenodd;opacity:0.5;isolation:isolate"/><polygon id="C127" points="383.35 70.01 378.66 77.87 386.66 82.56 391.35 74.7 383.35 70.01" style="fill:#878787;stroke:#343434;stroke-miterlimit:13.789995908737183;stroke-width:0.13789996114224135px;fill-rule:evenodd;opacity:0.5;isolation:isolate"/><polygon id="C126" points="375.49 65.18 370.8 73.18 378.66 77.87 383.35 70.01 375.49 65.18" style="fill:#878787;stroke:#343434;stroke-miterlimit:13.789995908737183;stroke-width:0.13789996114224135px;fill-rule:evenodd;opacity:0.5;isolation:isolate"/><polygon id="C125" points="375.49 65.18 367.49 60.49 362.8 68.49 370.8 73.18 375.49 65.18" style="fill:#878787;stroke:#343434;stroke-miterlimit:13.789995908737183;stroke-width:0.13789996114224135px;fill-rule:evenodd;opacity:0.5;isolation:isolate"/><path id="C124" d="M406.94,186.25a1.71,1.71,0,0,0-2.48.69l-3.72,6.35,9.65,5.65,4.69-8-8.14-4.69Z" transform="translate(-47.45 -130.45)" style="fill:#878787;stroke:#343434;stroke-miterlimit:13.789995908737183;stroke-width:0.13789996114224135px;fill-rule:evenodd;opacity:0.5;isolation:isolate"/><path id="C123" d="M400.05,184.32a1.71,1.71,0,0,0-.69-2.48l-13.38-8L379.36,185l15,8.83,5.66-9.52Z" transform="translate(-47.45 -130.45)" style="fill:#878787;stroke:#343434;stroke-miterlimit:13.789995908737183;stroke-width:0.13789996114224135px;fill-rule:evenodd;opacity:0.5;isolation:isolate"/><path id="C122" d="M355.64,156.33l-.27-.14-.55-.27a83.55,83.55,0,0,1-25-22.62,5.39,5.39,0,0,0-7.73-1.1,6.62,6.62,0,0,0-1.65,1.79l-10.89,20.82,34.61,20.55Z" transform="translate(-47.45 -130.45)" style="fill:#878787;stroke:#343434;stroke-miterlimit:13.789995908737183;stroke-width:0.13789996114224135px;fill-rule:evenodd;opacity:0.5;isolation:isolate"/><polygon id="C120" points="323.5 34.43 316.88 45.6 331.91 54.43 338.53 43.4 323.5 34.43" style="fill:#878787;stroke:#343434;stroke-miterlimit:13.789995908737183;stroke-width:0.13789996114224135px;fill-rule:evenodd;opacity:0.5;isolation:isolate"/><path id="C118" d="M532.29,249.69,562.36,273v-.27l.55-4.14.14-1.24,1.24-10.62L543.19,250l-2.07-.69-3.17-1-2.48-.83a.71.71,0,0,1-.28-.55h-.14l-2.76,2.76Z" transform="translate(-47.45 -130.45)" style="fill:#878787;stroke:#343434;stroke-miterlimit:13.789995908737183;stroke-width:0.13789996114224135px;fill-rule:evenodd;opacity:0.5;isolation:isolate"/><path id="C117" d="M512.71,226.11l1.52,1h0v-.14l7.17,2.76-3.17,7c0,.13,0,.13-.14.13a1.79,1.79,0,0,1-2.48.56,6,6,0,0,0-1-.56l-6.2-3.72,4.27-7Z" transform="translate(-47.45 -130.45)" style="fill:#878787;stroke:#343434;stroke-miterlimit:13.789995908737183;stroke-width:0.13789996114224135px;fill-rule:evenodd;opacity:0.5;isolation:isolate"/><polygon id="C116" points="465.26 95.66 456.43 90.42 452.3 97.59 461.12 102.83 465.26 95.66" style="fill:#878787;stroke:#343434;stroke-miterlimit:13.789995908737183;stroke-width:0.13789996114224135px;fill-rule:evenodd;opacity:0.5;isolation:isolate"/><polygon id="C115" points="456.43 90.42 447.61 85.32 443.47 92.35 452.3 97.59 456.43 90.42" style="fill:#878787;stroke:#343434;stroke-miterlimit:13.789995908737183;stroke-width:0.13789996114224135px;fill-rule:evenodd;opacity:0.5;isolation:isolate"/><polygon id="C114" points="441.68 81.73 438.78 79.94 434.51 87.11 443.47 92.35 447.61 85.32 441.68 81.73" style="fill:#878787;stroke:#343434;stroke-miterlimit:13.789995908737183;stroke-width:0.13789996114224135px;fill-rule:evenodd;opacity:0.5;isolation:isolate"/><polygon id="C113" points="421.27 69.6 423.48 70.84 437.27 79.11 438.78 79.94 434.51 87.11 416.99 76.77 421.27 69.6" style="fill:#878787;stroke:#343434;stroke-miterlimit:13.789995908737183;stroke-width:0.13789996114224135px;fill-rule:evenodd;opacity:0.5;isolation:isolate"/><polygon id="C112" points="421.27 69.6 412.44 64.36 408.17 71.53 416.99 76.77 421.27 69.6" style="fill:#878787;stroke:#343434;stroke-miterlimit:13.789995908737183;stroke-width:0.13789996114224135px;fill-rule:evenodd;opacity:0.5;isolation:isolate"/><polygon id="C111" points="412.44 64.36 403.62 59.12 399.34 66.29 408.17 71.53 412.44 64.36" style="fill:#878787;stroke:#343434;stroke-miterlimit:13.789995908737183;stroke-width:0.13789996114224135px;fill-rule:evenodd;opacity:0.5;isolation:isolate"/><polygon id="C110" points="403.62 59.12 394.79 54.01 390.52 61.18 399.34 66.29 403.62 59.12" style="fill:#878787;stroke:#343434;stroke-miterlimit:13.789995908737183;stroke-width:0.13789996114224135px;fill-rule:evenodd;opacity:0.5;isolation:isolate"/><polygon id="C109" points="394.79 54.01 389.69 50.98 385.97 48.77 381.83 55.94 390.52 61.18 394.79 54.01" style="fill:#878787;stroke:#343434;stroke-miterlimit:13.789995908737183;stroke-width:0.13789996114224135px;fill-rule:evenodd;opacity:0.5;isolation:isolate"/><polygon id="C108" points="379.35 44.77 377.14 43.53 373 50.7 381.83 55.94 385.97 48.77 379.35 44.77" style="fill:#878787;stroke:#343434;stroke-miterlimit:13.789995908737183;stroke-width:0.13789996114224135px;fill-rule:evenodd;opacity:0.5;isolation:isolate"/><polygon id="C107" points="359.49 33.19 355.35 40.22 373 50.7 377.14 43.53 375.21 42.43 374.38 41.88 372.04 40.5 359.49 33.19" style="fill:#878787;stroke:#343434;stroke-miterlimit:13.789995908737183;stroke-width:0.13789996114224135px;fill-rule:evenodd;opacity:0.5;isolation:isolate"/><polygon id="C106" points="359.49 33.19 351.49 28.5 350.53 27.95 346.39 34.98 355.35 40.22 359.49 33.19" style="fill:#878787;stroke:#343434;stroke-miterlimit:13.789995908737183;stroke-width:0.13789996114224135px;fill-rule:evenodd;opacity:0.5;isolation:isolate"/><polygon id="C105" points="348.04 26.3 341.7 22.57 337.56 29.74 346.39 34.98 350.53 27.95 348.04 26.3" style="fill:#878787;stroke:#343434;stroke-miterlimit:13.789995908737183;stroke-width:0.13789996114224135px;fill-rule:evenodd;opacity:0.5;isolation:isolate"/><polygon id="C104" points="340.46 21.75 333.01 17.33 328.74 24.5 337.56 29.74 341.7 22.57 340.46 21.75" style="fill:#878787;stroke:#343434;stroke-miterlimit:13.789995908737183;stroke-width:0.13789996114224135px;fill-rule:evenodd;opacity:0.5;isolation:isolate"/><polygon id="C103" points="333.01 17.33 324.19 12.09 319.91 19.26 328.74 24.5 333.01 17.33" style="fill:#878787;stroke:#343434;stroke-miterlimit:13.789995908737183;stroke-width:0.13789996114224135px;fill-rule:evenodd;opacity:0.5;isolation:isolate"/><path id="C102" d="M371.64,142.54l-8.83-5.24-4.27,7c.69.42,1.38,1,2.21,1.38l6.62,4,4.27-7.17Z" transform="translate(-47.45 -130.45)" style="fill:#878787;stroke:#343434;stroke-miterlimit:13.789995908737183;stroke-width:0.13789996114224135px;fill-rule:evenodd;opacity:0.5;isolation:isolate"/><path id="C101" d="M362.68,137.44l-4.55-2.76-7-4.14-3.31,5.66a69.75,69.75,0,0,0,10.76,8.27l4.14-7Z" transform="translate(-47.45 -130.45)" style="fill:#878787;stroke:#343434;stroke-miterlimit:13.789995908737183;stroke-width:0.13789996114224135px;fill-rule:evenodd;opacity:0.5;isolation:isolate"/><polygon id="H419-B" points="222.28 307.06 285.3 237.14 291.92 242.38 297.57 246.94 303.92 251.76 308.74 255.62 309.02 257.83 239.66 334.92 222.28 307.06" style="fill:#878787;stroke:#343434;stroke-miterlimit:13.789995908737183;stroke-width:0.15637854995563139px;opacity:0.5;isolation:isolate"/><polygon id="H419-C" points="201.46 288.31 220.63 251.76 255.38 270.52 222.28 307.06 216.35 297.27 213.59 293.41 211.52 292.99 208.76 292.03 201.46 288.31" style="fill:#878787;stroke:#343434;stroke-miterlimit:13.789995908737183;stroke-width:0.15637854995563139px;opacity:0.5;isolation:isolate"/><polygon id="H419-A" points="237.17 220.04 220.63 251.76 255.38 270.52 285.3 237.14 265.44 223.22 255.93 219.63 253.58 226.8 237.17 220.04" style="fill:#878787;stroke:#343434;stroke-miterlimit:13.789995908737183;stroke-width:0.15637854995563139px;opacity:0.5;isolation:isolate"/><polyline id="C217-B" points="253.58 226.8 237.17 220.04 240.62 213.84 255.93 219.63" style="fill:#878787;stroke:#343434;stroke-miterlimit:13.789995908737183;stroke-width:0.1368141372653664px;opacity:0.5;isolation:isolate"/><path id="H403-A" d="M454.52,323.05l8-32.68c9.1,5.51,23,6.34,23,6.34L483.62,324C470.38,326.36,460.31,325.12,454.52,323.05Z" transform="translate(-47.45 -130.45)" style="fill:#878787;stroke:#343434;stroke-miterlimit:13.789995908737183;stroke-width:0.13789996114224135px;fill-rule:evenodd;opacity:0.5;isolation:isolate"/><path id="H403" d="M483.62,324.43s12.27-.41,22.75,4.27c0,0,2.07,1.25,2.76-1.37l1.93-27.86s-25.65-2.48-25.51-2.21Z" transform="translate(-47.45 -130.45)" style="fill:#878787;stroke:#343434;stroke-miterlimit:13.789995908737183;stroke-width:0.13789996114224135px;fill-rule:evenodd;opacity:0.5;isolation:isolate"/><polygon id="C119-A" points="308.19 25.88 311.42 27.93 313.49 29.19 307.4 39.9 301.71 36.64 308.19 25.88" style="fill:#878787;stroke:#343434;stroke-miterlimit:13.789995908737183;stroke-width:0.13789996114224135px;fill-rule:evenodd;opacity:0.5"/><polygon id="C119-B" points="316.88 45.6 323.5 34.43 317.29 30.85 314.57 29.64 313.49 29.19 307.4 39.9 316.88 45.6" style="fill:#878787;stroke:#343434;stroke-miterlimit:13.789995908737183;stroke-width:0.13789996114224135px;fill-rule:evenodd;opacity:0.5"/></svg>