<!--?xml version="1.0" encoding="utf-8"?-->
<!-- Generator: Adobe Illustrator 24.1.2, SVG Export Plug-In . SVG Version: 6.00 Build 0)  -->
<svg version="1.1" id="Capa_1" xmlns="http://www.w3.org/2000/svg" xmlns:xlink="http://www.w3.org/1999/xlink" x="0px" y="0px" viewBox="0 0 443.8 445.8" style="enable-background:new 0 0 443.8 445.8;" xml:space="preserve" width="100%" height="100%">
<style type="text/css">
	
		.st0{opacity:0.5;fill-rule:evenodd;clip-rule:evenodd;fill:#878787;stroke:#343434;stroke-width:0.1;stroke-miterlimit:10;enable-background:new    ;}
	.st1{opacity:0.5;fill:#878787;stroke:#343434;stroke-width:0.1;stroke-miterlimit:10;enable-background:new    ;}
	.st2{display:none;opacity:0.5;fill:#878787;stroke:#343434;stroke-width:0.1;stroke-miterlimit:10;enable-background:new    ;}
	.st3{opacity:0.5;fill:#878787;stroke:#343434;stroke-width:0.1134;stroke-miterlimit:10;}
	.st4{opacity:0.5;fill:#878787;stroke:#343434;stroke-width:9.921260e-02;stroke-miterlimit:10;}
	.st5{opacity:0.5;fill-rule:evenodd;clip-rule:evenodd;fill:#878787;stroke:#343434;stroke-width:0.1;stroke-miterlimit:10;}
</style>
<image style="display:none;overflow:visible;opacity:0.4;enable-background:new    ;" width="5967" height="6783" id="fondo" xlink:href="5FF73287.png" transform="matrix(6.280000e-02 0 0 6.280000e-02 34.54 10.3454)">
</image>
<polygon id="AFA" class="st0 area" points="249.1,418.5 249,418.5 248.6,418.7 247.6,419.2 245.4,420.4 243.4,421.6 242.1,421.8 
	238.9,424.8 237.9,426.3 236.9,427.6 235.4,429.9 234.7,431.1 232.3,434.8 231.9,435.4 231.5,436.1 231.2,436 229.2,435.8 
	226.7,435.7 225.6,435.5 223.1,435.3 214.1,434.6 209.6,434.4 199.9,433.9 196.5,433.7 191.9,433.4 189.1,433.4 185.4,433.3 
	181.9,433.1 182.8,431.9 181.3,431.5 182,425.4 182.7,419 111.7,406.8 85.5,402.3 85.2,404.8 84.8,408.5 84.1,414.9 59.2,410.7 
	52.6,409.5 50.5,409.2 47.6,408.7 39.7,407.3 34.5,406.4 34.8,406 36.1,403.6 38.4,399.4 39.2,398.1 39.7,397.1 43.2,390.7 
	46.7,383.9 47.2,384 48.5,384.2 50.4,384.8 52.3,385.6 53.5,386.1 55.6,386.8 56.1,387.1 56.7,387.6 56.9,387.7 57.4,388.4 
	59.1,389.3 60.1,388.8 60.7,388.6 66.1,386.6 71.1,385.1 73,384.8 76.4,384.1 79.4,383.5 80.8,383.1 82.7,383.2 83.8,383.3 
	84.7,383.3 85.3,383.2 88,383 89.4,383.1 90.6,383.2 91.4,383.3 91.5,383 94.6,383.5 96.8,383.6 97.8,383.3 100.8,383.1 102,382.8 
	103.8,382.8 107.6,382.5 108.5,382.1 110.1,381.6 111.7,381.1 113.4,380.4 114.7,379.9 116.5,379.3 117.7,378.8 118.6,378.1 
	120.6,377.2 121.7,376.2 122.9,375.3 123.7,374.9 124.4,374.8 124.8,374.6 125,374.8 125.7,375.8 126.1,376.9 126.6,377.9 
	127.3,379 128.4,380.2 130,381.2 131.5,382.3 133.5,383.4 134,383.8 135.4,384.3 136.5,384.3 137.6,384.2 138.8,383.8 140.2,383.6 
	141.4,383.4 142.3,383.4 143.5,382.9 144.5,382.7 145.9,382.5 147.3,382.7 147.8,382.9 149.1,383 150.5,383.4 151.9,383.5 
	153.7,383.9 155.9,384.2 158,384.4 159.2,384.6 159.8,384.5 160.6,384.8 161.8,384.7 162.6,383 166.1,383.9 172.9,385.5 179,388.8 
	181.9,395.5 182.4,401.8 182.9,407.3 185.8,412.1 191.5,413.8 198.1,412.4 205.2,413.6 211.3,415.1 217.5,413.9 223.7,410.4 
	229.7,406.3 236.5,406 239.3,410.1 242.4,418.3 " title=""></polygon>
<path id="H418" class="st0 area" d="M296.3,388.5l0.6-1.1l-48-17.1l-2.1,5.7l-2.3,6.3l-3.8-1.4l-3.9,14.1c-0.1,0.4,0,0.9,0.3,1.2
	c0,0,0.1,0.1,0.1,0.1c1.6,2.2,1.2,5.3-0.9,6.9l2.5,3.6l1.7,2.4l2.8,7.6l8.9,0.2l3.6-1.5l5.8-2.8l6.6-3.1l2.8-1.4l1.5-0.6l1-0.5
	l2.8-1.6l6.9-4.4L296.3,388.5L296.3,388.5z" title=""></path>
<path id="H417" class="st0 area" d="M236.5,379.5l-4.6-1.6l-1.9-0.7L184,360.7l-5.1,7.7l-2.2,3.4l-4.8,7l-1.9,2.7l-0.5,0.3l-1.8,0.2
	l-1.4,0.1l-1.3,0.1l1.5,0.4l7,1.7l6.6,3.6l3.2,7.4l0.5,6.5l0.6,5.1l2.5,4.2l4.9,1.4l6.6-1.3l7.4,1.2l5.9,1.5l5.7-1.1l5.9-3.3
	l6.3-4.3l0.6-2c-0.5-0.5-0.9-1.1-1.1-1.8c-0.9-2.6,0.4-5.4,3-6.3c0.4-0.1,0.7-0.5,0.8-0.9L236.5,379.5L236.5,379.5z" title=""></path>
<polygon id="C225" class="st0 area" points="246.9,376 242.6,374.5 240.8,381 244.6,382.4 " title=""></polygon>
<path id="C224" class="st0 area" d="M248.9,370.3l-4.6-1.6c-0.5,1.5-0.9,3-1.4,4.5l-0.4,1.3l4.2,1.5L248.9,370.3L248.9,370.3z" title=""></path>
<polygon id="C223" class="st0 area" points="238.2,373.5 234,372 231.9,377.9 236.5,379.5 " title=""></polygon>
<path id="C222" class="st0 area" d="M240.1,367l-3.8-1.4l-1.8,5l-0.5,1.4l4.2,1.5l0.4-1.5C239.1,370.3,239.6,368.6,240.1,367L240.1,367z" title=""></path>
<path id="H416" class="st0 area" d="M309.3,358.5l-2.3,5.8l-10.1,23.1l-52.5-18.8c0,0,6.3-19.1,16.9-32l43.2,20.3L309.3,358.5z" title=""></path>
<path id="H415" class="st1 area" d="M240.1,367l3.1-8.3l3.5-7.4c0,0,4.1-8,10.3-16.1l-8.1-4l-1.7,1.3c0,0-3.1,5.5-6.1,9l-10.7-7.3
	l-1.3,0.1l-13,10.5l-26.5,9.6l-2.3,2.1l-1.5,1.7l-1.8,2.4l48,17.2l4.4-12.2L240.1,367z" title=""></path>
<polygon id="H413-B" class="st0 area" points="261.3,336.7 263.9,333 308.1,353.6 308.1,358.2 304.5,357 " title=""></polygon>
<path id="H413-A" class="st0 area" d="M308.1,353.6l1.3-34.8l-9.3-20.8l-7.9,3.5l-1.6-3.5c0,0-3.9,2.4-5.4,5.2c-1.5,2.8,0,0.2,0,0.2
	L263.9,333L308.1,353.6z" title=""></path>
<path id="C221" class="st0 area" d="M290.7,298.1c0.3-0.2,0.6-0.4,0.9-0.5c0.3-0.1,0.5-0.3,0.8-0.4c0.1-0.1,0.3-0.1,0.4-0.2l1.9-0.9
	c0.4-0.2,0.9-0.1,1.2,0.1c1.1,0.6,2.4,0.9,3.6,0.6l0.6,1.3l-7.9,3.5L290.7,298.1L290.7,298.1z" title=""></path>
<polygon id="H414" class="st1 area" points="257,335.2 248.9,331.2 247.4,332.3 241.1,341.5 230.4,334.3 229.4,334.3 226.9,314.6 
	245.9,294.3 273.9,311.7 " title=""></polygon>
<path id="H412" class="st1 area" d="M273.9,311.7l-28-17.4c0,0,3-5.3,16.2-14.3c0,0,4.2-2.8,15-7.7l8-3.5l7,14.7l-3.5,1.6l3.4,7.4
	c0,0-5.5,2.8-8,5.7L273.9,311.7z" title=""></path>
<path id="C219" class="st0 area" d="M294.2,289.5c-0.3,0.5-0.5,1-0.6,1.5c-0.1,0.4-0.4,0.8-0.8,1l-1,0.4l-3.4-7.4l3.5-1.6l1,2.3l1.2,2.6
	C294.5,288.7,294.4,289.1,294.2,289.5L294.2,289.5z" title=""></path>
<path id="H411-C" class="st1 area" d="M252.4,264.8c3.2,5,6.5,10.1,9.7,15.2c7.2-4.5,15.1-7.9,22.9-11.2c-2.2-5.1-4.4-10.2-6.6-15.4
	c-0.2-0.6-0.5-1.1-1.1-1.4c-0.6-0.3-1.3,0-2,0.3c-3.3,1.6-6.9,3.1-10.6,3.1c-2.6,0-5.4-0.6-7.7,0.6c-0.6,0.3-1.1,0.8-1.6,1.2
	c-0.3,0.2-0.6,0.5-0.7,0.8c-0.3,0.7,0,1.5,0.1,2.3C255.1,262.2,254.1,264.1,252.4,264.8z" title=""></path>
<path id="H411-B" class="st1 area" d="M208.2,273.2l9-10l1.5,1.4c0,0,10.8,14.3,23.9,2.4l3.7-3.5c0,0,2.2,3.2,6.2,1.3l9.7,15.2
	c0,0-8.8,6.4-15.8,13.9c-7,7.5-7,7.5-7,7.5l-2.3,2.5l-3-3.3l-2.6-3.8l-4.5-3.9L208.2,273.2z" title=""></path>
<path id="H411-A" class="st1 area" d="M238.9,239.1l9.6,7.8l4.4,3.4l2.7,1.8c0,0-3.7,2-4.6,4c0,0-3.7-0.8-5.4,2.8c0,0-1.2,2.4,0.6,4.8
	l-3.7,3.5c0,0-11.2,12.1-23.9-2.4l-1.5-1.4L238.9,239.1z" title=""></path>
<path id="C218" class="st0 area" d="M258.6,218.3c-0.1-0.3-0.1-0.6-0.1-1c0-0.1,0-0.1,0-0.2l-6,6.6l10.4,9.1l4.2-4.8l-1.7-3.7
	c-0.4-0.9-1.2-1.4-2.1-1.6C260.9,222.5,259,220.7,258.6,218.3L258.6,218.3z" title=""></path>
<path id="H419" class="st2 area" d="M258.4,217.1c-0.1,0.4-0.4,0.7-0.7,1c-6.7,7.4-13.4,14.9-20,22.3s-13.4,14.9-20,22.3
	c-1.7,1.9-3.3,3.7-5,5.6c-0.8,0.9-1.7,1.9-2.5,2.8c-0.4,0.5-0.8,0.9-1.2,1.3c-0.6,0.6-0.6,0.9-1.1,0.2c-2.6-4.2-5.1-8.5-7.7-12.8
	c-2-3.4-4.1-6.7-6.1-10.1c-1.1-1.8-2.2-3.7-3.8-5.2c-2.7-2.6-6.3-3.9-9.8-5.2c9.5-18,19-36,28.4-54c10.1,2.7,19.4,7.9,28.1,13.8
	c6.9,4.8,13.5,10.1,20,15.3c0.8,0.6,1.6,1.4,1.4,2.4C258.4,217,258.4,217,258.4,217.1z" title=""></path>
<polygon id="C217" class="st1 area" points="196.4,188.4 196.6,184.4 206.6,184.9 208.9,185.4 206.5,189.9 206.4,189.9 " title=""></polygon>
<path id="I303" class="st1 area" d="M136.7,223.9l6-11.3l-1.8-0.9c0,0-1.3-0.6-2.6,0.5l4.6-8.7c0,0-0.8,1.9,0.9,2.8l1.6,0.9l11-20.8
	l1.8,1l1.8-7.9l8.2,1.1c0,0,3.3,0.5,6.1,1.2c2.8,0.7,7.3,1.6,7.3,1.6s1.2,0.5,3.8,0.5l11.3,0.4l-0.2,4l10.1,1.5l-26,49.5l-7.5-3.1
	l-12.7-4.9l-12.1-4.7l-5.3-2.2C142.8,224.5,139.9,223.8,136.7,223.9z" title=""></path>
<path id="C234" class="st1 area" d="M152.9,184.6l2.1-4c0,0,0.7-1.4,2.5-1.4l2.5,0.3l-1.8,7.9L152.9,184.6z" title=""></path>
<polygon id="C233" class="st1 area" points="154.4,190.3 150.9,188.3 152.9,184.6 156.4,186.5 " title=""></polygon>
<polygon id="C232" class="st1 area" points="152.4,194.1 148.8,192.1 150.9,188.3 154.3,190.3 " title=""></polygon>
<polygon id="C231" class="st1 area" points="146.9,195.9 148.8,192.1 152.4,194.1 150.4,197.9 " title=""></polygon>
<polygon id="C230" class="st1 area" points="144.9,199.7 146.9,195.9 150.4,197.9 148.4,201.6 " title=""></polygon>
<path id="C229" class="st1 area" d="M142.9,203.6l2.1-3.9l3.5,1.9l-3,5.7l-1.6-0.9C143.7,206.3,142.2,205.8,142.9,203.6z" title=""></path>
<path id="C228" class="st1 area" d="M136.7,215.3l1.6-3c0,0,1.2-1.2,2.6-0.5l1.8,0.9l-2.4,4.5L136.7,215.3z" title=""></path>
<polygon id="C227" class="st1 area" points="134.7,219.1 136.7,215.3 140.3,217.1 138.2,221 " title=""></polygon>
<path id="C226" class="st1 area" d="M134.7,219.1l-2.5,4.7c0,0-0.1,0.1,4.5,0.2l1.6-2.9L134.7,219.1z" title=""></path>
<path id="C220" class="st0 area" d="M296.2,281.3l3.5-1.5l3.4,7.5l-0.9,0.5c0,0-0.8,0.4-1.3,0s-1.6-0.7-1.6-0.7s-0.7-0.2-0.8-0.6
	S296.2,281.3,296.2,281.3z" title=""></path>
<path id="H410" class="st0 area" d="M281.3,248.2l7.7-4.4c0,0,7.5-4.3,9.9-5l19.3,28.9l-2.2,3.8c0,0-1.9,3.9-5.2,8c0,0-4.6,7.2-7.8,8.4
	l-3.4-8l-3.5,1.5L281.3,248.2z" title=""></path>
<path id="H409" class="st0 area" d="M341.5,238.1l0.6-0.7l-23.5-16.3l-10.8,11.7c0,0-4.3,4.3-8.9,6l19.3,28.9c0,0,5-8.7,6.6-10.6
	c0,0,5.6-7.4,7.6-8.9c0,0,5.1-4.5,5.9-6l-3.7-2.7l3.1-4L341.5,238.1z" title=""></path>
<polygon id="C237" class="st0 area" points="341.5,238.1 337.6,235.4 334.5,239.4 338.3,242.1 " title=""></polygon>
<path id="I302" class="st0 area" d="M395.4,201.5l0.1-0.5l0.2-0.6l-1.1-0.5c-5.6-2.4-11.9-2.7-17.7-0.8l-4,1.3c-0.8,0.3-1.6,0.5-2.5,0.7
	l-3.9,0.7c-0.6,6.5-2.9,12.8-6.6,18.1l-6.3,9.1l17,8.6l13.4,6.7l0.8-6.7l1.3-9.9l0.2-1.3l0.2-1.1l5.5-15L395.4,201.5L395.4,201.5z" title=""></path>
<path id="H408" class="st0 area" d="M356.2,217.2c3.2-4.5,5.1-9.8,5.8-15.3l-3.5-0.2c-0.7-0.1-1.5-0.2-2.2-0.3l-9.6-1.7l-7.1-1.5
	c-0.7,1-1.5,1.9-2.4,2.8l-18.6,20.1l23.5,16.3c0.2-0.2,0.4-0.5,0.5-0.7L356.2,217.2L356.2,217.2z" title=""></path>
<path id="M203" class="st0 area" d="M290.9,214.6c0.8-0.8,0.7-2.1-0.1-2.8c0,0,0,0,0,0l-13.3-11.6l-5.2,5.9c-1.8,2-3,4.4-3.5,7.1
	c-0.1,0.6,0,1.2,0.3,1.8c0.3,0.6,0.5,1.3,0.6,2c0.1,0.8,0,1.7-0.3,2.4c-0.2,0.6-0.2,1.2,0,1.8c0.2,0.5,0.3,0.9,0.5,1.4l4.7,10.3
	L290.9,214.6L290.9,214.6z" title=""></path>
<path id="M201" class="st0 area" d="M283.3,174.8l-12.7-9.5l-9,13.3l13.4,9.1C278.3,183.8,281.1,179.4,283.3,174.8L283.3,174.8z" title=""></path>
<path id="C216" class="st0 area" d="M278.3,183.3l3.2,2.4c0.6,0.4,0.7,1.3,0.3,1.9c-0.8,1.1-1.6,2.1-2.4,3.1l-4.4-3
	C276.2,186.3,277.3,184.8,278.3,183.3L278.3,183.3z" title=""></path>
<path id="C215" class="st0 area" d="M283.3,174.8l4.4,3.3c-0.7,1.4-1.4,2.7-2.2,4c0,0,0,0.1-0.1,0.1c-0.4,0.6-1.3,0.7-1.9,0.3l-3.1-2.3
	C281.4,178.4,282.4,176.6,283.3,174.8L283.3,174.8z" title=""></path>
<path id="H407" class="st0 area" d="M246.3,180.3l6.1-8.8l-1.6-1.1l3.2-4.6l-29.8-21.2l-3.8,11.4L206,179.3l21.7,8.2l17.6,11.9l16.5,11.3
	l16.3-18.4c0.4-0.5,0.9-1,1.3-1.5l-4.4-3l-12.3-8.4l-1,1.6l-0.4-0.3l-4.4,6.4c0,0,0,0,0,0c-0.1,0.2-0.4,0.2-0.6,0.1
	c-0.3-0.3-0.7-0.5-1-0.8L246.3,180.3L246.3,180.3z" title=""></path>
<path id="C236" class="st0 area" d="M382.1,188.1c0,0,8.2,6.6,15,8.2l-0.3,0.9c0,0-8.3-3.5-11.9-2.7c0,0-3.9-0.1-6.1,0.5L382.1,188.1z" title=""></path>
<path id="C235" class="st0 area" d="M382.1,188.1l-3.2,6.9l-12.2,3.4c0,0,0.3-9.4,3.6-13.9l0.3,0.1l0.8-1.6L382.1,188.1z" title=""></path>
<path id="C214" class="st0 area" d="M360.9,176.3l-0.9,4.8c0,0-0.2,0.5,0.2,0.6l5.8,1l1.4-3.1c0,0,0.3-1.1-0.5-1.7l-3.5-1.3L360.9,176.3z
	" title=""></path>
<path id="H420" class="st1 area" d="M366,182.8l-5.8-1c0,0-0.4-0.2-0.2-0.6l0.9-4.8l-4.3-1.3c0,0-8.3-0.5-8.9,0c0,0-0.1,7-0.6,6.5
	c0,0-1.2,7.5-4.9,12.8l19.9,3.5l0.5-4.7l-0.1-1.2l0.7-1.5L366,182.8z" title=""></path>
<path id="C212" class="st0 area" d="M315,166.2l-1.4,7.2l15,2.9l0.8-2.7C324.2,172.1,319.3,169.6,315,166.2L315,166.2z" title=""></path>
<path id="C211" class="st0 area" d="M315,166.2c-2.2-1.7-4.2-3.7-6-5.8c-0.3-0.3-0.6-0.7-0.9-1l-3.2,12.3l8.7,1.7L315,166.2L315,166.2z" title=""></path>
<path id="H406" class="st0 area" d="M291.5,168.4c-0.3,0.9-0.6,1.8-0.9,2.7c-0.1,0.3-0.2,0.5-0.3,0.8l-4.4-2.1c-0.7,1.8-1.4,3.6-2.2,5.3
	l-13.1-9.8l-5.5-3.8l-5.6,8.2l-5.5-3.9L224,144.6l4.8-14.8l0.1-0.2l0.3-1l0.7-2.2l5.4-16.9l2.4-3.6c0.7,0.5,1.4,0.9,2.1,1.4l6,4.1
	l2.5,2.2l1.7,1.2l2.2,1l3.2,2.2c0.9,0.6,1.8,1.3,2.6,2l0.2,0.2l0.2,0.2c0.5,0.4,1,0.8,1.5,1.2l1.2,0.8l21.8,15c1,0.7,2,1.4,3,2.1
	l-3.2,4.7l5.1,3.5l1.7,3.3c-0.1,5.2-1,10.4-2.4,15.4L291.5,168.4L291.5,168.4z" title=""></path>
<path id="C136" class="st0 area" d="M377.8,181.1c0,0-2.8-2.1-3.8-2.8c-1-0.6-0.9-2.1-0.9-2.1l0.6-2.9h4.1L377.8,181.1L377.8,181.1z" title=""></path>
<path id="I301" class="st0 area" d="M381.9,124.2l24.4,18.9l-5.9,50.6l-0.3,0.4l-1.4,0.4l-11.2-5.3l-4.5-3.3l-5.2-4.8v-7.8h-4.1l0.4-3.2
	c0,0,1-18.5,1.2-18.6c0.2-0.1-0.4-7.1-0.4-7.1l-0.8-15.8l3.8,2.4L381.9,124.2z" title=""></path>
<path id="H404" class="st0 area" d="M318.8,136.4l16.6,9.9l-5.8,23.7c0,0-6.6-2.2-10.2-4.9l-1.2-0.8l-3.9-3.9l-2-1.4l-4.3-4.9
	L318.8,136.4z" title=""></path>
<path id="H405B_1_" class="st0 area" d="M355,114.1l14.8,9c0,0-0.7,2-0.4,4.4l1.2,19.8v5.5l-14.5-1.5c0,0-6.7,0.1-11.4-1.3
	c-3.3-0.7-6.3-2-9.3-3.7L355,114.1z" title=""></path>
<path id="H405A" class="st0 area" d="M306.3,128.9l29.2,17.4c0.1-1.4,19.5-32.3,19.5-32.3l-7.6-4.5l-1.4,2.3l-6.3-3.7
	c-2.4,2.1-4.1,3.4-6.4,5.1c-2.7,1.8-6.6,3.8-9.8,4.2c-2.2,0.2-3.6,1.2-5.7,1.9C308.6,124,308.4,127.2,306.3,128.9z" title=""></path>
<path id="H402" class="st0 area" d="M317.9,112c-0.6,0.2-1.3,0-1.6-0.6l-0.6-1.2c1-0.3,2.1-0.6,3.1-0.8c0.1,0,0.1,0,0.2,0
	c5.7-1.1,10.9-3.8,15-7.9l-43.4-25.7l-23.4,39.4l9.5,6.6l-2.6,3.9l2.2,1l1.7,1.2l2.5,2.2l5,3.4c2,1.4,3.9,2.8,5.8,4.2
	c2.3-11.6,10-21.4,20.8-26.2l0.7,1.4c0.3,0.6,0.1,1.4-0.5,1.8C314.1,113.7,315.9,112.8,317.9,112L317.9,112z" title=""></path>
<path id="C213A" class="st0 area" d="M291.9,148.1l-4.2-0.5c0,0,0.1-2.7,2-5.2c0,0,1.5,0.9,1.5,2.8C291.3,145.2,291.1,145.8,291.9,148.1z
	" title=""></path>
<path id="C213" class="st0 area" d="M287.7,147.6c0,0-0.1-2.8,2-5.2l-3.9-3l-3.2,4.7L287.7,147.6z" title=""></path>
<path id="C210" class="st0 area" d="M308.1,154l10.7-17.6l-13.4-8.2l-2.8,5c0,0,3.8,3.2,2.6,7.9c0,0-1.5,5-2.8,6.7l0.3,0.7L308.1,154z" title=""></path>
<polygon id="C209" class="st0 area" points="227.1,99.6 221.2,96.6 218.7,101.9 224.7,104.7 " title=""></polygon>
<polygon id="C208" class="st0 area" points="221.1,96.5 215.1,93.7 212.7,99.1 218.7,101.8 " title=""></polygon>
<polygon id="C207" class="st0 area" points="215.1,93.7 209.1,91 206.6,96.3 212.6,99.1 " title=""></polygon>
<path id="C206" class="st0 area" d="M209.1,91l-4.2-1.9c-1-0.4-2.1-0.1-2.6,0.9l-1.9,3.5l6.3,2.9L209.1,91L209.1,91z" title=""></path>
<polygon id="C205" class="st0 area" points="276.8,121.9 272.1,118.7 269.4,122.5 274.1,125.7 " title=""></polygon>
<path id="C204" class="st0 area" d="M272.1,118.7l-4.9-3.3l-1.8,3c-0.4,0.6-0.2,1.4,0.4,1.8l3.6,2.5L272.1,118.7z" title=""></path>
<path id="C203" class="st0 area" d="M263.9,113.5l-3.8-2.6l-2.6,3.8c0.4,0.3,2.5,1.5,2.9,1.8l0.2,0.1c0.6,0.3,1.4,0.1,1.8-0.5
	L263.9,113.5L263.9,113.5z" title=""></path>
<polygon id="C202" class="st0 area" points="260.1,110.9 256.4,108.3 253.7,112.2 257.5,114.8 " title=""></polygon>
<polygon id="C201" class="st0 area" points="256.4,108.3 252.6,105.8 250,109.6 253.7,112.2 " title=""></polygon>
<polygon id="C200" class="st0 area" points="252.6,105.8 248.9,103.2 246.2,107.1 250,109.6 " title=""></polygon>
<path id="H401" class="st0 area" d="M286,76.3l-32.8-19.4L232,92.6c3,1.6,5.9,3.3,8.7,5.2l-1.7,2.8c0,0,0,0,0,0c-0.4,0.6-1.2,0.8-1.8,0.4
	c1.6,1,3.2,2.1,4.8,3.1l0.6,0.4c-0.6-0.4-0.8-1.2-0.4-1.8l1.7-3c0.3,0.2,0.5,0.3,0.7,0.5l19.3,13.3L286,76.3L286,76.3z" title=""></path>
<polygon id="C402" class="st0 area" points="223.6,61.3 225.5,57.7 220.7,55.2 218.9,58.8 " title=""></polygon>
<polygon id="C401" class="st0 area" points="225.5,57.7 227.4,54.2 222.6,51.6 220.7,55.2 " title=""></polygon>
<polygon id="C400" class="st0 area" points="227.4,54.2 229.2,50.7 224.6,47.9 222.6,51.6 " title=""></polygon>
<path id="H121-B" class="st0 area" d="M223.6,61.3l-13.8,26.1l-3.1-1.3c0,0-1.4-0.6-1-2.5l13.1-24.8L223.6,61.3z" title=""></path>
<path id="H121-A" class="st0 area" d="M209.8,87.4l2.6,1l2.3,0.6l1.9,0.9l2.9,1.7l2,0.9c2.8,1.3,5.6,2.7,8.4,4.2l2.2-4.1l17.6-29.8
	l-20.5-12.1L209.8,87.4z" title=""></path>
<path id="C135" class="st0 area" d="M374.1,128.6l3.8,2.4c0,0,4-6.7,4-6.8c-0.1-0.1-4.2-3.4-4.2-3.4s-2-1.3-3.1,0.8c0,0-0.7,2.8-0.6,5.2
	L374.1,128.6z" title=""></path>
<path id="C134" class="st0 area" d="M371.4,117.4L371.4,117.4c0.3-0.7,0.1-1.4-0.5-1.8c-0.6-0.4-1.1-0.7-1.7-1.1l-3.7-2.2l-3.4,5.8
	l3.7,2.2c1.4,0.8,2.7,1.7,4,2.6C370,121.1,370.6,119.2,371.4,117.4L371.4,117.4z" title=""></path>
<polygon id="C133" class="st0 area" points="365.5,112.4 358.4,108.2 355,114 356.8,115.1 362.1,118.2 " title=""></polygon>
<polygon id="C132" class="st0 area" points="347.4,109.5 350.8,103.7 357.4,107.7 354,113.4 " title=""></polygon>
<path id="C131" class="st0 area" d="M350.8,103.7l-5.1-3c-0.6-0.4-1.4-0.2-1.8,0.4c-1.5,2.3-3.3,4.4-5.3,6.3l7.4,4.4L350.8,103.7
	L350.8,103.7z" title=""></path>
<path id="C130" class="st0 area" d="M338.7,96.6l-6-3.6l-3.4,5.8l6.5,3.8c1.2-1.3,2.4-2.7,3.4-4.1C339.5,97.9,339.4,97,338.7,96.6
	C338.7,96.6,338.7,96.6,338.7,96.6L338.7,96.6z" title=""></path>
<polygon id="C129" class="st0 area" points="324,87.9 320.5,93.6 329.2,98.8 332.6,93 " title=""></polygon>
<polygon id="C128" class="st0 area" points="324,87.9 318.2,84.5 314.8,90.2 320.5,93.6 " title=""></polygon>
<polygon id="C127" class="st0 area" points="312.4,81.1 309,86.8 314.8,90.2 318.2,84.5 " title=""></polygon>
<polygon id="C126" class="st0 area" points="306.7,77.6 303.3,83.4 309,86.8 312.4,81.1 " title=""></polygon>
<polygon id="C125" class="st0 area" points="306.7,77.6 300.9,74.2 297.5,80 303.3,83.4 " title=""></polygon>
<path id="C124" class="st0 area" d="M295.1,70.8c-0.6-0.4-1.5-0.2-1.8,0.5l-2.7,4.6l7,4.1l3.4-5.8L295.1,70.8L295.1,70.8z" title=""></path>
<path id="C123" class="st0 area" d="M290.1,69.4c0.4-0.6,0.2-1.5-0.5-1.8l-9.7-5.8l-4.8,8.1l10.9,6.4L290.1,69.4L290.1,69.4z" title=""></path>
<path id="C122" class="st0 area" d="M257.9,49.1l-0.2-0.1l-0.4-0.2c-7.1-4.2-13.3-9.8-18.1-16.4c-1.3-1.8-3.8-2.2-5.6-0.8
	c-0.5,0.4-0.9,0.8-1.2,1.3l-7.9,15.1l25.1,14.9L257.9,49.1z" title=""></path>
<polygon id="C120" class="st0 area" points="269,55.3 264.2,63.4 275.1,69.8 279.9,61.8 " title=""></polygon>
<polygon id="C119" class="st0 area" points="264.5,52.7 262.3,51.8 260.4,50.7 257.9,48.8 253.2,56.9 264.2,63.4 269,55.3 " title=""></polygon>
<path id="C118" class="st0 area" d="M386,116.8l21.8,16.9l0-0.2l0.4-3l0.1-0.9l0.9-7.7l-15.3-4.9l-1.5-0.5l-2.3-0.7l-1.8-0.6
	c-0.1-0.1-0.2-0.2-0.2-0.4l-0.1,0L386,116.8L386,116.8z" title=""></path>
<path id="C117" class="st0 area" d="M371.8,99.7l1.1,0.7l0,0l0-0.1l5.2,2l-2.3,5.1c0,0.1,0,0.1-0.1,0.1c-0.4,0.6-1.2,0.8-1.8,0.4
	c-0.2-0.1-0.4-0.3-0.7-0.4l-4.5-2.7L371.8,99.7L371.8,99.7z" title=""></path>
<polygon id="C116" class="st0 area" points="371.8,99.7 365.4,95.9 362.4,101.1 368.8,104.9 " title=""></polygon>
<polygon id="C115" class="st0 area" points="365.4,95.9 359,92.2 356,97.3 362.4,101.1 " title=""></polygon>
<polygon id="C114" class="st0 area" points="354.7,89.6 352.6,88.3 349.5,93.5 356,97.3 359,92.2 " title=""></polygon>
<polygon id="C113" class="st0 area" points="339.9,80.8 341.5,81.7 351.5,87.7 352.6,88.3 349.5,93.5 336.8,86 " title=""></polygon>
<polygon id="C112" class="st0 area" points="339.9,80.8 333.5,77 330.4,82.2 336.8,86 " title=""></polygon>
<polygon id="C111" class="st0 area" points="333.5,77 327.1,73.2 324,78.4 330.4,82.2 " title=""></polygon>
<polygon id="C110" class="st0 area" points="327.1,73.2 320.7,69.5 317.6,74.7 324,78.4 " title=""></polygon>
<polygon id="C109" class="st0 area" points="320.7,69.5 317,67.3 314.3,65.7 311.3,70.9 317.6,74.7 " title=""></polygon>
<polygon id="C108" class="st0 area" points="309.5,62.8 307.9,61.9 304.9,67.1 311.3,70.9 314.3,65.7 " title=""></polygon>
<polygon id="C107_1_" class="st0 area" points="295.1,54.4 292.1,59.5 304.9,67.1 307.9,61.9 306.5,61.1 305.9,60.7 304.2,59.7 " title=""></polygon>
<polygon id="C106" class="st0 area" points="295.1,54.4 289.3,51 288.6,50.6 285.6,55.7 292.1,59.5 " title=""></polygon>
<polygon id="C105" class="st0 area" points="286.8,49.4 282.2,46.7 279.2,51.9 285.6,55.7 288.6,50.6 " title=""></polygon>
<polygon id="C104" class="st0 area" points="281.3,46.1 275.9,42.9 272.8,48.1 279.2,51.9 282.2,46.7 " title=""></polygon>
<polygon id="C103" class="st0 area" points="275.9,42.9 269.5,39.1 266.4,44.3 272.8,48.1 " title=""></polygon>
<path id="C102" class="st0 area" d="M269.5,39.1l-6.4-3.8l-3.1,5.1c0.5,0.3,1,0.7,1.6,1l4.8,2.9L269.5,39.1L269.5,39.1z" title=""></path>
<path id="C101" class="st0 area" d="M263,35.4l-3.3-2l-5.1-3l-2.4,4.1c2.4,2.2,5,4.3,7.8,6L263,35.4L263,35.4z" title=""></path>
<polygon id="H419-B" class="st3 area" points="195.6,253 241.3,202.3 246.1,206.1 250.2,209.4 254.8,212.9 258.3,215.7 258.5,217.3 
	208.2,273.2 " title=""></polygon>
<polygon id="H419-C" class="st3 area" points="180.5,239.4 194.4,212.9 219.6,226.5 195.6,253 191.3,245.9 189.3,243.1 187.8,242.8 
	185.8,242.1 " title=""></polygon>
<polygon id="H419-A" class="st3 area" points="206.4,189.9 194.4,212.9 219.6,226.5 241.3,202.3 226.9,192.2 220,189.6 218.3,194.8 " title=""></polygon>
<polyline id="C217-B" class="st4 area" points="218.3,194.8 206.4,189.9 208.9,185.4 220,189.6 " title=""></polyline>
<path id="H403-A" class="st5 area active" d="M329.6,170l5.8-23.7c6.6,4,16.7,4.6,16.7,4.6l-1.4,19.8C341.1,172.4,333.8,171.5,329.6,170z" title=""></path>
<path id="H403" class="st5 area" d="M350.7,171c0,0,8.9-0.3,16.5,3.1c0,0,1.5,0.9,2-1l1.4-20.2c0,0-18.6-1.8-18.5-1.6L350.7,171z" title=""></path>
</svg>
